<svg xmlns="http://www.w3.org/2000/svg" width="270.452" height="73.174" viewBox="0 0 270.452 73.174">
  <path id="Path_23" data-name="Path 23" d="M21.781,6.02V8.61h4.536v1.82H21.781V14H19.513V4.2h7.406V6.02Zm8.47,1.442a2.429,2.429,0,0,1,1.057-.826,3.923,3.923,0,0,1,1.533-.28V8.372q-.364-.028-.49-.028a2,2,0,0,0-1.47.525,2.122,2.122,0,0,0-.532,1.575V14H28.165V6.468h2.086Zm7.406,6.65a4.516,4.516,0,0,1-2.135-.5,3.7,3.7,0,0,1-1.477-1.379,3.8,3.8,0,0,1-.532-2,3.8,3.8,0,0,1,.532-2,3.7,3.7,0,0,1,1.477-1.379,4.819,4.819,0,0,1,4.263,0,3.706,3.706,0,0,1,1.47,1.379,3.8,3.8,0,0,1,.532,2,3.8,3.8,0,0,1-.532,2,3.706,3.706,0,0,1-1.47,1.379A4.475,4.475,0,0,1,37.657,14.112Zm0-1.792a1.819,1.819,0,0,0,1.379-.567,2.114,2.114,0,0,0,.539-1.519,2.114,2.114,0,0,0-.539-1.519,1.819,1.819,0,0,0-1.379-.567,1.842,1.842,0,0,0-1.386.567,2.1,2.1,0,0,0-.546,1.519,2.1,2.1,0,0,0,.546,1.519A1.842,1.842,0,0,0,37.657,12.32ZM52.889,6.356a3.036,3.036,0,0,1,2.247.833,3.394,3.394,0,0,1,.833,2.5V14H53.785V10.024a2.041,2.041,0,0,0-.371-1.337,1.3,1.3,0,0,0-1.057-.441,1.558,1.558,0,0,0-1.218.5,2.142,2.142,0,0,0-.448,1.477V14H48.507V10.024q0-1.778-1.428-1.778a1.541,1.541,0,0,0-1.2.5,2.142,2.142,0,0,0-.448,1.477V14H43.243V6.468h2.086v.868a2.757,2.757,0,0,1,1.029-.728,3.463,3.463,0,0,1,1.337-.252,3.238,3.238,0,0,1,1.442.315,2.554,2.554,0,0,1,1.036.917,3.09,3.09,0,0,1,1.169-.91A3.688,3.688,0,0,1,52.889,6.356Zm12.04,0a3.92,3.92,0,0,1,2.688.833A3.188,3.188,0,0,1,68.555,9.7V14H66.511v-.938a2.434,2.434,0,0,1-2.3,1.05,3.563,3.563,0,0,1-1.5-.294,2.244,2.244,0,0,1-.973-.812A2.113,2.113,0,0,1,61.4,11.83a1.962,1.962,0,0,1,.791-1.652,4.031,4.031,0,0,1,2.443-.6h1.736a1.392,1.392,0,0,0-.434-1.1,1.912,1.912,0,0,0-1.3-.385,3.8,3.8,0,0,0-1.183.189,3.13,3.13,0,0,0-.987.511l-.784-1.526a4.73,4.73,0,0,1,1.477-.672A6.616,6.616,0,0,1,64.929,6.356Zm-.168,6.286a1.9,1.9,0,0,0,.994-.259,1.417,1.417,0,0,0,.616-.763v-.77h-1.5q-1.344,0-1.344.882a.785.785,0,0,0,.329.665A1.482,1.482,0,0,0,64.761,12.642ZM79.069,6.356a3.1,3.1,0,0,1,2.261.84,3.331,3.331,0,0,1,.861,2.492V14H80.007V10.024a1.963,1.963,0,0,0-.392-1.337,1.438,1.438,0,0,0-1.134-.441,1.738,1.738,0,0,0-1.316.511,2.116,2.116,0,0,0-.49,1.519V14H74.491V3.612h2.184v3.64a2.905,2.905,0,0,1,1.05-.665A3.8,3.8,0,0,1,79.069,6.356Zm12.684.112V14H89.681v-.9a2.9,2.9,0,0,1-1.036.749,3.259,3.259,0,0,1-1.3.259,3.208,3.208,0,0,1-2.352-.854,3.4,3.4,0,0,1-.868-2.534V6.468h2.184V10.4q0,1.82,1.526,1.82a1.641,1.641,0,0,0,1.26-.511,2.156,2.156,0,0,0,.476-1.519V6.468Zm11.676-.112a3.036,3.036,0,0,1,2.247.833,3.394,3.394,0,0,1,.833,2.5V14h-2.184V10.024a2.041,2.041,0,0,0-.371-1.337,1.3,1.3,0,0,0-1.057-.441,1.558,1.558,0,0,0-1.218.5,2.142,2.142,0,0,0-.448,1.477V14H99.047V10.024q0-1.778-1.428-1.778a1.541,1.541,0,0,0-1.2.5,2.142,2.142,0,0,0-.448,1.477V14H93.783V6.468h2.086v.868A2.757,2.757,0,0,1,96.9,6.608a3.463,3.463,0,0,1,1.337-.252,3.238,3.238,0,0,1,1.442.315,2.554,2.554,0,0,1,1.036.917,3.09,3.09,0,0,1,1.169-.91A3.688,3.688,0,0,1,103.429,6.356Zm9.492,0a3.838,3.838,0,0,1,1.911.483A3.468,3.468,0,0,1,116.183,8.2a4.1,4.1,0,0,1,.49,2.037,4.1,4.1,0,0,1-.49,2.037,3.468,3.468,0,0,1-1.351,1.358,3.838,3.838,0,0,1-1.911.483,2.9,2.9,0,0,1-2.366-.98V14h-2.086V3.612h2.184V7.266A2.909,2.909,0,0,1,112.921,6.356Zm-.378,5.964a1.819,1.819,0,0,0,1.379-.567,2.114,2.114,0,0,0,.539-1.519,2.114,2.114,0,0,0-.539-1.519,1.96,1.96,0,0,0-2.758,0,2.114,2.114,0,0,0-.539,1.519,2.114,2.114,0,0,0,.539,1.519A1.819,1.819,0,0,0,112.543,12.32Zm5.586-8.708h2.184V14h-2.184Zm11.592,6.65q0,.042-.042.588h-5.7a1.775,1.775,0,0,0,.728,1.106,2.411,2.411,0,0,0,1.428.406,2.892,2.892,0,0,0,1.043-.175,2.526,2.526,0,0,0,.847-.553l1.162,1.26a3.905,3.905,0,0,1-3.108,1.218,4.917,4.917,0,0,1-2.254-.5,3.643,3.643,0,0,1-1.512-1.379,3.8,3.8,0,0,1-.532-2,3.849,3.849,0,0,1,.525-1.995,3.678,3.678,0,0,1,1.442-1.386,4.464,4.464,0,0,1,4.053-.021A3.474,3.474,0,0,1,129.21,8.2,4.07,4.07,0,0,1,129.721,10.262Zm-3.906-2.254a1.881,1.881,0,0,0-1.246.42,1.788,1.788,0,0,0-.616,1.148h3.71a1.806,1.806,0,0,0-.616-1.141A1.841,1.841,0,0,0,125.815,8.008Zm13.9-1.652a3.1,3.1,0,0,1,2.261.84,3.331,3.331,0,0,1,.861,2.492V14h-2.184V10.024a1.963,1.963,0,0,0-.392-1.337,1.438,1.438,0,0,0-1.134-.441,1.738,1.738,0,0,0-1.316.511,2.116,2.116,0,0,0-.49,1.519V14h-2.184V6.468h2.086V7.35a2.9,2.9,0,0,1,1.078-.735A3.756,3.756,0,0,1,139.717,6.356Zm8.134,0a3.92,3.92,0,0,1,2.688.833,3.188,3.188,0,0,1,.938,2.513V14h-2.044v-.938a2.434,2.434,0,0,1-2.3,1.05,3.563,3.563,0,0,1-1.505-.294,2.244,2.244,0,0,1-.973-.812,2.113,2.113,0,0,1-.336-1.176,1.962,1.962,0,0,1,.791-1.652,4.031,4.031,0,0,1,2.443-.6h1.736a1.392,1.392,0,0,0-.434-1.1,1.912,1.912,0,0,0-1.3-.385,3.8,3.8,0,0,0-1.183.189,3.13,3.13,0,0,0-.987.511L144.6,7.266a4.73,4.73,0,0,1,1.477-.672A6.616,6.616,0,0,1,147.851,6.356Zm-.168,6.286a1.9,1.9,0,0,0,.994-.259,1.417,1.417,0,0,0,.616-.763v-.77h-1.5q-1.344,0-1.344.882a.785.785,0,0,0,.329.665A1.482,1.482,0,0,0,147.683,12.642Zm13.1-6.174L157.609,14h-2.254l-3.164-7.532h2.254l2.086,5.124,2.156-5.124Zm.9,0h2.184V14h-2.184Zm1.092-1.05a1.385,1.385,0,0,1-.98-.35,1.135,1.135,0,0,1-.378-.868,1.135,1.135,0,0,1,.378-.868,1.385,1.385,0,0,1,.98-.35,1.42,1.42,0,0,1,.98.336,1.077,1.077,0,0,1,.378.84,1.189,1.189,0,0,1-.378.9A1.369,1.369,0,0,1,162.775,5.418Zm10.892,1.05V12.74a4.025,4.025,0,0,1-1.078,3.08,4.451,4.451,0,0,1-3.15,1.008,7.878,7.878,0,0,1-2.072-.266,4.53,4.53,0,0,1-1.624-.77l.868-1.568a3.572,3.572,0,0,0,1.2.623,4.791,4.791,0,0,0,1.456.231,2.361,2.361,0,0,0,1.673-.511,2.037,2.037,0,0,0,.539-1.547V12.7a3.056,3.056,0,0,1-2.38.938,4,4,0,0,1-1.9-.455,3.468,3.468,0,0,1-1.365-1.281,3.582,3.582,0,0,1-.5-1.9,3.582,3.582,0,0,1,.5-1.9,3.468,3.468,0,0,1,1.365-1.281,4,4,0,0,1,1.9-.455,2.989,2.989,0,0,1,2.492,1.078V6.468Zm-4.13,5.376a2.011,2.011,0,0,0,1.421-.511A1.735,1.735,0,0,0,171.511,10a1.735,1.735,0,0,0-.553-1.337,2.011,2.011,0,0,0-1.421-.511,2.037,2.037,0,0,0-1.428.511,1.725,1.725,0,0,0-.56,1.337,1.725,1.725,0,0,0,.56,1.337A2.037,2.037,0,0,0,169.537,11.844Zm9.2-5.488a3.92,3.92,0,0,1,2.688.833,3.188,3.188,0,0,1,.938,2.513V14h-2.044v-.938a2.434,2.434,0,0,1-2.3,1.05,3.563,3.563,0,0,1-1.505-.294,2.244,2.244,0,0,1-.973-.812,2.113,2.113,0,0,1-.336-1.176A1.962,1.962,0,0,1,176,10.178a4.031,4.031,0,0,1,2.443-.6h1.736a1.392,1.392,0,0,0-.434-1.1,1.912,1.912,0,0,0-1.3-.385,3.8,3.8,0,0,0-1.183.189,3.13,3.13,0,0,0-.987.511l-.784-1.526a4.73,4.73,0,0,1,1.477-.672A6.616,6.616,0,0,1,178.735,6.356Zm-.168,6.286a1.9,1.9,0,0,0,.994-.259,1.417,1.417,0,0,0,.616-.763v-.77h-1.5q-1.344,0-1.344.882a.785.785,0,0,0,.329.665A1.482,1.482,0,0,0,178.567,12.642Zm10.626.994a2.245,2.245,0,0,1-.791.357,4,4,0,0,1-.987.119,2.932,2.932,0,0,1-2.079-.686,2.625,2.625,0,0,1-.735-2.016V8.316h-1.162V6.636H184.6V4.8h2.184V6.636h1.876v1.68h-1.876v3.066a1.028,1.028,0,0,0,.245.735.908.908,0,0,0,.693.259,1.4,1.4,0,0,0,.882-.28Zm1.232-7.168h2.184V14h-2.184Zm1.092-1.05a1.385,1.385,0,0,1-.98-.35,1.135,1.135,0,0,1-.378-.868,1.135,1.135,0,0,1,.378-.868,1.385,1.385,0,0,1,.98-.35,1.42,1.42,0,0,1,.98.336,1.077,1.077,0,0,1,.378.84,1.189,1.189,0,0,1-.378.9A1.369,1.369,0,0,1,191.517,5.418Zm6.706,8.694a4.516,4.516,0,0,1-2.135-.5,3.7,3.7,0,0,1-1.477-1.379,3.8,3.8,0,0,1-.532-2,3.8,3.8,0,0,1,.532-2,3.7,3.7,0,0,1,1.477-1.379,4.819,4.819,0,0,1,4.263,0,3.706,3.706,0,0,1,1.47,1.379,3.8,3.8,0,0,1,.532,2,3.8,3.8,0,0,1-.532,2,3.706,3.706,0,0,1-1.47,1.379A4.475,4.475,0,0,1,198.223,14.112Zm0-1.792a1.819,1.819,0,0,0,1.379-.567,2.114,2.114,0,0,0,.539-1.519,2.114,2.114,0,0,0-.539-1.519,1.819,1.819,0,0,0-1.379-.567,1.842,1.842,0,0,0-1.386.567,2.1,2.1,0,0,0-.546,1.519,2.1,2.1,0,0,0,.546,1.519A1.842,1.842,0,0,0,198.223,12.32Zm10.164-5.964a3.1,3.1,0,0,1,2.261.84,3.331,3.331,0,0,1,.861,2.492V14h-2.184V10.024a1.963,1.963,0,0,0-.392-1.337,1.438,1.438,0,0,0-1.134-.441,1.738,1.738,0,0,0-1.316.511,2.116,2.116,0,0,0-.49,1.519V14h-2.184V6.468h2.086V7.35a2.9,2.9,0,0,1,1.078-.735A3.756,3.756,0,0,1,208.387,6.356Zm8.134,0a3.92,3.92,0,0,1,2.688.833,3.188,3.188,0,0,1,.938,2.513V14H218.1v-.938a2.434,2.434,0,0,1-2.3,1.05,3.563,3.563,0,0,1-1.505-.294,2.244,2.244,0,0,1-.973-.812,2.113,2.113,0,0,1-.336-1.176,1.962,1.962,0,0,1,.791-1.652,4.031,4.031,0,0,1,2.443-.6h1.736a1.392,1.392,0,0,0-.434-1.1,1.912,1.912,0,0,0-1.3-.385,3.8,3.8,0,0,0-1.183.189,3.13,3.13,0,0,0-.987.511l-.784-1.526a4.73,4.73,0,0,1,1.477-.672A6.616,6.616,0,0,1,216.521,6.356Zm-.168,6.286a1.9,1.9,0,0,0,.994-.259,1.417,1.417,0,0,0,.616-.763v-.77h-1.5q-1.344,0-1.344.882a.785.785,0,0,0,.329.665A1.482,1.482,0,0,0,216.353,12.642Zm5.768-9.03H224.3V14h-2.184Zm10.71,10.5A7.317,7.317,0,0,1,231,13.881a4.792,4.792,0,0,1-1.428-.581l.728-1.568a4.582,4.582,0,0,0,1.218.525,5.1,5.1,0,0,0,1.4.2q1.386,0,1.386-.686a.486.486,0,0,0-.378-.462,5.6,5.6,0,0,0-1.162-.238,11.21,11.21,0,0,1-1.526-.322,2.367,2.367,0,0,1-1.043-.644,1.831,1.831,0,0,1-.441-1.316,2.062,2.062,0,0,1,.413-1.267,2.658,2.658,0,0,1,1.2-.861,5.142,5.142,0,0,1,1.869-.308,7.335,7.335,0,0,1,1.589.175,4.441,4.441,0,0,1,1.309.483l-.728,1.554a4.346,4.346,0,0,0-2.17-.56,2.208,2.208,0,0,0-1.05.2.576.576,0,0,0-.35.5.5.5,0,0,0,.378.49,6.692,6.692,0,0,0,1.2.266,12.888,12.888,0,0,1,1.512.329,2.272,2.272,0,0,1,1.022.637,1.808,1.808,0,0,1,.434,1.288,1.989,1.989,0,0,1-.42,1.246,2.681,2.681,0,0,1-1.225.847A5.458,5.458,0,0,1,232.831,14.112Zm12.236-7.644-3.4,7.994a3.934,3.934,0,0,1-1.281,1.834,3.138,3.138,0,0,1-1.841.532,3.824,3.824,0,0,1-1.162-.182,2.565,2.565,0,0,1-.938-.5l.8-1.554a1.875,1.875,0,0,0,.581.35,1.811,1.811,0,0,0,.651.126,1.155,1.155,0,0,0,.728-.217,1.842,1.842,0,0,0,.5-.721l.028-.07-3.262-7.588h2.254l2.114,5.11,2.128-5.11Zm3.318,7.644a7.317,7.317,0,0,1-1.834-.231,4.792,4.792,0,0,1-1.428-.581l.728-1.568a4.582,4.582,0,0,0,1.218.525,5.1,5.1,0,0,0,1.4.2q1.386,0,1.386-.686a.486.486,0,0,0-.378-.462,5.6,5.6,0,0,0-1.162-.238,11.21,11.21,0,0,1-1.526-.322,2.367,2.367,0,0,1-1.043-.644,1.831,1.831,0,0,1-.441-1.316,2.062,2.062,0,0,1,.413-1.267,2.658,2.658,0,0,1,1.2-.861,5.142,5.142,0,0,1,1.869-.308,7.335,7.335,0,0,1,1.589.175,4.441,4.441,0,0,1,1.309.483l-.728,1.554a4.346,4.346,0,0,0-2.17-.56,2.208,2.208,0,0,0-1.05.2.576.576,0,0,0-.35.5.5.5,0,0,0,.378.49,6.692,6.692,0,0,0,1.2.266,12.888,12.888,0,0,1,1.512.329,2.272,2.272,0,0,1,1.022.637,1.808,1.808,0,0,1,.434,1.288,1.989,1.989,0,0,1-.42,1.246,2.681,2.681,0,0,1-1.225.847A5.458,5.458,0,0,1,248.385,14.112Zm9.758-.476a2.245,2.245,0,0,1-.791.357,4,4,0,0,1-.987.119,2.932,2.932,0,0,1-2.079-.686,2.625,2.625,0,0,1-.735-2.016V8.316h-1.162V6.636h1.162V4.8h2.184V6.636h1.876v1.68h-1.876v3.066a1.028,1.028,0,0,0,.245.735.908.908,0,0,0,.693.259,1.4,1.4,0,0,0,.882-.28Zm8.372-3.374q0,.042-.042.588h-5.7a1.775,1.775,0,0,0,.728,1.106,2.411,2.411,0,0,0,1.428.406,2.892,2.892,0,0,0,1.043-.175,2.526,2.526,0,0,0,.847-.553l1.162,1.26a3.905,3.905,0,0,1-3.108,1.218,4.916,4.916,0,0,1-2.254-.5,3.643,3.643,0,0,1-1.512-1.379,3.8,3.8,0,0,1-.532-2,3.849,3.849,0,0,1,.525-1.995,3.678,3.678,0,0,1,1.442-1.386,4.464,4.464,0,0,1,4.053-.021A3.474,3.474,0,0,1,266,8.2,4.07,4.07,0,0,1,266.515,10.262Zm-3.906-2.254a1.881,1.881,0,0,0-1.246.42,1.788,1.788,0,0,0-.616,1.148h3.71a1.806,1.806,0,0,0-.616-1.141A1.841,1.841,0,0,0,262.609,8.008Zm15.008-1.652a3.036,3.036,0,0,1,2.247.833,3.394,3.394,0,0,1,.833,2.5V14h-2.184V10.024a2.041,2.041,0,0,0-.371-1.337,1.3,1.3,0,0,0-1.057-.441,1.558,1.558,0,0,0-1.218.5,2.142,2.142,0,0,0-.448,1.477V14h-2.184V10.024q0-1.778-1.428-1.778a1.541,1.541,0,0,0-1.2.5,2.142,2.142,0,0,0-.448,1.477V14h-2.184V6.468h2.086v.868a2.757,2.757,0,0,1,1.029-.728,3.464,3.464,0,0,1,1.337-.252,3.238,3.238,0,0,1,1.442.315,2.554,2.554,0,0,1,1.036.917,3.09,3.09,0,0,1,1.169-.91A3.688,3.688,0,0,1,277.617,6.356ZM18.96,34.112a4.631,4.631,0,0,1-2.163-.5,3.722,3.722,0,0,1-1.5-1.379,3.988,3.988,0,0,1,0-4,3.722,3.722,0,0,1,1.5-1.379,4.631,4.631,0,0,1,2.163-.5,4.191,4.191,0,0,1,2.079.5,2.948,2.948,0,0,1,1.295,1.421l-1.694.91a1.852,1.852,0,0,0-1.694-1.036,1.917,1.917,0,0,0-1.414.56,2.359,2.359,0,0,0,0,3.052,1.917,1.917,0,0,0,1.414.56,1.832,1.832,0,0,0,1.694-1.036l1.694.924a3.007,3.007,0,0,1-1.295,1.4A4.144,4.144,0,0,1,18.96,34.112Zm8.12,0a4.516,4.516,0,0,1-2.135-.5,3.7,3.7,0,0,1-1.477-1.379,4.033,4.033,0,0,1,0-4,3.7,3.7,0,0,1,1.477-1.379,4.819,4.819,0,0,1,4.263,0,3.706,3.706,0,0,1,1.47,1.379,4.033,4.033,0,0,1,0,4,3.706,3.706,0,0,1-1.47,1.379A4.475,4.475,0,0,1,27.08,34.112Zm0-1.792a1.819,1.819,0,0,0,1.379-.567,2.41,2.41,0,0,0,0-3.038,1.819,1.819,0,0,0-1.379-.567,1.842,1.842,0,0,0-1.386.567,2.386,2.386,0,0,0,0,3.038A1.842,1.842,0,0,0,27.08,32.32Zm15.232-5.964a3.036,3.036,0,0,1,2.247.833,3.394,3.394,0,0,1,.833,2.5V34H43.208V30.024a2.041,2.041,0,0,0-.371-1.337,1.3,1.3,0,0,0-1.057-.441,1.558,1.558,0,0,0-1.218.5,2.142,2.142,0,0,0-.448,1.477V34H37.93V30.024q0-1.778-1.428-1.778a1.541,1.541,0,0,0-1.2.5,2.142,2.142,0,0,0-.448,1.477V34H32.666V26.468h2.086v.868a2.757,2.757,0,0,1,1.029-.728,3.463,3.463,0,0,1,1.337-.252,3.238,3.238,0,0,1,1.442.315,2.554,2.554,0,0,1,1.036.917,3.09,3.09,0,0,1,1.169-.91A3.688,3.688,0,0,1,42.312,26.356Zm9.492,0a3.838,3.838,0,0,1,1.911.483A3.468,3.468,0,0,1,55.066,28.2a4.479,4.479,0,0,1,0,4.074,3.468,3.468,0,0,1-1.351,1.358,3.838,3.838,0,0,1-1.911.483,2.909,2.909,0,0,1-2.268-.91v3.514H47.352V26.468h2.086v.868A2.9,2.9,0,0,1,51.8,26.356Zm-.378,5.964a1.819,1.819,0,0,0,1.379-.567,2.41,2.41,0,0,0,0-3.038,1.96,1.96,0,0,0-2.758,0,2.41,2.41,0,0,0,0,3.038A1.819,1.819,0,0,0,51.426,32.32Zm8.5-5.964a3.92,3.92,0,0,1,2.688.833A3.188,3.188,0,0,1,63.55,29.7V34H61.506v-.938a2.434,2.434,0,0,1-2.3,1.05,3.563,3.563,0,0,1-1.505-.294,2.244,2.244,0,0,1-.973-.812A2.113,2.113,0,0,1,56.4,31.83a1.962,1.962,0,0,1,.791-1.652,4.031,4.031,0,0,1,2.443-.6h1.736a1.392,1.392,0,0,0-.434-1.1,1.912,1.912,0,0,0-1.3-.385,3.8,3.8,0,0,0-1.183.189,3.13,3.13,0,0,0-.987.511l-.784-1.526a4.73,4.73,0,0,1,1.477-.672A6.616,6.616,0,0,1,59.924,26.356Zm-.168,6.286a1.9,1.9,0,0,0,.994-.259,1.417,1.417,0,0,0,.616-.763v-.77h-1.5q-1.344,0-1.344.882a.785.785,0,0,0,.329.665A1.482,1.482,0,0,0,59.756,32.642ZM70.1,26.356a3.1,3.1,0,0,1,2.261.84,3.331,3.331,0,0,1,.861,2.492V34H71.04V30.024a1.963,1.963,0,0,0-.392-1.337,1.438,1.438,0,0,0-1.134-.441,1.738,1.738,0,0,0-1.316.511,2.116,2.116,0,0,0-.49,1.519V34H65.524V26.468H67.61v.882a2.9,2.9,0,0,1,1.078-.735A3.756,3.756,0,0,1,70.1,26.356Zm12.432.112-3.4,7.994A3.934,3.934,0,0,1,77.851,36.3a3.138,3.138,0,0,1-1.841.532,3.824,3.824,0,0,1-1.162-.182,2.566,2.566,0,0,1-.938-.5l.8-1.554a1.875,1.875,0,0,0,.581.35,1.811,1.811,0,0,0,.651.126,1.155,1.155,0,0,0,.728-.217,1.842,1.842,0,0,0,.5-.721l.028-.07-3.262-7.588h2.254l2.114,5.11,2.128-5.11Zm9.716,7.168a2.245,2.245,0,0,1-.791.357,4,4,0,0,1-.987.119,2.932,2.932,0,0,1-2.079-.686,2.625,2.625,0,0,1-.735-2.016V28.316H86.5v-1.68h1.162V24.8h2.184v1.834h1.876v1.68H89.842v3.066a1.028,1.028,0,0,0,.245.735.908.908,0,0,0,.693.259,1.4,1.4,0,0,0,.882-.28Zm4.578.476a4.516,4.516,0,0,1-2.135-.5,3.7,3.7,0,0,1-1.477-1.379,4.033,4.033,0,0,1,0-4,3.7,3.7,0,0,1,1.477-1.379,4.819,4.819,0,0,1,4.263,0,3.706,3.706,0,0,1,1.47,1.379,4.033,4.033,0,0,1,0,4,3.706,3.706,0,0,1-1.47,1.379A4.475,4.475,0,0,1,96.828,34.112Zm0-1.792a1.819,1.819,0,0,0,1.379-.567,2.41,2.41,0,0,0,0-3.038,1.819,1.819,0,0,0-1.379-.567,1.842,1.842,0,0,0-1.386.567,2.386,2.386,0,0,0,0,3.038A1.842,1.842,0,0,0,96.828,32.32Zm12.586-5.964a3.92,3.92,0,0,1,2.688.833,3.188,3.188,0,0,1,.938,2.513V34H111v-.938a2.434,2.434,0,0,1-2.3,1.05,3.563,3.563,0,0,1-1.5-.294,2.244,2.244,0,0,1-.973-.812,2.113,2.113,0,0,1-.336-1.176,1.962,1.962,0,0,1,.791-1.652,4.031,4.031,0,0,1,2.443-.6h1.736a1.392,1.392,0,0,0-.434-1.1,1.912,1.912,0,0,0-1.3-.385,3.8,3.8,0,0,0-1.183.189,3.13,3.13,0,0,0-.987.511l-.784-1.526a4.731,4.731,0,0,1,1.477-.672A6.616,6.616,0,0,1,109.414,26.356Zm-.168,6.286a1.9,1.9,0,0,0,.994-.259,1.417,1.417,0,0,0,.616-.763v-.77h-1.5q-1.344,0-1.344.882a.785.785,0,0,0,.329.665A1.482,1.482,0,0,0,109.246,32.642Zm21.826-6.174L128.342,34h-2.1l-1.694-4.676L122.8,34h-2.1l-2.716-7.532h2.058l1.778,5.1,1.848-5.1h1.848l1.792,5.1,1.834-5.1Zm4.4,7.644a4.516,4.516,0,0,1-2.135-.5,3.7,3.7,0,0,1-1.477-1.379,4.033,4.033,0,0,1,0-4,3.7,3.7,0,0,1,1.477-1.379,4.819,4.819,0,0,1,4.263,0,3.706,3.706,0,0,1,1.47,1.379,4.033,4.033,0,0,1,0,4,3.706,3.706,0,0,1-1.47,1.379A4.475,4.475,0,0,1,135.468,34.112Zm0-1.792a1.819,1.819,0,0,0,1.379-.567,2.41,2.41,0,0,0,0-3.038,1.819,1.819,0,0,0-1.379-.567,1.842,1.842,0,0,0-1.386.567,2.386,2.386,0,0,0,0,3.038A1.842,1.842,0,0,0,135.468,32.32Zm7.672-4.858a2.429,2.429,0,0,1,1.057-.826,3.923,3.923,0,0,1,1.533-.28v2.016q-.364-.028-.49-.028a2,2,0,0,0-1.47.525,2.122,2.122,0,0,0-.532,1.575V34h-2.184V26.468h2.086Zm3.892-3.85h2.184V34h-2.184Zm11.886,0V34h-2.086v-.868a2.88,2.88,0,0,1-2.352.98,3.911,3.911,0,0,1-1.925-.476,3.408,3.408,0,0,1-1.351-1.358,4.508,4.508,0,0,1,0-4.088,3.408,3.408,0,0,1,1.351-1.358,3.911,3.911,0,0,1,1.925-.476,2.865,2.865,0,0,1,2.254.91V23.612Zm-4.06,8.708a1.825,1.825,0,0,0,1.372-.567,2.386,2.386,0,0,0,0-3.038,1.96,1.96,0,0,0-2.758,0,2.386,2.386,0,0,0,0,3.038A1.842,1.842,0,0,0,154.858,32.32Zm13.678,1.792a4.631,4.631,0,0,1-2.163-.5,3.722,3.722,0,0,1-1.5-1.379,3.987,3.987,0,0,1,0-4,3.722,3.722,0,0,1,1.5-1.379,4.631,4.631,0,0,1,2.163-.5,4.191,4.191,0,0,1,2.079.5,2.948,2.948,0,0,1,1.295,1.421l-1.694.91a1.852,1.852,0,0,0-1.694-1.036,1.917,1.917,0,0,0-1.414.56,2.359,2.359,0,0,0,0,3.052,1.917,1.917,0,0,0,1.414.56,1.833,1.833,0,0,0,1.694-1.036l1.694.924a3.007,3.007,0,0,1-1.295,1.4A4.144,4.144,0,0,1,168.536,34.112Zm4.578-10.5H175.3V34h-2.184Zm7.252,2.744a3.92,3.92,0,0,1,2.688.833,3.188,3.188,0,0,1,.938,2.513V34h-2.044v-.938a2.434,2.434,0,0,1-2.3,1.05,3.564,3.564,0,0,1-1.505-.294,2.244,2.244,0,0,1-.973-.812,2.113,2.113,0,0,1-.336-1.176,1.962,1.962,0,0,1,.791-1.652,4.031,4.031,0,0,1,2.443-.6h1.736a1.392,1.392,0,0,0-.434-1.1,1.912,1.912,0,0,0-1.3-.385,3.8,3.8,0,0,0-1.183.189,3.13,3.13,0,0,0-.987.511l-.784-1.526a4.73,4.73,0,0,1,1.477-.672A6.616,6.616,0,0,1,180.366,26.356Zm-.168,6.286a1.9,1.9,0,0,0,.994-.259,1.417,1.417,0,0,0,.616-.763v-.77h-1.5q-1.344,0-1.344.882a.785.785,0,0,0,.329.665A1.482,1.482,0,0,0,180.2,32.642Zm8.3,1.47a7.317,7.317,0,0,1-1.834-.231,4.791,4.791,0,0,1-1.428-.581l.728-1.568a4.582,4.582,0,0,0,1.218.525,5.1,5.1,0,0,0,1.4.2q1.386,0,1.386-.686a.486.486,0,0,0-.378-.462,5.6,5.6,0,0,0-1.162-.238,11.21,11.21,0,0,1-1.526-.322,2.367,2.367,0,0,1-1.043-.644,1.831,1.831,0,0,1-.441-1.316,2.062,2.062,0,0,1,.413-1.267,2.658,2.658,0,0,1,1.2-.861,5.142,5.142,0,0,1,1.869-.308,7.335,7.335,0,0,1,1.589.175,4.441,4.441,0,0,1,1.309.483l-.728,1.554a4.346,4.346,0,0,0-2.17-.56,2.208,2.208,0,0,0-1.05.2.576.576,0,0,0-.35.5.5.5,0,0,0,.378.49,6.692,6.692,0,0,0,1.2.266,12.888,12.888,0,0,1,1.512.329,2.272,2.272,0,0,1,1.022.637,1.808,1.808,0,0,1,.434,1.288,1.989,1.989,0,0,1-.42,1.246,2.681,2.681,0,0,1-1.225.847A5.458,5.458,0,0,1,188.5,34.112Zm7.434,0a7.317,7.317,0,0,1-1.834-.231,4.791,4.791,0,0,1-1.428-.581l.728-1.568a4.582,4.582,0,0,0,1.218.525,5.1,5.1,0,0,0,1.4.2q1.386,0,1.386-.686a.486.486,0,0,0-.378-.462,5.6,5.6,0,0,0-1.162-.238,11.21,11.21,0,0,1-1.526-.322,2.367,2.367,0,0,1-1.043-.644,1.831,1.831,0,0,1-.441-1.316,2.062,2.062,0,0,1,.413-1.267,2.658,2.658,0,0,1,1.2-.861,5.142,5.142,0,0,1,1.869-.308,7.335,7.335,0,0,1,1.589.175,4.441,4.441,0,0,1,1.309.483l-.728,1.554a4.346,4.346,0,0,0-2.17-.56,2.208,2.208,0,0,0-1.05.2.576.576,0,0,0-.35.5.5.5,0,0,0,.378.49,6.692,6.692,0,0,0,1.2.266,12.888,12.888,0,0,1,1.512.329,2.272,2.272,0,0,1,1.022.637,1.808,1.808,0,0,1,.434,1.288,1.989,1.989,0,0,1-.42,1.246,2.681,2.681,0,0,1-1.225.847A5.458,5.458,0,0,1,195.934,34.112Zm13.72-.476a2.245,2.245,0,0,1-.791.357,4,4,0,0,1-.987.119,2.932,2.932,0,0,1-2.079-.686,2.625,2.625,0,0,1-.735-2.016V28.316H203.9v-1.68h1.162V24.8h2.184v1.834h1.876v1.68h-1.876v3.066a1.028,1.028,0,0,0,.245.735.908.908,0,0,0,.693.259,1.4,1.4,0,0,0,.882-.28Zm8.372-3.374q0,.042-.042.588h-5.7a1.775,1.775,0,0,0,.728,1.106,2.411,2.411,0,0,0,1.428.406,2.892,2.892,0,0,0,1.043-.175,2.526,2.526,0,0,0,.847-.553l1.162,1.26a3.905,3.905,0,0,1-3.108,1.218,4.917,4.917,0,0,1-2.254-.5,3.643,3.643,0,0,1-1.512-1.379,3.8,3.8,0,0,1-.532-2,3.849,3.849,0,0,1,.525-2,3.678,3.678,0,0,1,1.442-1.386,4.464,4.464,0,0,1,4.053-.021,3.474,3.474,0,0,1,1.407,1.365A4.07,4.07,0,0,1,218.026,30.262Zm-3.906-2.254a1.881,1.881,0,0,0-1.246.42,1.788,1.788,0,0,0-.616,1.148h3.71a1.806,1.806,0,0,0-.616-1.141A1.841,1.841,0,0,0,214.12,28.008Zm9,6.1a4.631,4.631,0,0,1-2.163-.5,3.722,3.722,0,0,1-1.5-1.379,3.987,3.987,0,0,1,0-4,3.722,3.722,0,0,1,1.5-1.379,4.631,4.631,0,0,1,2.163-.5,4.191,4.191,0,0,1,2.079.5,2.948,2.948,0,0,1,1.295,1.421l-1.694.91a1.852,1.852,0,0,0-1.694-1.036,1.917,1.917,0,0,0-1.414.56,2.359,2.359,0,0,0,0,3.052,1.917,1.917,0,0,0,1.414.56,1.833,1.833,0,0,0,1.694-1.036l1.694.924a3.007,3.007,0,0,1-1.295,1.4A4.144,4.144,0,0,1,223.122,34.112Zm9.156-7.756a3.1,3.1,0,0,1,2.261.84,3.331,3.331,0,0,1,.861,2.492V34h-2.184V30.024a1.963,1.963,0,0,0-.392-1.337,1.438,1.438,0,0,0-1.134-.441,1.738,1.738,0,0,0-1.316.511,2.116,2.116,0,0,0-.49,1.519V34H227.7V23.612h2.184v3.64a2.905,2.905,0,0,1,1.05-.665A3.8,3.8,0,0,1,232.278,26.356Zm12.642,7.756a4.516,4.516,0,0,1-2.135-.5,3.7,3.7,0,0,1-1.477-1.379,4.033,4.033,0,0,1,0-4,3.7,3.7,0,0,1,1.477-1.379,4.819,4.819,0,0,1,4.263,0,3.706,3.706,0,0,1,1.47,1.379,4.033,4.033,0,0,1,0,4,3.706,3.706,0,0,1-1.47,1.379A4.475,4.475,0,0,1,244.92,34.112Zm0-1.792a1.819,1.819,0,0,0,1.379-.567,2.41,2.41,0,0,0,0-3.038,1.819,1.819,0,0,0-1.379-.567,1.842,1.842,0,0,0-1.386.567,2.386,2.386,0,0,0,0,3.038A1.842,1.842,0,0,0,244.92,32.32Zm13.174-5.852V34h-2.072v-.9a2.9,2.9,0,0,1-1.036.749,3.259,3.259,0,0,1-1.3.259,3.208,3.208,0,0,1-2.352-.854,3.4,3.4,0,0,1-.868-2.534V26.468h2.184V30.4q0,1.82,1.526,1.82a1.641,1.641,0,0,0,1.26-.511,2.156,2.156,0,0,0,.476-1.519V26.468Zm6.888,7.168a2.245,2.245,0,0,1-.791.357,4,4,0,0,1-.987.119,2.932,2.932,0,0,1-2.079-.686,2.625,2.625,0,0,1-.735-2.016V28.316h-1.162v-1.68h1.162V24.8h2.184v1.834h1.876v1.68h-1.876v3.066a1.028,1.028,0,0,0,.245.735.908.908,0,0,0,.693.259,1.4,1.4,0,0,0,.882-.28Zm3.458-7h1.932v1.68H268.5V34h-2.184V28.316H265.15v-1.68h1.162V26.3a2.748,2.748,0,0,1,.763-2.044,2.922,2.922,0,0,1,2.149-.756,4.008,4.008,0,0,1,.931.1,2.262,2.262,0,0,1,.735.3l-.574,1.582a1.493,1.493,0,0,0-.882-.266q-.994,0-.994,1.092Zm4.144-.168h2.184V34h-2.184Zm1.092-1.05a1.385,1.385,0,0,1-.98-.35,1.186,1.186,0,0,1,0-1.736,1.385,1.385,0,0,1,.98-.35,1.42,1.42,0,0,1,.98.336,1.077,1.077,0,0,1,.378.84,1.189,1.189,0,0,1-.378.9A1.369,1.369,0,0,1,273.676,25.418Zm7.98,8.218a2.245,2.245,0,0,1-.791.357,4,4,0,0,1-.987.119,2.932,2.932,0,0,1-2.079-.686,2.625,2.625,0,0,1-.735-2.016V28.316H275.9v-1.68h1.162V24.8h2.184v1.834h1.876v1.68h-1.876v3.066a1.028,1.028,0,0,0,.245.735.908.908,0,0,0,.693.259,1.4,1.4,0,0,0,.882-.28Zm2.212-2.24a1.321,1.321,0,0,1,.966.371,1.3,1.3,0,0,1,.378.973,2.3,2.3,0,0,1-.07.56,6.324,6.324,0,0,1-.308.84l-.8,2.016H282.65l.616-2.226a1.151,1.151,0,0,1-.553-.455,1.327,1.327,0,0,1-.2-.735,1.29,1.29,0,0,1,.385-.973A1.346,1.346,0,0,1,283.868,31.4ZM41.885,48.946h2.072v3.976a5.92,5.92,0,0,1-1.848.924,7.175,7.175,0,0,1-2.114.322,5.729,5.729,0,0,1-2.744-.651,4.846,4.846,0,0,1-1.911-1.806,5.265,5.265,0,0,1,0-5.222,4.823,4.823,0,0,1,1.925-1.806,5.841,5.841,0,0,1,2.772-.651,6.066,6.066,0,0,1,2.338.434,4.633,4.633,0,0,1,1.764,1.26L42.683,47.07a3.368,3.368,0,0,0-2.534-1.106,3.459,3.459,0,0,0-1.666.392,2.812,2.812,0,0,0-1.134,1.106,3.479,3.479,0,0,0,0,3.262,2.872,2.872,0,0,0,1.127,1.113,3.34,3.34,0,0,0,1.645.4,3.676,3.676,0,0,0,1.764-.42Zm7.056-2.59a3.92,3.92,0,0,1,2.688.833,3.188,3.188,0,0,1,.938,2.513V54H50.523v-.938a2.434,2.434,0,0,1-2.3,1.05,3.563,3.563,0,0,1-1.505-.294,2.244,2.244,0,0,1-.973-.812,2.113,2.113,0,0,1-.336-1.176,1.962,1.962,0,0,1,.791-1.652,4.031,4.031,0,0,1,2.443-.6h1.736a1.392,1.392,0,0,0-.434-1.1,1.912,1.912,0,0,0-1.3-.385,3.8,3.8,0,0,0-1.183.189,3.13,3.13,0,0,0-.987.511l-.784-1.526a4.73,4.73,0,0,1,1.477-.672A6.616,6.616,0,0,1,48.941,46.356Zm-.168,6.286a1.9,1.9,0,0,0,.994-.259,1.417,1.417,0,0,0,.616-.763v-.77h-1.5q-1.344,0-1.344.882a.785.785,0,0,0,.329.665A1.482,1.482,0,0,0,48.773,52.642Zm7.854-5.18a2.429,2.429,0,0,1,1.057-.826,3.923,3.923,0,0,1,1.533-.28v2.016q-.364-.028-.49-.028a2,2,0,0,0-1.47.525,2.122,2.122,0,0,0-.532,1.575V54H54.541V46.468h2.086Zm13.538-1.106a3.036,3.036,0,0,1,2.247.833,3.394,3.394,0,0,1,.833,2.5V54H71.061V50.024a2.041,2.041,0,0,0-.371-1.337,1.3,1.3,0,0,0-1.057-.441,1.558,1.558,0,0,0-1.218.5,2.142,2.142,0,0,0-.448,1.477V54H65.783V50.024q0-1.778-1.428-1.778a1.541,1.541,0,0,0-1.2.5A2.142,2.142,0,0,0,62.7,50.22V54H60.519V46.468H62.6v.868a2.757,2.757,0,0,1,1.029-.728,3.463,3.463,0,0,1,1.337-.252,3.238,3.238,0,0,1,1.442.315,2.554,2.554,0,0,1,1.036.917,3.089,3.089,0,0,1,1.169-.91A3.688,3.688,0,0,1,70.165,46.356Zm5.04.112h2.184V54H75.205Zm1.092-1.05a1.385,1.385,0,0,1-.98-.35,1.186,1.186,0,0,1,0-1.736,1.385,1.385,0,0,1,.98-.35,1.42,1.42,0,0,1,.98.336,1.077,1.077,0,0,1,.378.84,1.189,1.189,0,0,1-.378.9A1.369,1.369,0,0,1,76.3,45.418Zm7.7.938a3.1,3.1,0,0,1,2.261.84,3.331,3.331,0,0,1,.861,2.492V54H84.935V50.024a1.963,1.963,0,0,0-.392-1.337,1.438,1.438,0,0,0-1.134-.441,1.738,1.738,0,0,0-1.316.511,2.116,2.116,0,0,0-.49,1.519V54H79.419V46.468H81.5v.882a2.9,2.9,0,0,1,1.078-.735A3.756,3.756,0,0,1,84,46.356Zm11.144,1.106a2.429,2.429,0,0,1,1.057-.826,3.923,3.923,0,0,1,1.533-.28v2.016q-.364-.028-.49-.028a2,2,0,0,0-1.47.525,2.122,2.122,0,0,0-.532,1.575V54H93.055V46.468h2.086Zm11.2,2.8q0,.042-.042.588h-5.7a1.775,1.775,0,0,0,.728,1.106,2.411,2.411,0,0,0,1.428.406,2.892,2.892,0,0,0,1.043-.175,2.526,2.526,0,0,0,.847-.553l1.162,1.26a3.905,3.905,0,0,1-3.108,1.218,4.917,4.917,0,0,1-2.254-.5,3.643,3.643,0,0,1-1.512-1.379,3.8,3.8,0,0,1-.532-2,3.849,3.849,0,0,1,.525-2,3.678,3.678,0,0,1,1.442-1.386,4.464,4.464,0,0,1,4.053-.021A3.474,3.474,0,0,1,105.83,48.2,4.07,4.07,0,0,1,106.341,50.262Zm-3.906-2.254a1.881,1.881,0,0,0-1.246.42,1.788,1.788,0,0,0-.616,1.148h3.71a1.806,1.806,0,0,0-.616-1.141A1.841,1.841,0,0,0,102.435,48.008Zm15.008-1.652a3.036,3.036,0,0,1,2.247.833,3.394,3.394,0,0,1,.833,2.5V54h-2.184V50.024a2.041,2.041,0,0,0-.371-1.337,1.3,1.3,0,0,0-1.057-.441,1.558,1.558,0,0,0-1.218.5,2.142,2.142,0,0,0-.448,1.477V54h-2.184V50.024q0-1.778-1.428-1.778a1.541,1.541,0,0,0-1.2.5,2.142,2.142,0,0,0-.448,1.477V54H107.8V46.468h2.086v.868a2.757,2.757,0,0,1,1.029-.728,3.463,3.463,0,0,1,1.337-.252,3.238,3.238,0,0,1,1.442.315,2.554,2.554,0,0,1,1.036.917,3.089,3.089,0,0,1,1.169-.91A3.688,3.688,0,0,1,117.443,46.356Zm8.078,0a3.92,3.92,0,0,1,2.688.833,3.188,3.188,0,0,1,.938,2.513V54H127.1v-.938a2.434,2.434,0,0,1-2.3,1.05,3.563,3.563,0,0,1-1.5-.294,2.244,2.244,0,0,1-.973-.812,2.113,2.113,0,0,1-.336-1.176,1.962,1.962,0,0,1,.791-1.652,4.031,4.031,0,0,1,2.443-.6h1.736a1.392,1.392,0,0,0-.434-1.1,1.912,1.912,0,0,0-1.3-.385,3.8,3.8,0,0,0-1.183.189,3.13,3.13,0,0,0-.987.511l-.784-1.526a4.73,4.73,0,0,1,1.477-.672A6.616,6.616,0,0,1,125.521,46.356Zm-.168,6.286a1.9,1.9,0,0,0,.994-.259,1.417,1.417,0,0,0,.616-.763v-.77h-1.5q-1.344,0-1.344.882a.785.785,0,0,0,.329.665A1.482,1.482,0,0,0,125.353,52.642Zm5.768-6.174h2.184V54h-2.184Zm1.092-1.05a1.385,1.385,0,0,1-.98-.35,1.186,1.186,0,0,1,0-1.736,1.385,1.385,0,0,1,.98-.35,1.42,1.42,0,0,1,.98.336,1.077,1.077,0,0,1,.378.84,1.189,1.189,0,0,1-.378.9A1.369,1.369,0,0,1,132.213,45.418Zm7.7.938a3.1,3.1,0,0,1,2.261.84,3.331,3.331,0,0,1,.861,2.492V54h-2.184V50.024a1.963,1.963,0,0,0-.392-1.337,1.438,1.438,0,0,0-1.134-.441,1.738,1.738,0,0,0-1.316.511,2.116,2.116,0,0,0-.49,1.519V54h-2.184V46.468h2.086v.882a2.9,2.9,0,0,1,1.078-.735A3.756,3.756,0,0,1,139.913,46.356Zm7.63,7.756a7.317,7.317,0,0,1-1.834-.231,4.791,4.791,0,0,1-1.428-.581l.728-1.568a4.582,4.582,0,0,0,1.218.525,5.1,5.1,0,0,0,1.4.2q1.386,0,1.386-.686a.486.486,0,0,0-.378-.462,5.6,5.6,0,0,0-1.162-.238,11.21,11.21,0,0,1-1.526-.322,2.367,2.367,0,0,1-1.043-.644,1.831,1.831,0,0,1-.441-1.316,2.061,2.061,0,0,1,.413-1.267,2.658,2.658,0,0,1,1.2-.861,5.142,5.142,0,0,1,1.869-.308,7.335,7.335,0,0,1,1.589.175,4.441,4.441,0,0,1,1.309.483l-.728,1.554a4.346,4.346,0,0,0-2.17-.56,2.208,2.208,0,0,0-1.05.2.576.576,0,0,0-.35.5.5.5,0,0,0,.378.49,6.692,6.692,0,0,0,1.2.266,12.888,12.888,0,0,1,1.512.329,2.272,2.272,0,0,1,1.022.637,1.808,1.808,0,0,1,.434,1.288,1.989,1.989,0,0,1-.42,1.246,2.681,2.681,0,0,1-1.225.847A5.458,5.458,0,0,1,147.543,54.112Zm11.9-7.756a3.92,3.92,0,0,1,2.688.833,3.188,3.188,0,0,1,.938,2.513V54h-2.044v-.938a2.434,2.434,0,0,1-2.3,1.05,3.564,3.564,0,0,1-1.505-.294,2.244,2.244,0,0,1-.973-.812,2.113,2.113,0,0,1-.336-1.176,1.962,1.962,0,0,1,.791-1.652,4.031,4.031,0,0,1,2.443-.6h1.736a1.392,1.392,0,0,0-.434-1.1,1.912,1.912,0,0,0-1.3-.385,3.8,3.8,0,0,0-1.183.189,3.13,3.13,0,0,0-.987.511l-.784-1.526a4.73,4.73,0,0,1,1.477-.672A6.616,6.616,0,0,1,159.443,46.356Zm-.168,6.286a1.9,1.9,0,0,0,.994-.259,1.417,1.417,0,0,0,.616-.763v-.77h-1.5q-1.344,0-1.344.882a.785.785,0,0,0,.329.665A1.482,1.482,0,0,0,159.275,52.642Zm9.73-9.03h2.184V54H169Zm11.592,6.65q0,.042-.042.588h-5.7a1.775,1.775,0,0,0,.728,1.106,2.411,2.411,0,0,0,1.428.406,2.892,2.892,0,0,0,1.043-.175,2.526,2.526,0,0,0,.847-.553l1.162,1.26a3.905,3.905,0,0,1-3.108,1.218,4.917,4.917,0,0,1-2.254-.5,3.643,3.643,0,0,1-1.512-1.379,3.8,3.8,0,0,1-.532-2,3.849,3.849,0,0,1,.525-2,3.678,3.678,0,0,1,1.442-1.386,4.464,4.464,0,0,1,4.053-.021,3.474,3.474,0,0,1,1.407,1.365A4.07,4.07,0,0,1,180.6,50.262Zm-3.906-2.254a1.881,1.881,0,0,0-1.246.42,1.788,1.788,0,0,0-.616,1.148h3.71a1.806,1.806,0,0,0-.616-1.141A1.841,1.841,0,0,0,176.691,48.008Zm8.19-1.652a3.92,3.92,0,0,1,2.688.833,3.188,3.188,0,0,1,.938,2.513V54h-2.044v-.938a2.434,2.434,0,0,1-2.3,1.05,3.564,3.564,0,0,1-1.505-.294,2.244,2.244,0,0,1-.973-.812,2.113,2.113,0,0,1-.336-1.176,1.962,1.962,0,0,1,.791-1.652,4.031,4.031,0,0,1,2.443-.6h1.736a1.392,1.392,0,0,0-.434-1.1,1.912,1.912,0,0,0-1.3-.385,3.8,3.8,0,0,0-1.183.189,3.13,3.13,0,0,0-.987.511l-.784-1.526a4.73,4.73,0,0,1,1.477-.672A6.616,6.616,0,0,1,184.881,46.356Zm-.168,6.286a1.9,1.9,0,0,0,.994-.259,1.417,1.417,0,0,0,.616-.763v-.77h-1.5q-1.344,0-1.344.882a.785.785,0,0,0,.329.665A1.482,1.482,0,0,0,184.713,52.642Zm13.524-9.03V54h-2.086v-.868a2.88,2.88,0,0,1-2.352.98,3.911,3.911,0,0,1-1.925-.476,3.408,3.408,0,0,1-1.351-1.358,4.508,4.508,0,0,1,0-4.088,3.408,3.408,0,0,1,1.351-1.358,3.911,3.911,0,0,1,1.925-.476,2.865,2.865,0,0,1,2.254.91V43.612Zm-4.06,8.708a1.825,1.825,0,0,0,1.372-.567,2.386,2.386,0,0,0,0-3.038,1.96,1.96,0,0,0-2.758,0,2.386,2.386,0,0,0,0,3.038A1.842,1.842,0,0,0,194.177,52.32Zm13.454-2.058q0,.042-.042.588h-5.7a1.775,1.775,0,0,0,.728,1.106,2.411,2.411,0,0,0,1.428.406,2.892,2.892,0,0,0,1.043-.175,2.526,2.526,0,0,0,.847-.553l1.162,1.26a3.905,3.905,0,0,1-3.108,1.218,4.917,4.917,0,0,1-2.254-.5,3.643,3.643,0,0,1-1.512-1.379,3.8,3.8,0,0,1-.532-2,3.849,3.849,0,0,1,.525-2,3.678,3.678,0,0,1,1.442-1.386,4.464,4.464,0,0,1,4.053-.021A3.474,3.474,0,0,1,207.12,48.2,4.07,4.07,0,0,1,207.631,50.262Zm-3.906-2.254a1.881,1.881,0,0,0-1.246.42,1.788,1.788,0,0,0-.616,1.148h3.71a1.806,1.806,0,0,0-.616-1.141A1.841,1.841,0,0,0,203.725,48.008Zm7.448-.546a2.429,2.429,0,0,1,1.057-.826,3.923,3.923,0,0,1,1.533-.28v2.016q-.364-.028-.49-.028a2,2,0,0,0-1.47.525,2.122,2.122,0,0,0-.532,1.575V54h-2.184V46.468h2.086Zm7.91-.994h2.184V54h-2.184Zm1.092-1.05a1.385,1.385,0,0,1-.98-.35,1.186,1.186,0,0,1,0-1.736,1.385,1.385,0,0,1,.98-.35,1.42,1.42,0,0,1,.98.336,1.077,1.077,0,0,1,.378.84,1.189,1.189,0,0,1-.378.9A1.369,1.369,0,0,1,220.175,45.418Zm7.7.938a3.1,3.1,0,0,1,2.261.84A3.331,3.331,0,0,1,231,49.688V54h-2.184V50.024a1.963,1.963,0,0,0-.392-1.337,1.438,1.438,0,0,0-1.134-.441,1.738,1.738,0,0,0-1.316.511,2.116,2.116,0,0,0-.49,1.519V54H223.3V46.468h2.086v.882a2.9,2.9,0,0,1,1.078-.735A3.756,3.756,0,0,1,227.875,46.356Zm15.834,2.59h2.072v3.976a5.92,5.92,0,0,1-1.848.924,7.175,7.175,0,0,1-2.114.322,5.729,5.729,0,0,1-2.744-.651,4.846,4.846,0,0,1-1.911-1.806,5.265,5.265,0,0,1,0-5.222,4.823,4.823,0,0,1,1.925-1.806,5.841,5.841,0,0,1,2.772-.651,6.066,6.066,0,0,1,2.338.434,4.633,4.633,0,0,1,1.764,1.26l-1.456,1.344a3.368,3.368,0,0,0-2.534-1.106,3.459,3.459,0,0,0-1.666.392,2.812,2.812,0,0,0-1.134,1.106,3.479,3.479,0,0,0,0,3.262,2.872,2.872,0,0,0,1.127,1.113,3.34,3.34,0,0,0,1.645.4,3.676,3.676,0,0,0,1.764-.42Zm8.414-4.746a5.444,5.444,0,0,1,2.261.434,3.359,3.359,0,0,1,1.477,1.232,3.694,3.694,0,0,1,0,3.773,3.3,3.3,0,0,1-1.477,1.232,5.522,5.522,0,0,1-2.261.427h-1.974V54h-2.268V44.2ZM252,49.45a2.382,2.382,0,0,0,1.554-.441,1.536,1.536,0,0,0,.532-1.253,1.552,1.552,0,0,0-.532-1.267A2.382,2.382,0,0,0,252,46.048h-1.848v3.4Zm9.352,4.718a8.018,8.018,0,0,1-2.247-.315,5.27,5.27,0,0,1-1.743-.819l.77-1.708a5.225,5.225,0,0,0,1.5.742,5.627,5.627,0,0,0,1.736.28,2.773,2.773,0,0,0,1.428-.287.867.867,0,0,0,.462-.763.729.729,0,0,0-.273-.581,2.07,2.07,0,0,0-.7-.371q-.427-.14-1.155-.308a15.964,15.964,0,0,1-1.834-.532,2.98,2.98,0,0,1-1.225-.854,2.306,2.306,0,0,1-.511-1.568,2.728,2.728,0,0,1,.462-1.547,3.108,3.108,0,0,1,1.393-1.1,5.684,5.684,0,0,1,2.275-.406,7.533,7.533,0,0,1,1.834.224,5.418,5.418,0,0,1,1.568.644l-.7,1.722a5.464,5.464,0,0,0-2.716-.77,2.547,2.547,0,0,0-1.407.308.94.94,0,0,0-.455.812.794.794,0,0,0,.525.749,8.243,8.243,0,0,0,1.6.483,15.964,15.964,0,0,1,1.834.532,3.037,3.037,0,0,1,1.225.84,2.252,2.252,0,0,1,.511,1.554,2.676,2.676,0,0,1-.469,1.533,3.151,3.151,0,0,1-1.407,1.1A5.736,5.736,0,0,1,261.349,54.168ZM25.26,74.112a7.317,7.317,0,0,1-1.834-.231A4.792,4.792,0,0,1,22,73.3l.728-1.568a4.582,4.582,0,0,0,1.218.525,5.1,5.1,0,0,0,1.4.2q1.386,0,1.386-.686a.486.486,0,0,0-.378-.462,5.6,5.6,0,0,0-1.162-.238,11.21,11.21,0,0,1-1.526-.322,2.368,2.368,0,0,1-1.043-.644,1.831,1.831,0,0,1-.441-1.316,2.061,2.061,0,0,1,.413-1.267,2.658,2.658,0,0,1,1.2-.861,5.142,5.142,0,0,1,1.869-.308,7.336,7.336,0,0,1,1.589.175,4.442,4.442,0,0,1,1.309.483l-.728,1.554a4.346,4.346,0,0,0-2.17-.56,2.208,2.208,0,0,0-1.05.2.576.576,0,0,0-.35.5.5.5,0,0,0,.378.49,6.692,6.692,0,0,0,1.2.266,12.888,12.888,0,0,1,1.512.329,2.272,2.272,0,0,1,1.022.637,1.808,1.808,0,0,1,.434,1.288,1.989,1.989,0,0,1-.42,1.246,2.681,2.681,0,0,1-1.225.847A5.458,5.458,0,0,1,25.26,74.112Zm8.484,0a4.516,4.516,0,0,1-2.135-.5,3.7,3.7,0,0,1-1.477-1.379,4.033,4.033,0,0,1,0-4,3.7,3.7,0,0,1,1.477-1.379,4.819,4.819,0,0,1,4.263,0,3.706,3.706,0,0,1,1.47,1.379,4.033,4.033,0,0,1,0,4,3.706,3.706,0,0,1-1.47,1.379A4.475,4.475,0,0,1,33.744,74.112Zm0-1.792a1.819,1.819,0,0,0,1.379-.567,2.41,2.41,0,0,0,0-3.038,1.819,1.819,0,0,0-1.379-.567,1.842,1.842,0,0,0-1.386.567,2.386,2.386,0,0,0,0,3.038A1.842,1.842,0,0,0,33.744,72.32Zm7.98-5.684h1.932v1.68H41.78V74H39.6V68.316H38.434v-1.68H39.6V66.3a2.748,2.748,0,0,1,.763-2.044,2.922,2.922,0,0,1,2.149-.756,4.008,4.008,0,0,1,.931.1,2.263,2.263,0,0,1,.735.3L43.6,65.488a1.494,1.494,0,0,0-.882-.266q-.994,0-.994,1.092Zm7.882,7a2.245,2.245,0,0,1-.791.357,4,4,0,0,1-.987.119,2.932,2.932,0,0,1-2.079-.686,2.625,2.625,0,0,1-.735-2.016V68.316H43.852v-1.68h1.162V64.8H47.2v1.834h1.876v1.68H47.2v3.066a1.028,1.028,0,0,0,.245.735.908.908,0,0,0,.693.259,1.4,1.4,0,0,0,.882-.28Zm13.188-7.168L60.064,74h-2.1L56.27,69.324,54.52,74h-2.1L49.7,66.468h2.058l1.778,5.1,1.848-5.1h1.848l1.792,5.1,1.834-5.1Zm3.808-.112a3.92,3.92,0,0,1,2.688.833,3.188,3.188,0,0,1,.938,2.513V74H68.184v-.938a2.434,2.434,0,0,1-2.3,1.05,3.563,3.563,0,0,1-1.5-.294,2.244,2.244,0,0,1-.973-.812,2.113,2.113,0,0,1-.336-1.176,1.962,1.962,0,0,1,.791-1.652,4.031,4.031,0,0,1,2.443-.6h1.736a1.392,1.392,0,0,0-.434-1.1,1.912,1.912,0,0,0-1.3-.385,3.8,3.8,0,0,0-1.183.189,3.13,3.13,0,0,0-.987.511l-.784-1.526a4.731,4.731,0,0,1,1.477-.672A6.616,6.616,0,0,1,66.6,66.356Zm-.168,6.286a1.9,1.9,0,0,0,.994-.259,1.417,1.417,0,0,0,.616-.763v-.77h-1.5q-1.344,0-1.344.882a.785.785,0,0,0,.329.665A1.482,1.482,0,0,0,66.434,72.642Zm7.854-5.18a2.429,2.429,0,0,1,1.057-.826,3.923,3.923,0,0,1,1.533-.28v2.016q-.364-.028-.49-.028a2,2,0,0,0-1.47.525,2.122,2.122,0,0,0-.532,1.575V74H72.2V66.468h2.086Zm11.2,2.8q0,.042-.042.588h-5.7a1.775,1.775,0,0,0,.728,1.106,2.411,2.411,0,0,0,1.428.406,2.892,2.892,0,0,0,1.043-.175,2.526,2.526,0,0,0,.847-.553l1.162,1.26a3.905,3.905,0,0,1-3.108,1.218,4.917,4.917,0,0,1-2.254-.5,3.643,3.643,0,0,1-1.512-1.379,3.8,3.8,0,0,1-.532-2,3.849,3.849,0,0,1,.525-2,3.678,3.678,0,0,1,1.442-1.386,4.464,4.464,0,0,1,4.053-.021A3.474,3.474,0,0,1,84.977,68.2,4.07,4.07,0,0,1,85.488,70.262Zm-3.906-2.254a1.881,1.881,0,0,0-1.246.42,1.788,1.788,0,0,0-.616,1.148h3.71a1.806,1.806,0,0,0-.616-1.141A1.841,1.841,0,0,0,81.582,68.008Zm6.2,3.388a1.321,1.321,0,0,1,.966.371,1.3,1.3,0,0,1,.378.973,2.3,2.3,0,0,1-.07.56,6.323,6.323,0,0,1-.308.84l-.8,2.016H86.566l.616-2.226a1.151,1.151,0,0,1-.553-.455,1.327,1.327,0,0,1-.2-.735,1.29,1.29,0,0,1,.385-.973A1.346,1.346,0,0,1,87.784,71.4Zm11.368-5.04a3.1,3.1,0,0,1,2.261.84,3.331,3.331,0,0,1,.861,2.492V74H100.09V70.024a1.963,1.963,0,0,0-.392-1.337,1.438,1.438,0,0,0-1.134-.441,1.738,1.738,0,0,0-1.316.511,2.116,2.116,0,0,0-.49,1.519V74H94.574V63.612h2.184v3.64a2.905,2.905,0,0,1,1.05-.665A3.8,3.8,0,0,1,99.152,66.356Zm8.134,0a3.92,3.92,0,0,1,2.688.833,3.188,3.188,0,0,1,.938,2.513V74h-2.044v-.938a2.434,2.434,0,0,1-2.3,1.05,3.563,3.563,0,0,1-1.5-.294,2.244,2.244,0,0,1-.973-.812,2.113,2.113,0,0,1-.336-1.176,1.962,1.962,0,0,1,.791-1.652,4.031,4.031,0,0,1,2.443-.6h1.736a1.392,1.392,0,0,0-.434-1.1,1.912,1.912,0,0,0-1.3-.385,3.8,3.8,0,0,0-1.183.189,3.13,3.13,0,0,0-.987.511l-.784-1.526a4.731,4.731,0,0,1,1.477-.672A6.616,6.616,0,0,1,107.286,66.356Zm-.168,6.286a1.9,1.9,0,0,0,.994-.259,1.417,1.417,0,0,0,.616-.763v-.77h-1.5q-1.344,0-1.344.882a.785.785,0,0,0,.329.665A1.482,1.482,0,0,0,107.118,72.642Zm7.854-5.18a2.429,2.429,0,0,1,1.057-.826,3.923,3.923,0,0,1,1.533-.28v2.016q-.364-.028-.49-.028a2,2,0,0,0-1.47.525,2.122,2.122,0,0,0-.532,1.575V74h-2.184V66.468h2.086Zm11.494-3.85V74H124.38v-.868a2.88,2.88,0,0,1-2.352.98,3.911,3.911,0,0,1-1.925-.476,3.408,3.408,0,0,1-1.351-1.358,4.508,4.508,0,0,1,0-4.088,3.408,3.408,0,0,1,1.351-1.358,3.911,3.911,0,0,1,1.925-.476,2.865,2.865,0,0,1,2.254.91V63.612Zm-4.06,8.708a1.825,1.825,0,0,0,1.372-.567,2.386,2.386,0,0,0,0-3.038,1.96,1.96,0,0,0-2.758,0,2.386,2.386,0,0,0,0,3.038A1.842,1.842,0,0,0,122.406,72.32Zm18.172-5.852L137.848,74h-2.1l-1.694-4.676L132.3,74h-2.1l-2.716-7.532h2.058l1.778,5.1,1.848-5.1h1.848l1.792,5.1,1.834-5.1Zm3.808-.112a3.92,3.92,0,0,1,2.688.833,3.188,3.188,0,0,1,.938,2.513V74h-2.044v-.938a2.434,2.434,0,0,1-2.3,1.05,3.564,3.564,0,0,1-1.505-.294,2.244,2.244,0,0,1-.973-.812,2.113,2.113,0,0,1-.336-1.176,1.962,1.962,0,0,1,.791-1.652,4.031,4.031,0,0,1,2.443-.6h1.736a1.392,1.392,0,0,0-.434-1.1,1.912,1.912,0,0,0-1.3-.385,3.8,3.8,0,0,0-1.183.189,3.13,3.13,0,0,0-.987.511l-.784-1.526a4.73,4.73,0,0,1,1.477-.672A6.616,6.616,0,0,1,144.386,66.356Zm-.168,6.286a1.9,1.9,0,0,0,.994-.259,1.417,1.417,0,0,0,.616-.763v-.77h-1.5q-1.344,0-1.344.882a.785.785,0,0,0,.329.665A1.482,1.482,0,0,0,144.218,72.642Zm7.854-5.18a2.429,2.429,0,0,1,1.057-.826,3.923,3.923,0,0,1,1.533-.28v2.016q-.364-.028-.49-.028a2,2,0,0,0-1.47.525,2.122,2.122,0,0,0-.532,1.575V74h-2.184V66.468h2.086Zm11.2,2.8q0,.042-.042.588h-5.7a1.775,1.775,0,0,0,.728,1.106,2.411,2.411,0,0,0,1.428.406,2.892,2.892,0,0,0,1.043-.175,2.526,2.526,0,0,0,.847-.553l1.162,1.26a3.905,3.905,0,0,1-3.108,1.218,4.916,4.916,0,0,1-2.254-.5,3.643,3.643,0,0,1-1.512-1.379,3.8,3.8,0,0,1-.532-2,3.849,3.849,0,0,1,.525-2,3.678,3.678,0,0,1,1.442-1.386,4.464,4.464,0,0,1,4.053-.021,3.474,3.474,0,0,1,1.407,1.365A4.07,4.07,0,0,1,163.272,70.262Zm-3.906-2.254a1.881,1.881,0,0,0-1.246.42,1.788,1.788,0,0,0-.616,1.148h3.71a1.806,1.806,0,0,0-.616-1.141A1.841,1.841,0,0,0,159.366,68.008Zm12.362-1.652a3.92,3.92,0,0,1,2.688.833,3.188,3.188,0,0,1,.938,2.513V74H173.31v-.938a2.434,2.434,0,0,1-2.3,1.05,3.564,3.564,0,0,1-1.505-.294,2.244,2.244,0,0,1-.973-.812,2.113,2.113,0,0,1-.336-1.176,1.962,1.962,0,0,1,.791-1.652,4.031,4.031,0,0,1,2.443-.6h1.736a1.392,1.392,0,0,0-.434-1.1,1.912,1.912,0,0,0-1.3-.385,3.8,3.8,0,0,0-1.183.189,3.13,3.13,0,0,0-.987.511l-.784-1.526a4.73,4.73,0,0,1,1.477-.672A6.616,6.616,0,0,1,171.728,66.356Zm-.168,6.286a1.9,1.9,0,0,0,.994-.259,1.417,1.417,0,0,0,.616-.763v-.77h-1.5q-1.344,0-1.344.882a.785.785,0,0,0,.329.665A1.482,1.482,0,0,0,171.56,72.642Zm10.346-6.286a3.1,3.1,0,0,1,2.261.84,3.331,3.331,0,0,1,.861,2.492V74h-2.184V70.024a1.963,1.963,0,0,0-.392-1.337,1.438,1.438,0,0,0-1.134-.441,1.738,1.738,0,0,0-1.316.511,2.116,2.116,0,0,0-.49,1.519V74h-2.184V66.468h2.086v.882a2.9,2.9,0,0,1,1.078-.735A3.756,3.756,0,0,1,181.906,66.356Zm12.852-2.744V74h-2.086v-.868a2.88,2.88,0,0,1-2.352.98,3.911,3.911,0,0,1-1.925-.476,3.408,3.408,0,0,1-1.351-1.358,4.508,4.508,0,0,1,0-4.088,3.408,3.408,0,0,1,1.351-1.358,3.911,3.911,0,0,1,1.925-.476,2.865,2.865,0,0,1,2.254.91V63.612ZM190.7,72.32a1.825,1.825,0,0,0,1.372-.567,2.386,2.386,0,0,0,0-3.038,1.96,1.96,0,0,0-2.758,0,2.386,2.386,0,0,0,0,3.038A1.842,1.842,0,0,0,190.7,72.32Zm22.134-5.852L210.1,74H208l-1.694-4.676L204.558,74h-2.1l-2.716-7.532H201.8l1.778,5.1,1.848-5.1h1.848l1.792,5.1,1.834-5.1Zm8.19,3.794q0,.042-.042.588h-5.7a1.775,1.775,0,0,0,.728,1.106,2.411,2.411,0,0,0,1.428.406,2.892,2.892,0,0,0,1.043-.175,2.526,2.526,0,0,0,.847-.553l1.162,1.26a3.905,3.905,0,0,1-3.108,1.218,4.916,4.916,0,0,1-2.254-.5,3.643,3.643,0,0,1-1.512-1.379,3.8,3.8,0,0,1-.532-2,3.849,3.849,0,0,1,.525-2,3.678,3.678,0,0,1,1.442-1.386,4.464,4.464,0,0,1,4.053-.021,3.474,3.474,0,0,1,1.407,1.365A4.07,4.07,0,0,1,221.022,70.262Zm-3.906-2.254a1.881,1.881,0,0,0-1.246.42,1.788,1.788,0,0,0-.616,1.148h3.71a1.806,1.806,0,0,0-.616-1.141A1.841,1.841,0,0,0,217.116,68.008Zm8.19-1.652a3.92,3.92,0,0,1,2.688.833,3.188,3.188,0,0,1,.938,2.513V74h-2.044v-.938a2.434,2.434,0,0,1-2.3,1.05,3.564,3.564,0,0,1-1.505-.294,2.244,2.244,0,0,1-.973-.812,2.113,2.113,0,0,1-.336-1.176,1.962,1.962,0,0,1,.791-1.652,4.031,4.031,0,0,1,2.443-.6h1.736a1.392,1.392,0,0,0-.434-1.1,1.912,1.912,0,0,0-1.3-.385,3.8,3.8,0,0,0-1.183.189,3.13,3.13,0,0,0-.987.511l-.784-1.526a4.73,4.73,0,0,1,1.477-.672A6.616,6.616,0,0,1,225.306,66.356Zm-.168,6.286a1.9,1.9,0,0,0,.994-.259,1.417,1.417,0,0,0,.616-.763v-.77h-1.5q-1.344,0-1.344.882a.785.785,0,0,0,.329.665A1.482,1.482,0,0,0,225.138,72.642Zm7.854-5.18a2.429,2.429,0,0,1,1.057-.826,3.923,3.923,0,0,1,1.533-.28v2.016q-.364-.028-.49-.028a2,2,0,0,0-1.47.525,2.122,2.122,0,0,0-.532,1.575V74h-2.184V66.468h2.086Zm6.888-1.106a3.92,3.92,0,0,1,2.688.833,3.188,3.188,0,0,1,.938,2.513V74h-2.044v-.938a2.434,2.434,0,0,1-2.3,1.05,3.564,3.564,0,0,1-1.505-.294,2.244,2.244,0,0,1-.973-.812,2.113,2.113,0,0,1-.336-1.176,1.962,1.962,0,0,1,.791-1.652,4.031,4.031,0,0,1,2.443-.6h1.736a1.392,1.392,0,0,0-.434-1.1,1.912,1.912,0,0,0-1.3-.385,3.8,3.8,0,0,0-1.183.189,3.13,3.13,0,0,0-.987.511l-.784-1.526a4.73,4.73,0,0,1,1.477-.672A6.616,6.616,0,0,1,239.88,66.356Zm-.168,6.286a1.9,1.9,0,0,0,.994-.259,1.417,1.417,0,0,0,.616-.763v-.77h-1.5q-1.344,0-1.344.882a.785.785,0,0,0,.329.665A1.482,1.482,0,0,0,239.712,72.642Zm10.22-6.286a3.838,3.838,0,0,1,1.911.483,3.468,3.468,0,0,1,1.351,1.358,4.479,4.479,0,0,1,0,4.074,3.468,3.468,0,0,1-1.351,1.358,3.838,3.838,0,0,1-1.911.483,2.9,2.9,0,0,1-2.366-.98V74H245.48V63.612h2.184v3.654A2.909,2.909,0,0,1,249.932,66.356Zm-.378,5.964a1.819,1.819,0,0,0,1.379-.567,2.41,2.41,0,0,0,0-3.038,1.96,1.96,0,0,0-2.758,0,2.41,2.41,0,0,0,0,3.038A1.819,1.819,0,0,0,249.554,72.32Zm5.586-8.708h2.184V74H255.14Zm11.592,6.65q0,.042-.042.588h-5.7a1.775,1.775,0,0,0,.728,1.106,2.411,2.411,0,0,0,1.428.406,2.891,2.891,0,0,0,1.043-.175,2.526,2.526,0,0,0,.847-.553l1.162,1.26a3.905,3.905,0,0,1-3.108,1.218,4.916,4.916,0,0,1-2.254-.5,3.643,3.643,0,0,1-1.512-1.379,3.8,3.8,0,0,1-.532-2,3.849,3.849,0,0,1,.525-2,3.678,3.678,0,0,1,1.442-1.386,4.464,4.464,0,0,1,4.053-.021,3.474,3.474,0,0,1,1.407,1.365A4.07,4.07,0,0,1,266.732,70.262Zm-3.906-2.254a1.881,1.881,0,0,0-1.246.42,1.788,1.788,0,0,0-.616,1.148h3.71a1.806,1.806,0,0,0-.616-1.141A1.841,1.841,0,0,0,262.826,68.008Zm7.9,6.1a7.317,7.317,0,0,1-1.834-.231,4.792,4.792,0,0,1-1.428-.581l.728-1.568a4.582,4.582,0,0,0,1.218.525,5.1,5.1,0,0,0,1.4.2q1.386,0,1.386-.686a.486.486,0,0,0-.378-.462,5.6,5.6,0,0,0-1.162-.238,11.21,11.21,0,0,1-1.526-.322,2.367,2.367,0,0,1-1.043-.644,1.831,1.831,0,0,1-.441-1.316,2.062,2.062,0,0,1,.413-1.267,2.658,2.658,0,0,1,1.2-.861,5.142,5.142,0,0,1,1.869-.308,7.335,7.335,0,0,1,1.589.175,4.442,4.442,0,0,1,1.309.483l-.728,1.554a4.346,4.346,0,0,0-2.17-.56,2.208,2.208,0,0,0-1.05.2.576.576,0,0,0-.35.5.5.5,0,0,0,.378.49,6.691,6.691,0,0,0,1.2.266,12.888,12.888,0,0,1,1.512.329,2.272,2.272,0,0,1,1.022.637,1.808,1.808,0,0,1,.434,1.288,1.989,1.989,0,0,1-.42,1.246,2.681,2.681,0,0,1-1.225.847A5.458,5.458,0,0,1,270.722,74.112Zm5.726,0a1.313,1.313,0,0,1-.966-.392,1.33,1.33,0,0,1-.392-.98,1.278,1.278,0,0,1,.392-.973,1.443,1.443,0,0,1,1.932,0,1.278,1.278,0,0,1,.392.973,1.33,1.33,0,0,1-.392.98A1.313,1.313,0,0,1,276.448,74.112Z" transform="translate(-14.76 -2.982)"/>
</svg>
