<svg xmlns="http://www.w3.org/2000/svg" width="50.38" height="7.315" viewBox="0 0 50.38 7.315">
  <path id="Path_23" data-name="Path 23" d="M3.652.088A3.639,3.639,0,0,1,1.952-.3,2.924,2.924,0,0,1,.775-1.386,2.956,2.956,0,0,1,.352-2.959,2.956,2.956,0,0,1,.775-4.532,2.924,2.924,0,0,1,1.952-5.615a3.639,3.639,0,0,1,1.7-.391,3.293,3.293,0,0,1,1.634.391A2.316,2.316,0,0,1,6.3-4.5l-1.331.715A1.455,1.455,0,0,0,3.641-4.6a1.506,1.506,0,0,0-1.111.44,1.62,1.62,0,0,0-.44,1.2,1.62,1.62,0,0,0,.44,1.2,1.506,1.506,0,0,0,1.111.44,1.44,1.44,0,0,0,1.331-.814L6.3-1.408a2.362,2.362,0,0,1-1.017,1.1A3.256,3.256,0,0,1,3.652.088Zm6.38,0A3.549,3.549,0,0,1,8.354-.3,2.9,2.9,0,0,1,7.194-1.386a2.985,2.985,0,0,1-.418-1.573,2.985,2.985,0,0,1,.418-1.573A2.9,2.9,0,0,1,8.354-5.615a3.549,3.549,0,0,1,1.677-.391,3.516,3.516,0,0,1,1.672.391,2.912,2.912,0,0,1,1.155,1.083,2.985,2.985,0,0,1,.418,1.573,2.985,2.985,0,0,1-.418,1.573A2.912,2.912,0,0,1,11.7-.3,3.516,3.516,0,0,1,10.032.088Zm0-1.408a1.429,1.429,0,0,0,1.083-.446,1.661,1.661,0,0,0,.424-1.193,1.661,1.661,0,0,0-.424-1.194A1.429,1.429,0,0,0,10.032-4.6a1.447,1.447,0,0,0-1.089.445,1.648,1.648,0,0,0-.429,1.194,1.648,1.648,0,0,0,.429,1.193A1.447,1.447,0,0,0,10.032-1.32Zm7.986-4.686a2.435,2.435,0,0,1,1.777.66,2.617,2.617,0,0,1,.677,1.958V0H18.755V-3.124a1.543,1.543,0,0,0-.308-1.05,1.13,1.13,0,0,0-.891-.346,1.366,1.366,0,0,0-1.034.4,1.662,1.662,0,0,0-.385,1.194V0H14.421V-5.918H16.06v.693a2.276,2.276,0,0,1,.847-.577A2.951,2.951,0,0,1,18.018-6.006Zm7.821,5.72a1.764,1.764,0,0,1-.622.281,3.142,3.142,0,0,1-.775.094,2.3,2.3,0,0,1-1.633-.539,2.063,2.063,0,0,1-.578-1.584V-4.466h-.913v-1.32h.913V-7.227h1.716v1.441h1.474v1.32H23.947v2.409a.808.808,0,0,0,.193.578.713.713,0,0,0,.545.2,1.1,1.1,0,0,0,.693-.22Zm6.578-2.651q0,.033-.033.462H27.907a1.394,1.394,0,0,0,.572.869,1.9,1.9,0,0,0,1.122.319,2.272,2.272,0,0,0,.819-.138,1.985,1.985,0,0,0,.666-.434L32-.869a3.068,3.068,0,0,1-2.442.957A3.863,3.863,0,0,1,27.786-.3,2.863,2.863,0,0,1,26.6-1.386a2.985,2.985,0,0,1-.418-1.573,3.024,3.024,0,0,1,.413-1.568,2.89,2.89,0,0,1,1.133-1.089,3.327,3.327,0,0,1,1.612-.391,3.3,3.3,0,0,1,1.573.374,2.73,2.73,0,0,1,1.105,1.073A3.2,3.2,0,0,1,32.417-2.937ZM29.348-4.708a1.478,1.478,0,0,0-.979.33,1.4,1.4,0,0,0-.484.9H30.8a1.419,1.419,0,0,0-.484-.9A1.447,1.447,0,0,0,29.348-4.708Zm7.81-1.3a2.435,2.435,0,0,1,1.777.66,2.617,2.617,0,0,1,.676,1.958V0H37.9V-3.124a1.543,1.543,0,0,0-.308-1.05,1.13,1.13,0,0,0-.891-.346,1.366,1.366,0,0,0-1.034.4,1.662,1.662,0,0,0-.385,1.194V0H33.561V-5.918H35.2v.693a2.276,2.276,0,0,1,.847-.577A2.951,2.951,0,0,1,37.158-6.006Zm7.821,5.72a1.764,1.764,0,0,1-.622.281,3.142,3.142,0,0,1-.775.094,2.3,2.3,0,0,1-1.634-.539,2.063,2.063,0,0,1-.577-1.584V-4.466h-.913v-1.32h.913V-7.227h1.716v1.441h1.474v1.32H43.087v2.409a.808.808,0,0,0,.193.578.713.713,0,0,0,.544.2,1.1,1.1,0,0,0,.693-.22Zm2.959.374A5.749,5.749,0,0,1,46.5-.094,3.765,3.765,0,0,1,45.375-.55l.572-1.232a3.6,3.6,0,0,0,.957.413,4.011,4.011,0,0,0,1.1.16q1.089,0,1.089-.539a.381.381,0,0,0-.3-.363,4.4,4.4,0,0,0-.913-.187,8.808,8.808,0,0,1-1.2-.253,1.86,1.86,0,0,1-.819-.506,1.439,1.439,0,0,1-.347-1.034,1.62,1.62,0,0,1,.325-1,2.088,2.088,0,0,1,.946-.676,4.04,4.04,0,0,1,1.469-.242,5.763,5.763,0,0,1,1.249.137,3.49,3.49,0,0,1,1.028.379l-.572,1.221a3.415,3.415,0,0,0-1.7-.44,1.735,1.735,0,0,0-.825.154.453.453,0,0,0-.275.4.393.393,0,0,0,.3.385,5.258,5.258,0,0,0,.946.209,10.126,10.126,0,0,1,1.188.259,1.785,1.785,0,0,1,.8.5,1.42,1.42,0,0,1,.341,1.012,1.563,1.563,0,0,1-.33.979,2.107,2.107,0,0,1-.963.666A4.288,4.288,0,0,1,47.938.088Z" transform="translate(-0.352 7.227)" fill="#ab499b"/>
</svg>
