<svg xmlns="http://www.w3.org/2000/svg" width="40.575" height="13.13" viewBox="0 0 40.575 13.13">
  <path id="Path_32" data-name="Path 32" d="M-15.308.12a4.962,4.962,0,0,1-2.317-.532,3.987,3.987,0,0,1-1.6-1.477,4.031,4.031,0,0,1-.578-2.145A4.031,4.031,0,0,1-19.23-6.18a3.987,3.987,0,0,1,1.6-1.478,4.962,4.962,0,0,1,2.317-.533,4.49,4.49,0,0,1,2.228.533,3.158,3.158,0,0,1,1.387,1.523l-1.815.975a1.984,1.984,0,0,0-1.815-1.11,2.054,2.054,0,0,0-1.515.6,2.209,2.209,0,0,0-.6,1.635,2.209,2.209,0,0,0,.6,1.635,2.054,2.054,0,0,0,1.515.6,1.963,1.963,0,0,0,1.815-1.11l1.815.99A3.222,3.222,0,0,1-13.08-.42,4.44,4.44,0,0,1-15.308.12ZM-10.4-11.13h2.34V0H-10.4ZM-2.048.12A4.839,4.839,0,0,1-4.335-.412,3.959,3.959,0,0,1-5.918-1.89a4.071,4.071,0,0,1-.57-2.145,4.071,4.071,0,0,1,.57-2.145A3.959,3.959,0,0,1-4.335-7.658,4.839,4.839,0,0,1-2.048-8.19a4.8,4.8,0,0,1,2.28.533A3.971,3.971,0,0,1,1.807-6.18a4.071,4.071,0,0,1,.57,2.145,4.071,4.071,0,0,1-.57,2.145A3.971,3.971,0,0,1,.232-.412,4.8,4.8,0,0,1-2.048.12Zm0-1.92A1.949,1.949,0,0,0-.57-2.408,2.265,2.265,0,0,0,.007-4.035,2.265,2.265,0,0,0-.57-5.662,1.949,1.949,0,0,0-2.048-6.27a1.973,1.973,0,0,0-1.485.608,2.247,2.247,0,0,0-.585,1.628,2.247,2.247,0,0,0,.585,1.627A1.973,1.973,0,0,0-2.048-1.8ZM6.653.12A7.839,7.839,0,0,1,4.688-.128,5.134,5.134,0,0,1,3.158-.75l.78-1.68a4.909,4.909,0,0,0,1.305.563,5.469,5.469,0,0,0,1.5.217q1.485,0,1.485-.735a.52.52,0,0,0-.405-.5,6,6,0,0,0-1.245-.255A12.011,12.011,0,0,1,4.943-3.48a2.537,2.537,0,0,1-1.118-.69,1.962,1.962,0,0,1-.473-1.41A2.209,2.209,0,0,1,3.8-6.937a2.848,2.848,0,0,1,1.29-.922,5.51,5.51,0,0,1,2-.33A7.859,7.859,0,0,1,8.79-8a4.759,4.759,0,0,1,1.4.518L9.413-5.82a4.657,4.657,0,0,0-2.325-.6,2.366,2.366,0,0,0-1.125.21.617.617,0,0,0-.375.54.536.536,0,0,0,.405.525,7.17,7.17,0,0,0,1.29.285,13.809,13.809,0,0,1,1.62.352,2.434,2.434,0,0,1,1.1.683,1.937,1.937,0,0,1,.465,1.38,2.131,2.131,0,0,1-.45,1.335A2.873,2.873,0,0,1,8.7-.2,5.847,5.847,0,0,1,6.653.12ZM19.807-4q0,.045-.045.63H13.658a1.9,1.9,0,0,0,.78,1.185,2.584,2.584,0,0,0,1.53.435,3.1,3.1,0,0,0,1.117-.187,2.707,2.707,0,0,0,.908-.593l1.245,1.35A4.184,4.184,0,0,1,15.908.12a5.268,5.268,0,0,1-2.415-.532,3.9,3.9,0,0,1-1.62-1.477,4.071,4.071,0,0,1-.57-2.145,4.124,4.124,0,0,1,.563-2.138A3.941,3.941,0,0,1,13.41-7.658a4.536,4.536,0,0,1,2.2-.533,4.5,4.5,0,0,1,2.145.51A3.722,3.722,0,0,1,19.26-6.217,4.361,4.361,0,0,1,19.807-4ZM15.622-6.42a2.015,2.015,0,0,0-1.335.45,1.916,1.916,0,0,0-.66,1.23H17.6a1.935,1.935,0,0,0-.66-1.222A1.973,1.973,0,0,0,15.622-6.42ZM-20.288,1H20.288V2H-20.288Z" transform="translate(20.288 11.13)"/>
</svg>
