<svg xmlns="http://www.w3.org/2000/svg" width="87.781" height="32.595" viewBox="0 0 87.781 32.595">
  <path id="Path_33" data-name="Path 33" d="M-19.823-30.422V0h-6.109V-2.542A8.435,8.435,0,0,1-32.82.328a11.454,11.454,0,0,1-5.638-1.394,9.981,9.981,0,0,1-3.957-3.977,12.123,12.123,0,0,1-1.435-5.986,12.123,12.123,0,0,1,1.435-5.986,9.981,9.981,0,0,1,3.957-3.977,11.454,11.454,0,0,1,5.638-1.394,8.39,8.39,0,0,1,6.6,2.665v-10.7Zm-11.89,25.5A5.345,5.345,0,0,0-27.7-6.581a6.143,6.143,0,0,0,1.6-4.448,6.143,6.143,0,0,0-1.6-4.449,5.345,5.345,0,0,0-4.018-1.661,5.393,5.393,0,0,0-4.059,1.661,6.143,6.143,0,0,0-1.6,4.449,6.143,6.143,0,0,0,1.6,4.448A5.393,5.393,0,0,0-31.713-4.92ZM-13.92-22.058h6.4V0h-6.4Zm3.2-3.075a4.057,4.057,0,0,1-2.87-1.025A3.324,3.324,0,0,1-14.7-28.7a3.324,3.324,0,0,1,1.107-2.542,4.057,4.057,0,0,1,2.87-1.025,4.158,4.158,0,0,1,2.87.984,3.155,3.155,0,0,1,1.107,2.46,3.482,3.482,0,0,1-1.107,2.645A4.01,4.01,0,0,1-10.722-25.133Zm31.037,3.075L11.009,0h-6.6L-4.858-22.058h6.6L7.852-7.052l6.314-15.006ZM43.931-10.947q0,.123-.123,1.722H27.121a5.2,5.2,0,0,0,2.132,3.239A7.062,7.062,0,0,0,33.435-4.8,8.468,8.468,0,0,0,36.49-5.31a7.4,7.4,0,0,0,2.48-1.619l3.4,3.69Q39.257.328,33.271.328a14.4,14.4,0,0,1-6.6-1.455,10.67,10.67,0,0,1-4.428-4.038,11.127,11.127,0,0,1-1.558-5.863,11.272,11.272,0,0,1,1.538-5.843,10.771,10.771,0,0,1,4.223-4.059,12.4,12.4,0,0,1,6.007-1.455,12.3,12.3,0,0,1,5.863,1.394,10.175,10.175,0,0,1,4.12,4A11.92,11.92,0,0,1,43.931-10.947Zm-11.439-6.6a5.508,5.508,0,0,0-3.649,1.23,5.236,5.236,0,0,0-1.8,3.362H37.9A5.288,5.288,0,0,0,36.1-16.3,5.392,5.392,0,0,0,32.492-17.548Z" transform="translate(43.85 32.267)"/>
</svg>
