<svg xmlns="http://www.w3.org/2000/svg" width="209.818" height="77.91" viewBox="0 0 209.818 77.91">
  <path id="Path_27" data-name="Path 27" d="M60.76-72.716V0h-14.6V-6.076Q40.474.784,29.694.784A27.378,27.378,0,0,1,16.219-2.548a23.858,23.858,0,0,1-9.457-9.506,28.977,28.977,0,0,1-3.43-14.308A28.977,28.977,0,0,1,6.762-40.67a23.858,23.858,0,0,1,9.457-9.506,27.378,27.378,0,0,1,13.475-3.332q10.094,0,15.778,6.37V-72.716ZM32.34-11.76a12.775,12.775,0,0,0,9.6-3.969q3.822-3.969,3.822-10.633T41.944-36.995a12.775,12.775,0,0,0-9.6-3.969,12.891,12.891,0,0,0-9.7,3.969q-3.822,3.969-3.822,10.633t3.822,10.633A12.891,12.891,0,0,0,32.34-11.76ZM74.872-52.724H90.16V0H74.872Zm7.644-7.35a9.7,9.7,0,0,1-6.86-2.45A7.946,7.946,0,0,1,73.01-68.6a7.946,7.946,0,0,1,2.646-6.076,9.7,9.7,0,0,1,6.86-2.45,9.94,9.94,0,0,1,6.86,2.352,7.541,7.541,0,0,1,2.646,5.88,8.322,8.322,0,0,1-2.646,6.321A9.584,9.584,0,0,1,82.516-60.074Zm74.186,7.35L134.456,0H118.678L96.53-52.724h15.778l14.6,35.868L142-52.724ZM213.15-26.166q0,.294-.294,4.116H172.97a12.422,12.422,0,0,0,5.1,7.742,16.879,16.879,0,0,0,10,2.842,20.241,20.241,0,0,0,7.3-1.225,17.684,17.684,0,0,0,5.929-3.871l8.134,8.82Q201.978.784,187.67.784a34.416,34.416,0,0,1-15.778-3.479,25.5,25.5,0,0,1-10.584-9.653,26.6,26.6,0,0,1-3.724-14.014,26.943,26.943,0,0,1,3.675-13.965,25.746,25.746,0,0,1,10.094-9.7,29.637,29.637,0,0,1,14.357-3.479,29.4,29.4,0,0,1,14.014,3.332,24.32,24.32,0,0,1,9.849,9.555A28.492,28.492,0,0,1,213.15-26.166ZM185.808-41.944A13.166,13.166,0,0,0,177.086-39a12.516,12.516,0,0,0-4.312,8.036h25.97a12.641,12.641,0,0,0-4.312-7.987A12.888,12.888,0,0,0,185.808-41.944Z" transform="translate(-3.332 77.126)"/>
</svg>
