<svg xmlns="http://www.w3.org/2000/svg" width="200.116" height="93.296" viewBox="0 0 200.116 93.296">
  <path id="Path_26" data-name="Path 26" d="M61.446-52.724v43.9q0,14.5-7.546,21.56T31.85,19.8a55.147,55.147,0,0,1-14.5-1.862,31.71,31.71,0,0,1-11.368-5.39L12.054,1.568a25.005,25.005,0,0,0,8.428,4.361A33.535,33.535,0,0,0,30.674,7.546q7.938,0,11.711-3.577T46.158-6.86V-9.114Q40.18-2.548,29.5-2.548A27.977,27.977,0,0,1,16.219-5.733,24.273,24.273,0,0,1,6.664-14.7,25.072,25.072,0,0,1,3.136-28.028,25.072,25.072,0,0,1,6.664-41.356a24.273,24.273,0,0,1,9.555-8.967A27.977,27.977,0,0,1,29.5-53.508q11.466,0,17.444,7.546v-6.762ZM32.536-15.092a14.079,14.079,0,0,0,9.947-3.577,12.148,12.148,0,0,0,3.871-9.359,12.148,12.148,0,0,0-3.871-9.359,14.079,14.079,0,0,0-9.947-3.577,14.257,14.257,0,0,0-10,3.577,12.074,12.074,0,0,0-3.92,9.359,12.074,12.074,0,0,0,3.92,9.359A14.257,14.257,0,0,0,32.536-15.092ZM100.744.784A31.615,31.615,0,0,1,85.8-2.695,25.863,25.863,0,0,1,75.46-12.348a26.6,26.6,0,0,1-3.724-14.014A26.6,26.6,0,0,1,75.46-40.376,25.863,25.863,0,0,1,85.8-50.029a31.615,31.615,0,0,1,14.945-3.479,31.324,31.324,0,0,1,14.9,3.479,25.943,25.943,0,0,1,10.29,9.653,26.6,26.6,0,0,1,3.724,14.014,26.6,26.6,0,0,1-3.724,14.014,25.943,25.943,0,0,1-10.29,9.653A31.324,31.324,0,0,1,100.744.784Zm0-12.544a12.733,12.733,0,0,0,9.653-3.969q3.773-3.969,3.773-10.633T110.4-36.995a12.733,12.733,0,0,0-9.653-3.969,12.891,12.891,0,0,0-9.7,3.969Q87.22-33.026,87.22-26.362t3.822,10.633A12.891,12.891,0,0,0,100.744-11.76Zm39.1-60.956h15.288V0H139.846ZM186.1-51.548h13.524v11.76H186.494V0H171.206V-39.788h-8.134v-11.76h8.134V-53.9q0-9.016,5.341-14.308T191.59-73.5a28.058,28.058,0,0,1,6.517.735,15.838,15.838,0,0,1,5.145,2.107l-4.018,11.074a10.455,10.455,0,0,0-6.174-1.862q-6.958,0-6.958,7.644Z" transform="translate(-3.136 73.5)" fill="#fff"/>
</svg>
