<svg xmlns="http://www.w3.org/2000/svg" width="83.722" height="39.032" viewBox="0 0 83.722 39.032">
  <path id="Path_33" data-name="Path 33" d="M-16.175-22.058V-3.69q0,6.068-3.157,9.02t-9.225,2.952A23.072,23.072,0,0,1-34.625,7.5a13.266,13.266,0,0,1-4.756-2.255L-36.839.656A10.461,10.461,0,0,0-33.312,2.48a14.03,14.03,0,0,0,4.264.677,6.915,6.915,0,0,0,4.9-1.5A5.964,5.964,0,0,0-22.571-2.87v-.943a8.949,8.949,0,0,1-6.97,2.747A11.7,11.7,0,0,1-35.1-2.4a10.155,10.155,0,0,1-4-3.752,10.489,10.489,0,0,1-1.476-5.576A10.489,10.489,0,0,1-39.093-17.3a10.155,10.155,0,0,1,4-3.751,11.7,11.7,0,0,1,5.556-1.333,8.754,8.754,0,0,1,7.3,3.157v-2.829ZM-28.27-6.314a5.89,5.89,0,0,0,4.162-1.5,5.082,5.082,0,0,0,1.619-3.916,5.082,5.082,0,0,0-1.619-3.915,5.89,5.89,0,0,0-4.162-1.5,5.965,5.965,0,0,0-4.182,1.5,5.052,5.052,0,0,0-1.64,3.915,5.052,5.052,0,0,0,1.64,3.916A5.965,5.965,0,0,0-28.27-6.314ZM.267.328A13.227,13.227,0,0,1-5.986-1.127a10.82,10.82,0,0,1-4.326-4.038,11.127,11.127,0,0,1-1.558-5.863,11.127,11.127,0,0,1,1.558-5.863,10.82,10.82,0,0,1,4.326-4.038A13.227,13.227,0,0,1,.267-22.386,13.1,13.1,0,0,1,6.5-20.931a10.854,10.854,0,0,1,4.3,4.038,11.127,11.127,0,0,1,1.558,5.863A11.127,11.127,0,0,1,10.8-5.166,10.854,10.854,0,0,1,6.5-1.127,13.1,13.1,0,0,1,.267.328Zm0-5.248A5.327,5.327,0,0,0,4.305-6.581a6.19,6.19,0,0,0,1.579-4.448,6.19,6.19,0,0,0-1.579-4.449A5.327,5.327,0,0,0,.267-17.138a5.393,5.393,0,0,0-4.059,1.661,6.143,6.143,0,0,0-1.6,4.449,6.143,6.143,0,0,0,1.6,4.448A5.393,5.393,0,0,0,.267-4.92Zm16.359-25.5h6.4V0h-6.4Zm19.352,8.856h5.658v4.92H36.142V0h-6.4V-16.646h-3.4v-4.92h3.4v-.984a8.047,8.047,0,0,1,2.235-5.986,8.556,8.556,0,0,1,6.293-2.214A11.739,11.739,0,0,1,41-30.443a6.626,6.626,0,0,1,2.153.882l-1.681,4.633a4.374,4.374,0,0,0-2.583-.779q-2.911,0-2.911,3.2Z" transform="translate(40.57 30.75)"/>
</svg>
