<svg xmlns="http://www.w3.org/2000/svg" width="222.865" height="136.3" viewBox="0 0 222.865 136.3">
  <g id="Group_29" data-name="Group 29" transform="translate(-68.655 -183.76)">
    <path id="Path_24" data-name="Path 24" d="M80.62-52.345h21.46v41.18A61.312,61.312,0,0,1,82.94-1.6a74.309,74.309,0,0,1-21.9,3.335A59.334,59.334,0,0,1,32.625-5a50.192,50.192,0,0,1-19.792-18.7A51.534,51.534,0,0,1,5.655-50.75a51.534,51.534,0,0,1,7.178-27.042A49.948,49.948,0,0,1,32.77-96.5a60.5,60.5,0,0,1,28.71-6.743,62.828,62.828,0,0,1,24.215,4.5,47.981,47.981,0,0,1,18.27,13.05l-15.08,13.92A34.878,34.878,0,0,0,62.64-83.23a35.821,35.821,0,0,0-17.255,4.06A29.126,29.126,0,0,0,33.64-67.715a33.715,33.715,0,0,0-4.2,16.965,33.423,33.423,0,0,0,4.2,16.82A29.743,29.743,0,0,0,45.313-22.4,34.6,34.6,0,0,0,62.35-18.27a38.071,38.071,0,0,0,18.27-4.35ZM172.985,1.74a59.244,59.244,0,0,1-28.493-6.815,50.581,50.581,0,0,1-19.865-18.777,51.262,51.262,0,0,1-7.178-26.9,51.262,51.262,0,0,1,7.178-26.9,50.581,50.581,0,0,1,19.865-18.778,59.244,59.244,0,0,1,28.493-6.815,58.823,58.823,0,0,1,28.42,6.815A51.236,51.236,0,0,1,221.27-77.647a50.871,50.871,0,0,1,7.25,26.9,50.871,50.871,0,0,1-7.25,26.9A51.235,51.235,0,0,1,201.4-5.075,58.823,58.823,0,0,1,172.985,1.74Zm0-20.01a32.209,32.209,0,0,0,16.24-4.132A29.655,29.655,0,0,0,200.607-33.93a33.887,33.887,0,0,0,4.132-16.82,33.887,33.887,0,0,0-4.132-16.82A29.655,29.655,0,0,0,189.225-79.1a32.208,32.208,0,0,0-16.24-4.133,32.208,32.208,0,0,0-16.24,4.133A29.655,29.655,0,0,0,145.363-67.57a33.887,33.887,0,0,0-4.133,16.82,33.887,33.887,0,0,0,4.133,16.82A29.655,29.655,0,0,0,156.745-22.4,32.209,32.209,0,0,0,172.985-18.27Z" transform="translate(63 287)" fill="#fff"/>
    <path id="Path_23" data-name="Path 23" d="M18.81-16.14V-2.7q0,4.44-2.31,6.6T9.75,6.06a16.882,16.882,0,0,1-4.44-.57A9.707,9.707,0,0,1,1.83,3.84L3.69.48A7.655,7.655,0,0,0,6.27,1.815a10.266,10.266,0,0,0,3.12.5,5.06,5.06,0,0,0,3.585-1.095A4.364,4.364,0,0,0,14.13-2.1v-.69A6.548,6.548,0,0,1,9.03-.78a8.565,8.565,0,0,1-4.065-.975A7.431,7.431,0,0,1,2.04-4.5,7.675,7.675,0,0,1,.96-8.58a7.675,7.675,0,0,1,1.08-4.08A7.431,7.431,0,0,1,4.965-15.4,8.565,8.565,0,0,1,9.03-16.38a6.406,6.406,0,0,1,5.34,2.31v-2.07ZM9.96-4.62a4.31,4.31,0,0,0,3.045-1.1A3.719,3.719,0,0,0,14.19-8.58a3.719,3.719,0,0,0-1.185-2.865,4.31,4.31,0,0,0-3.045-1.1,4.365,4.365,0,0,0-3.06,1.1A3.7,3.7,0,0,0,5.7-8.58,3.7,3.7,0,0,0,6.9-5.715,4.365,4.365,0,0,0,9.96-4.62ZM38.97-8.01q0,.09-.09,1.26H26.67a3.8,3.8,0,0,0,1.56,2.37,5.167,5.167,0,0,0,3.06.87,6.2,6.2,0,0,0,2.235-.375A5.413,5.413,0,0,0,35.34-5.07l2.49,2.7Q35.55.24,31.17.24A10.535,10.535,0,0,1,26.34-.825,7.807,7.807,0,0,1,23.1-3.78a8.142,8.142,0,0,1-1.14-4.29,8.248,8.248,0,0,1,1.125-4.275,7.881,7.881,0,0,1,3.09-2.97,9.072,9.072,0,0,1,4.4-1.065,9,9,0,0,1,4.29,1.02,7.445,7.445,0,0,1,3.015,2.925A8.722,8.722,0,0,1,38.97-8.01ZM30.6-12.84a4.03,4.03,0,0,0-2.67.9,3.831,3.831,0,0,0-1.32,2.46h7.95a3.87,3.87,0,0,0-1.32-2.445A3.945,3.945,0,0,0,30.6-12.84ZM52.5-.78a4.81,4.81,0,0,1-1.695.765A8.57,8.57,0,0,1,48.69.24a6.283,6.283,0,0,1-4.455-1.47A5.625,5.625,0,0,1,42.66-5.55v-6.63H40.17v-3.6h2.49v-3.93h4.68v3.93h4.02v3.6H47.34v6.57a2.2,2.2,0,0,0,.525,1.575,1.946,1.946,0,0,0,1.485.555,3.008,3.008,0,0,0,1.89-.6Zm17.64-15.6A8.4,8.4,0,0,1,75.9-14.6,6.831,6.831,0,0,1,77.91-9.21V0H73.53V-2.01Q72.21.24,68.61.24a7.636,7.636,0,0,1-3.225-.63A4.809,4.809,0,0,1,63.3-2.13a4.529,4.529,0,0,1-.72-2.52,4.205,4.205,0,0,1,1.695-3.54A8.638,8.638,0,0,1,69.51-9.48h3.72a2.983,2.983,0,0,0-.93-2.355,4.1,4.1,0,0,0-2.79-.825,8.146,8.146,0,0,0-2.535.405A6.707,6.707,0,0,0,64.86-11.16l-1.68-3.27a10.136,10.136,0,0,1,3.165-1.44A14.178,14.178,0,0,1,70.14-16.38ZM69.78-2.91a4.076,4.076,0,0,0,2.13-.555A3.037,3.037,0,0,0,73.23-5.1V-6.75H70.02q-2.88,0-2.88,1.89a1.683,1.683,0,0,0,.705,1.425A3.176,3.176,0,0,0,69.78-2.91Zm35.37-7.92h4.44v8.52a12.685,12.685,0,0,1-3.96,1.98,15.374,15.374,0,0,1-4.53.69,12.276,12.276,0,0,1-5.88-1.395,10.385,10.385,0,0,1-4.1-3.87,10.662,10.662,0,0,1-1.485-5.6,10.662,10.662,0,0,1,1.485-5.595,10.334,10.334,0,0,1,4.125-3.87,12.517,12.517,0,0,1,5.94-1.4,13,13,0,0,1,5.01.93,9.927,9.927,0,0,1,3.78,2.7l-3.12,2.88a7.216,7.216,0,0,0-5.43-2.37,7.411,7.411,0,0,0-3.57.84,6.026,6.026,0,0,0-2.43,2.37,6.976,6.976,0,0,0-.87,3.51,6.915,6.915,0,0,0,.87,3.48,6.154,6.154,0,0,0,2.415,2.385,7.158,7.158,0,0,0,3.525.855,7.877,7.877,0,0,0,3.78-.9Zm15.12-5.55a8.4,8.4,0,0,1,5.76,1.785,6.831,6.831,0,0,1,2.01,5.385V0h-4.38V-2.01Q122.34.24,118.74.24a7.636,7.636,0,0,1-3.225-.63,4.809,4.809,0,0,1-2.085-1.74,4.529,4.529,0,0,1-.72-2.52A4.205,4.205,0,0,1,114.4-8.19a8.638,8.638,0,0,1,5.235-1.29h3.72a2.983,2.983,0,0,0-.93-2.355,4.1,4.1,0,0,0-2.79-.825,8.146,8.146,0,0,0-2.535.405,6.707,6.707,0,0,0-2.115,1.095l-1.68-3.27a10.136,10.136,0,0,1,3.165-1.44A14.178,14.178,0,0,1,120.27-16.38Zm-.36,13.47a4.076,4.076,0,0,0,2.13-.555A3.037,3.037,0,0,0,123.36-5.1V-6.75h-3.21q-2.88,0-2.88,1.89a1.683,1.683,0,0,0,.705,1.425A3.176,3.176,0,0,0,119.91-2.91Zm16.83-11.1a5.2,5.2,0,0,1,2.265-1.77,8.407,8.407,0,0,1,3.285-.6v4.32q-.78-.06-1.05-.06a4.29,4.29,0,0,0-3.15,1.125,4.547,4.547,0,0,0-1.14,3.375V0h-4.68V-16.14h4.47Zm29.01-2.37a6.506,6.506,0,0,1,4.815,1.785A7.273,7.273,0,0,1,172.35-9.24V0h-4.68V-8.52a4.373,4.373,0,0,0-.795-2.865,2.8,2.8,0,0,0-2.265-.945A3.338,3.338,0,0,0,162-11.265a4.59,4.59,0,0,0-.96,3.165V0h-4.68V-8.52q0-3.81-3.06-3.81a3.3,3.3,0,0,0-2.58,1.065,4.59,4.59,0,0,0-.96,3.165V0h-4.68V-16.14h4.47v1.86a5.907,5.907,0,0,1,2.205-1.56,7.422,7.422,0,0,1,2.865-.54,6.939,6.939,0,0,1,3.09.675,5.472,5.472,0,0,1,2.22,1.965,6.621,6.621,0,0,1,2.505-1.95A7.9,7.9,0,0,1,165.75-16.38Zm10.8.24h4.68V0h-4.68Zm2.34-2.25a2.968,2.968,0,0,1-2.1-.75,2.432,2.432,0,0,1-.81-1.86,2.432,2.432,0,0,1,.81-1.86,2.968,2.968,0,0,1,2.1-.75,3.043,3.043,0,0,1,2.1.72,2.309,2.309,0,0,1,.81,1.8,2.547,2.547,0,0,1-.81,1.935A2.934,2.934,0,0,1,178.89-18.39Zm16.5,2.01a6.642,6.642,0,0,1,4.845,1.8,7.138,7.138,0,0,1,1.845,5.34V0H197.4V-8.52a4.207,4.207,0,0,0-.84-2.865,3.081,3.081,0,0,0-2.43-.945,3.724,3.724,0,0,0-2.82,1.095,4.534,4.534,0,0,0-1.05,3.255V0h-4.68V-16.14h4.47v1.89a6.206,6.206,0,0,1,2.31-1.575A8.048,8.048,0,0,1,195.39-16.38Z" transform="translate(81 314)" fill="#fff"/>
  </g>
</svg>
