<svg xmlns="http://www.w3.org/2000/svg" width="180" height="335" viewBox="0 0 180 335">
  <g id="Group_30" data-name="Group 30" transform="translate(-180)">
    <g id="Group_6" data-name="Group 6" transform="translate(80 4.659)">
      <line id="Line_1" data-name="Line 1" x1="13.35" transform="translate(253.15 15)" fill="none" stroke="#000" stroke-linecap="round" stroke-width="2.5"/>
      <line id="Line_2" data-name="Line 2" x1="13.35" transform="translate(253.15 20.385)" fill="none" stroke="#000" stroke-linecap="round" stroke-width="2.5"/>
      <line id="Line_3" data-name="Line 3" x1="13.35" transform="translate(253.15 25.77)" fill="none" stroke="#000" stroke-linecap="round" stroke-width="2.5"/>
    </g>
    <text id="contents" transform="translate(273 29)" fill="#ab499b" font-size="11" font-family="Montserrat-Bold, Montserrat" font-weight="700"><tspan x="0" y="0">contents</tspan></text>
    <rect id="Rectangle_6" data-name="Rectangle 6" width="180" height="281" transform="translate(180 54)"/>
    <rect id="Rectangle_7" data-name="Rectangle 7" width="180" height="54" transform="translate(180)" fill="#ab499b"/>
    <g id="Group_29" data-name="Group 29" transform="translate(-37 -12)">
      <g id="Ellipse_5" data-name="Ellipse 5" transform="translate(229 30)" fill="none" stroke="#fff" stroke-width="2">
        <circle cx="11" cy="11" r="11" stroke="none"/>
        <circle cx="11" cy="11" r="10" fill="none"/>
      </g>
      <path id="Path_18" data-name="Path 18" d="M11.333,4.352H7.765V.783A.851.851,0,0,0,6.86,0h-1.6a.851.851,0,0,0-.9.783V4.352H.784A.851.851,0,0,0,0,5.257v1.6a.852.852,0,0,0,.784.906H4.353v3.569a.852.852,0,0,0,.9.784h1.6a.852.852,0,0,0,.905-.784V7.764h3.569a.851.851,0,0,0,.783-.906v-1.6A.851.851,0,0,0,11.333,4.352Z" transform="translate(239.806 32.238) rotate(45)" fill="#fff"/>
    </g>
    <path id="Path_31" data-name="Path 31" d="M-41.76.1A3.969,3.969,0,0,1-43.614-.33,3.19,3.19,0,0,1-44.9-1.512a3.224,3.224,0,0,1-.462-1.716A3.224,3.224,0,0,1-44.9-4.944a3.19,3.19,0,0,1,1.284-1.182,3.969,3.969,0,0,1,1.854-.426,3.592,3.592,0,0,1,1.782.426,2.527,2.527,0,0,1,1.11,1.218l-1.452.78a1.587,1.587,0,0,0-1.452-.888,1.643,1.643,0,0,0-1.212.48,1.767,1.767,0,0,0-.48,1.308,1.767,1.767,0,0,0,.48,1.308,1.643,1.643,0,0,0,1.212.48,1.571,1.571,0,0,0,1.452-.888l1.452.792a2.577,2.577,0,0,1-1.11,1.2A3.552,3.552,0,0,1-41.76.1Zm3.924-9h1.872V0h-1.872Zm6.684,9a3.871,3.871,0,0,1-1.83-.426,3.167,3.167,0,0,1-1.266-1.182A3.257,3.257,0,0,1-34.7-3.228a3.257,3.257,0,0,1,.456-1.716,3.167,3.167,0,0,1,1.266-1.182,3.871,3.871,0,0,1,1.83-.426,3.836,3.836,0,0,1,1.824.426,3.177,3.177,0,0,1,1.26,1.182,3.257,3.257,0,0,1,.456,1.716,3.257,3.257,0,0,1-.456,1.716A3.177,3.177,0,0,1-29.328-.33,3.836,3.836,0,0,1-31.152.1Zm0-1.536a1.559,1.559,0,0,0,1.182-.486,1.812,1.812,0,0,0,.462-1.3,1.812,1.812,0,0,0-.462-1.3,1.559,1.559,0,0,0-1.182-.486,1.579,1.579,0,0,0-1.188.486,1.8,1.8,0,0,0-.468,1.3,1.8,1.8,0,0,0,.468,1.3A1.579,1.579,0,0,0-31.152-1.44ZM-24.192.1a6.271,6.271,0,0,1-1.572-.2,4.107,4.107,0,0,1-1.224-.5l.624-1.344a3.927,3.927,0,0,0,1.044.45,4.376,4.376,0,0,0,1.2.174q1.188,0,1.188-.588a.416.416,0,0,0-.324-.4,4.8,4.8,0,0,0-1-.2,9.609,9.609,0,0,1-1.308-.276,2.029,2.029,0,0,1-.894-.552,1.57,1.57,0,0,1-.378-1.128,1.767,1.767,0,0,1,.354-1.086,2.278,2.278,0,0,1,1.032-.738,4.408,4.408,0,0,1,1.6-.264,6.287,6.287,0,0,1,1.362.15,3.807,3.807,0,0,1,1.122.414l-.624,1.332a3.725,3.725,0,0,0-1.86-.48,1.892,1.892,0,0,0-.9.168.494.494,0,0,0-.3.432.429.429,0,0,0,.324.42,5.736,5.736,0,0,0,1.032.228,11.047,11.047,0,0,1,1.3.282,1.947,1.947,0,0,1,.876.546,1.549,1.549,0,0,1,.372,1.1A1.7,1.7,0,0,1-21.5-.888a2.3,2.3,0,0,1-1.05.726A4.678,4.678,0,0,1-24.192.1Zm10.524-3.3q0,.036-.036.5h-4.884a1.521,1.521,0,0,0,.624.948A2.067,2.067,0,0,0-16.74-1.4a2.478,2.478,0,0,0,.894-.15,2.165,2.165,0,0,0,.726-.474l1,1.08A3.347,3.347,0,0,1-16.788.1,4.214,4.214,0,0,1-18.72-.33a3.123,3.123,0,0,1-1.3-1.182,3.257,3.257,0,0,1-.456-1.716,3.3,3.3,0,0,1,.45-1.71,3.153,3.153,0,0,1,1.236-1.188,3.629,3.629,0,0,1,1.758-.426,3.6,3.6,0,0,1,1.716.408,2.978,2.978,0,0,1,1.206,1.17A3.489,3.489,0,0,1-13.668-3.2Zm-3.348-1.932a1.612,1.612,0,0,0-1.068.36,1.533,1.533,0,0,0-.528.984h3.18a1.548,1.548,0,0,0-.528-.978A1.578,1.578,0,0,0-17.016-5.136ZM-5.9.1A3.969,3.969,0,0,1-7.758-.33,3.19,3.19,0,0,1-9.042-1.512,3.224,3.224,0,0,1-9.5-3.228a3.224,3.224,0,0,1,.462-1.716A3.19,3.19,0,0,1-7.758-6.126,3.969,3.969,0,0,1-5.9-6.552a3.592,3.592,0,0,1,1.782.426,2.527,2.527,0,0,1,1.11,1.218l-1.452.78a1.587,1.587,0,0,0-1.452-.888,1.643,1.643,0,0,0-1.212.48,1.767,1.767,0,0,0-.48,1.308,1.767,1.767,0,0,0,.48,1.308,1.643,1.643,0,0,0,1.212.48,1.571,1.571,0,0,0,1.452-.888l1.452.792a2.577,2.577,0,0,1-1.11,1.2A3.552,3.552,0,0,1-5.9.1Zm6.96,0A3.871,3.871,0,0,1-.774-.33,3.167,3.167,0,0,1-2.04-1.512,3.257,3.257,0,0,1-2.5-3.228,3.257,3.257,0,0,1-2.04-4.944,3.167,3.167,0,0,1-.774-6.126a3.871,3.871,0,0,1,1.83-.426,3.836,3.836,0,0,1,1.824.426A3.177,3.177,0,0,1,4.14-4.944,3.257,3.257,0,0,1,4.6-3.228,3.257,3.257,0,0,1,4.14-1.512,3.177,3.177,0,0,1,2.88-.33,3.836,3.836,0,0,1,1.056.1Zm0-1.536a1.559,1.559,0,0,0,1.182-.486,1.812,1.812,0,0,0,.462-1.3,1.812,1.812,0,0,0-.462-1.3,1.559,1.559,0,0,0-1.182-.486A1.579,1.579,0,0,0-.132-4.53,1.8,1.8,0,0,0-.6-3.228a1.8,1.8,0,0,0,.468,1.3A1.579,1.579,0,0,0,1.056-1.44ZM9.768-6.552a2.657,2.657,0,0,1,1.938.72A2.855,2.855,0,0,1,12.444-3.7V0H10.572V-3.408a1.683,1.683,0,0,0-.336-1.146,1.232,1.232,0,0,0-.972-.378,1.49,1.49,0,0,0-1.128.438,1.814,1.814,0,0,0-.42,1.3V0H5.844V-6.456H7.632V-5.7a2.483,2.483,0,0,1,.924-.63A3.219,3.219,0,0,1,9.768-6.552ZM18.3-.312a1.924,1.924,0,0,1-.678.306,3.428,3.428,0,0,1-.846.1,2.513,2.513,0,0,1-1.782-.588,2.25,2.25,0,0,1-.63-1.728V-4.872h-1v-1.44h1V-7.884h1.872v1.572h1.608v1.44H16.236v2.628a.881.881,0,0,0,.21.63.778.778,0,0,0,.594.222,1.2,1.2,0,0,0,.756-.24ZM25.476-3.2q0,.036-.036.5H20.556a1.521,1.521,0,0,0,.624.948A2.067,2.067,0,0,0,22.4-1.4a2.478,2.478,0,0,0,.894-.15,2.165,2.165,0,0,0,.726-.474l1,1.08A3.347,3.347,0,0,1,22.356.1,4.214,4.214,0,0,1,20.424-.33a3.123,3.123,0,0,1-1.3-1.182,3.257,3.257,0,0,1-.456-1.716,3.3,3.3,0,0,1,.45-1.71,3.153,3.153,0,0,1,1.236-1.188,3.629,3.629,0,0,1,1.758-.426,3.6,3.6,0,0,1,1.716.408,2.978,2.978,0,0,1,1.206,1.17A3.489,3.489,0,0,1,25.476-3.2ZM22.128-5.136a1.612,1.612,0,0,0-1.068.36,1.533,1.533,0,0,0-.528.984h3.18a1.548,1.548,0,0,0-.528-.978A1.578,1.578,0,0,0,22.128-5.136Zm8.52-1.416a2.657,2.657,0,0,1,1.938.72A2.855,2.855,0,0,1,33.324-3.7V0H31.452V-3.408a1.683,1.683,0,0,0-.336-1.146,1.232,1.232,0,0,0-.972-.378,1.49,1.49,0,0,0-1.128.438,1.814,1.814,0,0,0-.42,1.3V0H26.724V-6.456h1.788V-5.7a2.483,2.483,0,0,1,.924-.63A3.219,3.219,0,0,1,30.648-6.552ZM39.18-.312a1.924,1.924,0,0,1-.678.306,3.428,3.428,0,0,1-.846.1,2.513,2.513,0,0,1-1.782-.588,2.25,2.25,0,0,1-.63-1.728V-4.872h-1v-1.44h1V-7.884h1.872v1.572h1.608v1.44H37.116v2.628a.881.881,0,0,0,.21.63.778.778,0,0,0,.594.222,1.2,1.2,0,0,0,.756-.24ZM42.408.1a6.271,6.271,0,0,1-1.572-.2,4.107,4.107,0,0,1-1.224-.5l.624-1.344a3.927,3.927,0,0,0,1.044.45,4.376,4.376,0,0,0,1.2.174q1.188,0,1.188-.588a.416.416,0,0,0-.324-.4,4.8,4.8,0,0,0-1-.2,9.609,9.609,0,0,1-1.308-.276,2.029,2.029,0,0,1-.894-.552,1.57,1.57,0,0,1-.378-1.128,1.767,1.767,0,0,1,.354-1.086,2.278,2.278,0,0,1,1.032-.738,4.408,4.408,0,0,1,1.6-.264,6.287,6.287,0,0,1,1.362.15,3.807,3.807,0,0,1,1.122.414l-.624,1.332a3.725,3.725,0,0,0-1.86-.48,1.892,1.892,0,0,0-.9.168.494.494,0,0,0-.3.432.429.429,0,0,0,.324.42,5.736,5.736,0,0,0,1.032.228,11.047,11.047,0,0,1,1.3.282,1.947,1.947,0,0,1,.876.546,1.549,1.549,0,0,1,.372,1.1A1.7,1.7,0,0,1,45.1-.888a2.3,2.3,0,0,1-1.05.726A4.678,4.678,0,0,1,42.408.1ZM-45.744,1H45.744V2H-45.744Z" transform="translate(266 32)" fill="#fff"/>
    <path id="Path_32" data-name="Path 32" d="M3.708.1c2.22,0,3.252-1.1,3.252-2.388,0-3.084-5.088-1.8-5.088-3.852,0-.732.612-1.332,2.04-1.332a4.338,4.338,0,0,1,2.3.684l.4-.96a4.942,4.942,0,0,0-2.7-.744C1.7-8.5.7-7.392.7-6.1c0,3.12,5.088,1.824,5.088,3.876,0,.732-.624,1.3-2.076,1.3A4.323,4.323,0,0,1,.936-1.9L.492-.96A4.986,4.986,0,0,0,3.708.1Zm7.56-.024a3.164,3.164,0,0,0,3.3-3.252,3.155,3.155,0,0,0-3.3-3.24A3.165,3.165,0,0,0,7.956-3.18,3.174,3.174,0,0,0,11.268.072Zm0-1.008A2.106,2.106,0,0,1,9.12-3.18a2.1,2.1,0,0,1,2.148-2.232A2.087,2.087,0,0,1,13.4-3.18,2.1,2.1,0,0,1,11.268-.936ZM18.936.072A2.845,2.845,0,0,0,21.528-1.3l-.876-.552a1.983,1.983,0,0,1-1.728.912A2.107,2.107,0,0,1,16.74-3.18a2.111,2.111,0,0,1,2.184-2.232,1.983,1.983,0,0,1,1.728.912l.876-.564A2.836,2.836,0,0,0,18.936-6.42a3.178,3.178,0,0,0-3.36,3.24A3.187,3.187,0,0,0,18.936.072Zm4.656-7.656a.754.754,0,0,0,.78-.768.747.747,0,0,0-.78-.732.758.758,0,0,0-.78.756A.749.749,0,0,0,23.592-7.584ZM23.016,0h1.152V-6.36H23.016ZM28.68-6.42a4.235,4.235,0,0,0-2.628.816l.48.864a3.216,3.216,0,0,1,2.016-.684c1.14,0,1.7.564,1.7,1.536v.228H28.428c-1.9,0-2.556.84-2.556,1.86,0,1.1.912,1.872,2.352,1.872A2.361,2.361,0,0,0,30.312-.84V0H31.4V-3.84C31.4-5.58,30.42-6.42,28.68-6.42Zm-.264,5.6c-.876,0-1.4-.4-1.4-1.032,0-.54.324-.984,1.464-.984h1.776v.888A1.844,1.844,0,0,1,28.416-.816ZM33.54,0h1.152V-8.9H33.54ZM46.1-1.512a3.555,3.555,0,0,1-1.968.54A3.189,3.189,0,0,1,40.8-4.2a3.178,3.178,0,0,1,3.348-3.228,3.33,3.33,0,0,1,2.436.972l.744-.744A4.21,4.21,0,0,0,44.1-8.5a4.262,4.262,0,0,0-4.5,4.3A4.255,4.255,0,0,0,44.076.1a4.964,4.964,0,0,0,3.18-1.068V-4.248H46.1ZM51.7-6.42a4.235,4.235,0,0,0-2.628.816l.48.864a3.216,3.216,0,0,1,2.016-.684c1.14,0,1.7.564,1.7,1.536v.228H51.444c-1.9,0-2.556.84-2.556,1.86,0,1.1.912,1.872,2.352,1.872A2.361,2.361,0,0,0,53.328-.84V0H54.42V-3.84C54.42-5.58,53.436-6.42,51.7-6.42Zm-.264,5.6c-.876,0-1.4-.4-1.4-1.032,0-.54.324-.984,1.464-.984h1.776v.888A1.844,1.844,0,0,1,51.432-.816Zm13.08-5.6a2.866,2.866,0,0,0-2.448,1.176A2.354,2.354,0,0,0,59.856-6.42a2.578,2.578,0,0,0-2.2,1.008V-6.36h-1.1V0h1.152V-3.276a1.847,1.847,0,0,1,1.908-2.112c1.044,0,1.644.612,1.644,1.86V0h1.152V-3.276A1.847,1.847,0,0,1,64.32-5.388c1.044,0,1.644.612,1.644,1.86V0h1.152V-3.66A2.439,2.439,0,0,0,64.512-6.42Zm5.3-1.164a.754.754,0,0,0,.78-.768.747.747,0,0,0-.78-.732.758.758,0,0,0-.78.756A.749.749,0,0,0,69.816-7.584ZM69.24,0h1.152V-6.36H69.24Zm6.744-6.42A2.726,2.726,0,0,0,73.692-5.4v-.96h-1.1V0H73.74V-3.276a1.889,1.889,0,0,1,2.016-2.112c1.092,0,1.716.612,1.716,1.86V0h1.152V-3.66A2.464,2.464,0,0,0,75.984-6.42Zm9.8.06v.984A2.9,2.9,0,0,0,83.436-6.42a3.037,3.037,0,0,0-3.228,3.072A3.046,3.046,0,0,0,83.436-.264a2.91,2.91,0,0,0,2.292-.984v.5c0,1.44-.684,2.136-2.184,2.136A3.882,3.882,0,0,1,81.1.564l-.552.888A4.708,4.708,0,0,0,83.58,2.4c2.16,0,3.3-1.02,3.3-3.264v-5.5Zm-2.22,5.088a2.05,2.05,0,0,1-2.2-2.076,2.034,2.034,0,0,1,2.2-2.064,2.03,2.03,0,0,1,2.184,2.064A2.046,2.046,0,0,1,83.568-1.272Z" transform="translate(209 77)" fill="#fff"/>
    <path id="Path_33" data-name="Path 33" d="M10.2,0l-.012-8.4H9.2L5.748-2.5l-3.5-5.9H1.26V0H2.412V-6.084L5.448-1.02H6l3.036-5.1L9.048,0Zm2.928-7.584a.754.754,0,0,0,.78-.768.747.747,0,0,0-.78-.732.758.758,0,0,0-.78.756A.749.749,0,0,0,13.128-7.584ZM12.552,0H13.7V-6.36H12.552Zm8.34-6.36v.984A2.9,2.9,0,0,0,18.54-6.42a3.036,3.036,0,0,0-3.228,3.072A3.046,3.046,0,0,0,18.54-.264a2.91,2.91,0,0,0,2.292-.984v.5c0,1.44-.684,2.136-2.184,2.136A3.882,3.882,0,0,1,16.2.564l-.552.888a4.708,4.708,0,0,0,3.036.948c2.16,0,3.3-1.02,3.3-3.264v-5.5Zm-2.22,5.088a2.05,2.05,0,0,1-2.2-2.076,2.034,2.034,0,0,1,2.2-2.064,2.03,2.03,0,0,1,2.184,2.064A2.046,2.046,0,0,1,18.672-1.272Zm10.5-5.088v.984A2.9,2.9,0,0,0,26.82-6.42a3.036,3.036,0,0,0-3.228,3.072A3.046,3.046,0,0,0,26.82-.264a2.91,2.91,0,0,0,2.292-.984v.5c0,1.44-.684,2.136-2.184,2.136A3.882,3.882,0,0,1,24.48.564l-.552.888a4.708,4.708,0,0,0,3.036.948c2.16,0,3.3-1.02,3.3-3.264v-5.5Zm-2.22,5.088a2.05,2.05,0,0,1-2.2-2.076,2.034,2.034,0,0,1,2.2-2.064,2.03,2.03,0,0,1,2.184,2.064A2.046,2.046,0,0,1,26.952-1.272ZM34.284.072c1.692,0,2.748-.732,2.748-1.884C37.032-4.284,33-3.06,33-4.56c0-.5.492-.876,1.5-.876a3.321,3.321,0,0,1,1.836.5l.492-.912a4.628,4.628,0,0,0-2.316-.576c-1.632,0-2.652.768-2.652,1.908,0,2.532,4.02,1.3,4.02,2.724,0,.54-.444.864-1.512.864a4.087,4.087,0,0,1-2.232-.66l-.48.912A4.59,4.59,0,0,0,34.284.072Zm7.4-1.272a1.451,1.451,0,0,1-.9.3.937.937,0,0,1-1-1.068V-5.412h1.824V-6.36H39.792V-7.752H38.64V-6.36H37.56v.948h1.08V-1.92A1.815,1.815,0,0,0,40.656.072a2.173,2.173,0,0,0,1.392-.444Zm7.284-1.944A3.067,3.067,0,0,0,45.828-6.42a3.115,3.115,0,0,0-3.192,3.24A3.184,3.184,0,0,0,46.056.072,3.192,3.192,0,0,0,48.564-.96L47.928-1.7a2.375,2.375,0,0,1-1.836.768,2.154,2.154,0,0,1-2.3-1.86h5.16C48.96-2.9,48.972-3.048,48.972-3.144Zm-3.144-2.3a1.983,1.983,0,0,1,2.04,1.824h-4.08A1.982,1.982,0,0,1,45.828-5.448Zm5.844.156V-6.36h-1.1V0H51.72V-3.168a1.9,1.9,0,0,1,2-2.148,2.034,2.034,0,0,1,.264.012V-6.42A2.428,2.428,0,0,0,51.672-5.292ZM62.16-8.4H58.884V0h1.2V-2.544H62.16c2.184,0,3.5-1.1,3.5-2.928S64.344-8.4,62.16-8.4Zm-.036,4.812h-2.04V-7.356h2.04c1.536,0,2.34.684,2.34,1.884S63.66-3.588,62.124-3.588ZM67.38,0h1.152V-8.9H67.38ZM75.5-6.36v3.288A1.872,1.872,0,0,1,73.536-.96c-1.092,0-1.716-.624-1.716-1.872V-6.36H70.668V-2.7A2.5,2.5,0,0,0,73.4.072,2.588,2.588,0,0,0,75.564-.96V0h1.092V-6.36ZM80.676.072c1.692,0,2.748-.732,2.748-1.884,0-2.472-4.032-1.248-4.032-2.748,0-.5.492-.876,1.5-.876a3.321,3.321,0,0,1,1.836.5l.492-.912A4.628,4.628,0,0,0,80.9-6.42c-1.632,0-2.652.768-2.652,1.908,0,2.532,4.02,1.3,4.02,2.724,0,.54-.444.864-1.512.864a4.087,4.087,0,0,1-2.232-.66l-.48.912A4.59,4.59,0,0,0,80.676.072Z" transform="translate(209 110)" fill="#fff"/>
    <path id="Path_34" data-name="Path 34" d="M7.284-8.4v6.264L2.244-8.4H1.26V0h1.2V-6.264L7.5,0h.984V-8.4Zm9.648,1.044V-8.4H11V0h1.2V-3.4h4.212V-4.428H12.2V-7.356ZM20.352,0H21.54V-7.356h2.88V-8.4H17.472v1.044h2.88Zm9.8-1.044V-3.756h4.212v-1.02H30.156v-2.58h4.728V-8.4H28.956V0h6.1V-1.044ZM42.048,0,39.516-3.252l2.4-3.108h-1.26l-1.74,2.292L37.164-6.36H35.88l2.388,3.108L35.76,0h1.284L38.9-2.436,40.74,0ZM46.68-6.42a2.709,2.709,0,0,0-2.268,1.068V-6.36h-1.1V2.328H44.46V-.96A2.716,2.716,0,0,0,46.68.072,3.09,3.09,0,0,0,49.9-3.18,3.087,3.087,0,0,0,46.68-6.42Zm-.1,5.484A2.1,2.1,0,0,1,44.448-3.18a2.1,2.1,0,0,1,2.136-2.232A2.1,2.1,0,0,1,48.732-3.18,2.106,2.106,0,0,1,46.584-.936ZM51.492,0h1.152V-8.9H51.492Zm5.664-6.42a4.235,4.235,0,0,0-2.628.816l.48.864a3.216,3.216,0,0,1,2.016-.684c1.14,0,1.7.564,1.7,1.536v.228H56.9c-1.9,0-2.556.84-2.556,1.86,0,1.1.912,1.872,2.352,1.872A2.361,2.361,0,0,0,58.788-.84V0H59.88V-3.84C59.88-5.58,58.9-6.42,57.156-6.42Zm-.264,5.6c-.876,0-1.4-.4-1.4-1.032,0-.54.324-.984,1.464-.984h1.776v.888A1.844,1.844,0,0,1,56.892-.816Zm5.7-6.768a.754.754,0,0,0,.78-.768.747.747,0,0,0-.78-.732.758.758,0,0,0-.78.756A.749.749,0,0,0,62.592-7.584ZM62.016,0h1.152V-6.36H62.016ZM68.76-6.42A2.726,2.726,0,0,0,66.468-5.4v-.96h-1.1V0h1.152V-3.276a1.889,1.889,0,0,1,2.016-2.112c1.092,0,1.716.612,1.716,1.86V0H71.4V-3.66A2.464,2.464,0,0,0,68.76-6.42ZM79.32-3.144A3.067,3.067,0,0,0,76.176-6.42a3.115,3.115,0,0,0-3.192,3.24A3.184,3.184,0,0,0,76.4.072,3.192,3.192,0,0,0,78.912-.96L78.276-1.7a2.375,2.375,0,0,1-1.836.768,2.154,2.154,0,0,1-2.3-1.86H79.3C79.308-2.9,79.32-3.048,79.32-3.144Zm-3.144-2.3a1.983,1.983,0,0,1,2.04,1.824h-4.08A1.982,1.982,0,0,1,76.176-5.448ZM85.764-8.9v3.5a2.706,2.706,0,0,0-2.22-1.02,3.087,3.087,0,0,0-3.216,3.24A3.1,3.1,0,0,0,83.544.072a2.687,2.687,0,0,0,2.268-1.08V0h1.1V-8.9ZM83.64-.936A2.106,2.106,0,0,1,81.492-3.18,2.1,2.1,0,0,1,83.64-5.412,2.093,2.093,0,0,1,85.776-3.18,2.1,2.1,0,0,1,83.64-.936Z" transform="translate(209 143)" fill="#fff"/>
    <path id="Path_35" data-name="Path 35" d="M7.08-1.512a3.555,3.555,0,0,1-1.968.54A3.189,3.189,0,0,1,1.776-4.2,3.178,3.178,0,0,1,5.124-7.428a3.33,3.33,0,0,1,2.436.972L8.3-7.2A4.21,4.21,0,0,0,5.076-8.5a4.262,4.262,0,0,0-4.5,4.3A4.255,4.255,0,0,0,5.052.1,4.964,4.964,0,0,0,8.232-.972V-4.248H7.08Zm6,1.584a3.164,3.164,0,0,0,3.3-3.252,3.155,3.155,0,0,0-3.3-3.24A3.165,3.165,0,0,0,9.768-3.18,3.174,3.174,0,0,0,13.08.072Zm0-1.008A2.106,2.106,0,0,1,10.932-3.18,2.1,2.1,0,0,1,13.08-5.412,2.087,2.087,0,0,1,15.216-3.18,2.1,2.1,0,0,1,13.08-.936Zm14.112-.576a3.555,3.555,0,0,1-1.968.54A3.189,3.189,0,0,1,21.888-4.2a3.178,3.178,0,0,1,3.348-3.228,3.33,3.33,0,0,1,2.436.972l.744-.744a4.21,4.21,0,0,0-3.228-1.3,4.262,4.262,0,0,0-4.5,4.3A4.255,4.255,0,0,0,25.164.1a4.964,4.964,0,0,0,3.18-1.068V-4.248H27.192Zm9.024-1.632A3.067,3.067,0,0,0,33.072-6.42,3.115,3.115,0,0,0,29.88-3.18,3.184,3.184,0,0,0,33.3.072,3.192,3.192,0,0,0,35.808-.96L35.172-1.7a2.375,2.375,0,0,1-1.836.768,2.154,2.154,0,0,1-2.3-1.86h5.16C36.2-2.9,36.216-3.048,36.216-3.144Zm-3.144-2.3a1.983,1.983,0,0,1,2.04,1.824h-4.08A1.982,1.982,0,0,1,33.072-5.448ZM41.028-1.2a1.451,1.451,0,0,1-.9.3.937.937,0,0,1-1-1.068V-5.412h1.824V-6.36H39.132V-7.752H37.98V-6.36H36.9v.948h1.08V-1.92A1.815,1.815,0,0,0,40,.072a2.173,2.173,0,0,0,1.392-.444Zm7.3-5.22A4.235,4.235,0,0,0,45.7-5.6l.48.864a3.216,3.216,0,0,1,2.016-.684c1.14,0,1.7.564,1.7,1.536v.228H48.072c-1.9,0-2.556.84-2.556,1.86,0,1.1.912,1.872,2.352,1.872A2.361,2.361,0,0,0,49.956-.84V0h1.092V-3.84C51.048-5.58,50.064-6.42,48.324-6.42Zm-.264,5.6c-.876,0-1.4-.4-1.4-1.032,0-.54.324-.984,1.464-.984H49.9v.888A1.844,1.844,0,0,1,48.06-.816Zm14.34-.7a3.555,3.555,0,0,1-1.968.54A3.189,3.189,0,0,1,57.1-4.2a3.178,3.178,0,0,1,3.348-3.228,3.33,3.33,0,0,1,2.436.972l.744-.744A4.21,4.21,0,0,0,60.4-8.5a4.262,4.262,0,0,0-4.5,4.3A4.255,4.255,0,0,0,60.372.1a4.964,4.964,0,0,0,3.18-1.068V-4.248H62.4ZM67.992-6.42a4.235,4.235,0,0,0-2.628.816l.48.864a3.216,3.216,0,0,1,2.016-.684c1.14,0,1.7.564,1.7,1.536v.228H67.74c-1.9,0-2.556.84-2.556,1.86,0,1.1.912,1.872,2.352,1.872A2.361,2.361,0,0,0,69.624-.84V0h1.092V-3.84C70.716-5.58,69.732-6.42,67.992-6.42Zm-.264,5.6c-.876,0-1.4-.4-1.4-1.032,0-.54.324-.984,1.464-.984h1.776v.888A1.844,1.844,0,0,1,67.728-.816Zm6.228-4.476V-6.36h-1.1V0H74V-3.168a1.9,1.9,0,0,1,2-2.148,2.034,2.034,0,0,1,.264.012V-6.42A2.428,2.428,0,0,0,73.956-5.292ZM85.644-6.42A2.866,2.866,0,0,0,83.2-5.244,2.354,2.354,0,0,0,80.988-6.42a2.578,2.578,0,0,0-2.2,1.008V-6.36h-1.1V0H78.84V-3.276a1.847,1.847,0,0,1,1.908-2.112c1.044,0,1.644.612,1.644,1.86V0h1.152V-3.276a1.847,1.847,0,0,1,1.908-2.112c1.044,0,1.644.612,1.644,1.86V0h1.152V-3.66A2.439,2.439,0,0,0,85.644-6.42Zm5.3-1.164a.754.754,0,0,0,.78-.768.747.747,0,0,0-.78-.732.758.758,0,0,0-.78.756A.749.749,0,0,0,90.948-7.584ZM90.372,0h1.152V-6.36H90.372Zm6.744-6.42A2.726,2.726,0,0,0,94.824-5.4v-.96h-1.1V0h1.152V-3.276a1.889,1.889,0,0,1,2.016-2.112c1.092,0,1.716.612,1.716,1.86V0h1.152V-3.66A2.464,2.464,0,0,0,97.116-6.42Z" transform="translate(209 176)" fill="#fff"/>
    <path id="Path_36" data-name="Path 36" d="M7.536,0H8.8L4.98-8.4H3.792L-.012,0H1.224l.924-2.1H6.612ZM2.568-3.06,4.38-7.176,6.192-3.06ZM17.832-6.42a2.866,2.866,0,0,0-2.448,1.176A2.354,2.354,0,0,0,13.176-6.42a2.578,2.578,0,0,0-2.2,1.008V-6.36h-1.1V0h1.152V-3.276a1.847,1.847,0,0,1,1.908-2.112c1.044,0,1.644.612,1.644,1.86V0h1.152V-3.276A1.847,1.847,0,0,1,17.64-5.388c1.044,0,1.644.612,1.644,1.86V0h1.152V-3.66A2.439,2.439,0,0,0,17.832-6.42ZM25.32.072a3.164,3.164,0,0,0,3.3-3.252,3.155,3.155,0,0,0-3.3-3.24,3.165,3.165,0,0,0-3.312,3.24A3.174,3.174,0,0,0,25.32.072Zm0-1.008A2.106,2.106,0,0,1,23.172-3.18,2.1,2.1,0,0,1,25.32-5.412,2.087,2.087,0,0,1,27.456-3.18,2.1,2.1,0,0,1,25.32-.936ZM33.612-6.42A2.726,2.726,0,0,0,31.32-5.4v-.96h-1.1V0h1.152V-3.276a1.889,1.889,0,0,1,2.016-2.112c1.092,0,1.716.612,1.716,1.86V0h1.152V-3.66A2.464,2.464,0,0,0,33.612-6.42Zm9.8.06v.984A2.9,2.9,0,0,0,41.064-6.42a3.036,3.036,0,0,0-3.228,3.072A3.046,3.046,0,0,0,41.064-.264a2.91,2.91,0,0,0,2.292-.984v.5c0,1.44-.684,2.136-2.184,2.136A3.882,3.882,0,0,1,38.724.564l-.552.888a4.708,4.708,0,0,0,3.036.948c2.16,0,3.3-1.02,3.3-3.264v-5.5ZM41.2-1.272A2.05,2.05,0,0,1,39-3.348a2.034,2.034,0,0,1,2.2-2.064A2.03,2.03,0,0,1,43.38-3.348,2.046,2.046,0,0,1,41.2-1.272ZM48.528.072c1.692,0,2.748-.732,2.748-1.884,0-2.472-4.032-1.248-4.032-2.748,0-.5.492-.876,1.5-.876a3.321,3.321,0,0,1,1.836.5l.492-.912a4.628,4.628,0,0,0-2.316-.576c-1.632,0-2.652.768-2.652,1.908,0,2.532,4.02,1.3,4.02,2.724,0,.54-.444.864-1.512.864a4.087,4.087,0,0,1-2.232-.66l-.48.912A4.59,4.59,0,0,0,48.528.072Zm7.4-1.272a1.451,1.451,0,0,1-.9.3.937.937,0,0,1-1-1.068V-5.412H55.86V-6.36H54.036V-7.752H52.884V-6.36H51.8v.948h1.08V-1.92A1.815,1.815,0,0,0,54.9.072a2.173,2.173,0,0,0,1.392-.444ZM62.748,0h1.188V-7.356h2.88V-8.4H59.868v1.044h2.88Zm8.6-6.42a2.758,2.758,0,0,0-2.244.96V-8.9H67.956V0h1.152V-3.276a1.889,1.889,0,0,1,2.016-2.112c1.092,0,1.716.612,1.716,1.86V0h1.152V-3.66A2.464,2.464,0,0,0,71.352-6.42Zm10.56,3.276A3.067,3.067,0,0,0,78.768-6.42a3.115,3.115,0,0,0-3.192,3.24A3.184,3.184,0,0,0,79,.072,3.192,3.192,0,0,0,81.5-.96L80.868-1.7a2.375,2.375,0,0,1-1.836.768,2.154,2.154,0,0,1-2.3-1.86h5.16C81.9-2.9,81.912-3.048,81.912-3.144Zm-3.144-2.3a1.983,1.983,0,0,1,2.04,1.824h-4.08A1.982,1.982,0,0,1,78.768-5.448ZM89.352.1c2.22,0,3.252-1.1,3.252-2.388,0-3.084-5.088-1.8-5.088-3.852,0-.732.612-1.332,2.04-1.332a4.338,4.338,0,0,1,2.3.684l.4-.96a4.942,4.942,0,0,0-2.7-.744c-2.208,0-3.216,1.1-3.216,2.4,0,3.12,5.088,1.824,5.088,3.876,0,.732-.624,1.3-2.076,1.3A4.323,4.323,0,0,1,86.58-1.9l-.444.936A4.986,4.986,0,0,0,89.352.1ZM97.4-1.2a1.451,1.451,0,0,1-.9.3.937.937,0,0,1-1-1.068V-5.412h1.824V-6.36H95.508V-7.752H94.356V-6.36h-1.08v.948h1.08V-1.92A1.815,1.815,0,0,0,96.372.072a2.173,2.173,0,0,0,1.392-.444Zm4.068-5.22a4.235,4.235,0,0,0-2.628.816l.48.864a3.216,3.216,0,0,1,2.016-.684c1.14,0,1.7.564,1.7,1.536v.228H101.22c-1.9,0-2.556.84-2.556,1.86,0,1.1.912,1.872,2.352,1.872A2.361,2.361,0,0,0,103.1-.84V0H104.2V-3.84C104.2-5.58,103.212-6.42,101.472-6.42Zm-.264,5.6c-.876,0-1.4-.4-1.4-1.032,0-.54.324-.984,1.464-.984h1.776v.888A1.844,1.844,0,0,1,101.208-.816Zm6.228-4.476V-6.36h-1.1V0h1.152V-3.168a1.9,1.9,0,0,1,2-2.148,2.034,2.034,0,0,1,.264.012V-6.42A2.428,2.428,0,0,0,107.436-5.292Zm5.6,5.364c1.692,0,2.748-.732,2.748-1.884,0-2.472-4.032-1.248-4.032-2.748,0-.5.492-.876,1.5-.876a3.321,3.321,0,0,1,1.836.5l.492-.912a4.628,4.628,0,0,0-2.316-.576c-1.632,0-2.652.768-2.652,1.908,0,2.532,4.02,1.3,4.02,2.724,0,.54-.444.864-1.512.864a4.087,4.087,0,0,1-2.232-.66l-.48.912A4.59,4.59,0,0,0,113.04.072Z" transform="translate(209 209)" fill="#fff"/>
    <path id="Path_37" data-name="Path 37" d="M10.2,0l-.012-8.4H9.2L5.748-2.5l-3.5-5.9H1.26V0H2.412V-6.084L5.448-1.02H6l3.036-5.1L9.048,0Zm2.928-7.584a.754.754,0,0,0,.78-.768.747.747,0,0,0-.78-.732.758.758,0,0,0-.78.756A.749.749,0,0,0,13.128-7.584ZM12.552,0H13.7V-6.36H12.552Zm8.34-6.36v.984A2.9,2.9,0,0,0,18.54-6.42a3.036,3.036,0,0,0-3.228,3.072A3.046,3.046,0,0,0,18.54-.264a2.91,2.91,0,0,0,2.292-.984v.5c0,1.44-.684,2.136-2.184,2.136A3.882,3.882,0,0,1,16.2.564l-.552.888a4.708,4.708,0,0,0,3.036.948c2.16,0,3.3-1.02,3.3-3.264v-5.5Zm-2.22,5.088a2.05,2.05,0,0,1-2.2-2.076,2.034,2.034,0,0,1,2.2-2.064,2.03,2.03,0,0,1,2.184,2.064A2.046,2.046,0,0,1,18.672-1.272Zm10.5-5.088v.984A2.9,2.9,0,0,0,26.82-6.42a3.036,3.036,0,0,0-3.228,3.072A3.046,3.046,0,0,0,26.82-.264a2.91,2.91,0,0,0,2.292-.984v.5c0,1.44-.684,2.136-2.184,2.136A3.882,3.882,0,0,1,24.48.564l-.552.888a4.708,4.708,0,0,0,3.036.948c2.16,0,3.3-1.02,3.3-3.264v-5.5Zm-2.22,5.088a2.05,2.05,0,0,1-2.2-2.076,2.034,2.034,0,0,1,2.2-2.064,2.03,2.03,0,0,1,2.184,2.064A2.046,2.046,0,0,1,26.952-1.272ZM34.284.072c1.692,0,2.748-.732,2.748-1.884C37.032-4.284,33-3.06,33-4.56c0-.5.492-.876,1.5-.876a3.321,3.321,0,0,1,1.836.5l.492-.912a4.628,4.628,0,0,0-2.316-.576c-1.632,0-2.652.768-2.652,1.908,0,2.532,4.02,1.3,4.02,2.724,0,.54-.444.864-1.512.864a4.087,4.087,0,0,1-2.232-.66l-.48.912A4.59,4.59,0,0,0,34.284.072Zm7.4-1.272a1.451,1.451,0,0,1-.9.3.937.937,0,0,1-1-1.068V-5.412h1.824V-6.36H39.792V-7.752H38.64V-6.36H37.56v.948h1.08V-1.92A1.815,1.815,0,0,0,40.656.072a2.173,2.173,0,0,0,1.392-.444Zm7.284-1.944A3.067,3.067,0,0,0,45.828-6.42a3.115,3.115,0,0,0-3.192,3.24A3.184,3.184,0,0,0,46.056.072,3.192,3.192,0,0,0,48.564-.96L47.928-1.7a2.375,2.375,0,0,1-1.836.768,2.154,2.154,0,0,1-2.3-1.86h5.16C48.96-2.9,48.972-3.048,48.972-3.144Zm-3.144-2.3a1.983,1.983,0,0,1,2.04,1.824h-4.08A1.982,1.982,0,0,1,45.828-5.448Zm5.844.156V-6.36h-1.1V0H51.72V-3.168a1.9,1.9,0,0,1,2-2.148,2.034,2.034,0,0,1,.264.012V-6.42A2.428,2.428,0,0,0,51.672-5.292ZM62.16-8.4H58.884V0h1.2V-2.544H62.16c2.184,0,3.5-1.1,3.5-2.928S64.344-8.4,62.16-8.4Zm-.036,4.812h-2.04V-7.356h2.04c1.536,0,2.34.684,2.34,1.884S63.66-3.588,62.124-3.588ZM67.38,0h1.152V-8.9H67.38ZM75.5-6.36v3.288A1.872,1.872,0,0,1,73.536-.96c-1.092,0-1.716-.624-1.716-1.872V-6.36H70.668V-2.7A2.5,2.5,0,0,0,73.4.072,2.588,2.588,0,0,0,75.564-.96V0h1.092V-6.36ZM80.676.072c1.692,0,2.748-.732,2.748-1.884,0-2.472-4.032-1.248-4.032-2.748,0-.5.492-.876,1.5-.876a3.321,3.321,0,0,1,1.836.5l.492-.912A4.628,4.628,0,0,0,80.9-6.42c-1.632,0-2.652.768-2.652,1.908,0,2.532,4.02,1.3,4.02,2.724,0,.54-.444.864-1.512.864a4.087,4.087,0,0,1-2.232-.66l-.48.912A4.59,4.59,0,0,0,80.676.072Z" transform="translate(209 242)" fill="#fff"/>
    <path id="Path_38" data-name="Path 38" d="M3.708.1c2.22,0,3.252-1.1,3.252-2.388,0-3.084-5.088-1.8-5.088-3.852,0-.732.612-1.332,2.04-1.332a4.338,4.338,0,0,1,2.3.684l.4-.96a4.942,4.942,0,0,0-2.7-.744C1.7-8.5.7-7.392.7-6.1c0,3.12,5.088,1.824,5.088,3.876,0,.732-.624,1.3-2.076,1.3A4.323,4.323,0,0,1,.936-1.9L.492-.96A4.986,4.986,0,0,0,3.708.1Zm7.56-.024a3.164,3.164,0,0,0,3.3-3.252,3.155,3.155,0,0,0-3.3-3.24A3.165,3.165,0,0,0,7.956-3.18,3.174,3.174,0,0,0,11.268.072Zm0-1.008A2.106,2.106,0,0,1,9.12-3.18a2.1,2.1,0,0,1,2.148-2.232A2.087,2.087,0,0,1,13.4-3.18,2.1,2.1,0,0,1,11.268-.936ZM18.936.072A2.845,2.845,0,0,0,21.528-1.3l-.876-.552a1.983,1.983,0,0,1-1.728.912A2.107,2.107,0,0,1,16.74-3.18a2.111,2.111,0,0,1,2.184-2.232,1.983,1.983,0,0,1,1.728.912l.876-.564A2.836,2.836,0,0,0,18.936-6.42a3.178,3.178,0,0,0-3.36,3.24A3.187,3.187,0,0,0,18.936.072Zm4.656-7.656a.754.754,0,0,0,.78-.768.747.747,0,0,0-.78-.732.758.758,0,0,0-.78.756A.749.749,0,0,0,23.592-7.584ZM23.016,0h1.152V-6.36H23.016ZM28.68-6.42a4.235,4.235,0,0,0-2.628.816l.48.864a3.216,3.216,0,0,1,2.016-.684c1.14,0,1.7.564,1.7,1.536v.228H28.428c-1.9,0-2.556.84-2.556,1.86,0,1.1.912,1.872,2.352,1.872A2.361,2.361,0,0,0,30.312-.84V0H31.4V-3.84C31.4-5.58,30.42-6.42,28.68-6.42Zm-.264,5.6c-.876,0-1.4-.4-1.4-1.032,0-.54.324-.984,1.464-.984h1.776v.888A1.844,1.844,0,0,1,28.416-.816ZM33.54,0h1.152V-8.9H33.54ZM46.1-1.512a3.555,3.555,0,0,1-1.968.54A3.189,3.189,0,0,1,40.8-4.2a3.178,3.178,0,0,1,3.348-3.228,3.33,3.33,0,0,1,2.436.972l.744-.744A4.21,4.21,0,0,0,44.1-8.5a4.262,4.262,0,0,0-4.5,4.3A4.255,4.255,0,0,0,44.076.1a4.964,4.964,0,0,0,3.18-1.068V-4.248H46.1ZM51.7-6.42a4.235,4.235,0,0,0-2.628.816l.48.864a3.216,3.216,0,0,1,2.016-.684c1.14,0,1.7.564,1.7,1.536v.228H51.444c-1.9,0-2.556.84-2.556,1.86,0,1.1.912,1.872,2.352,1.872A2.361,2.361,0,0,0,53.328-.84V0H54.42V-3.84C54.42-5.58,53.436-6.42,51.7-6.42Zm-.264,5.6c-.876,0-1.4-.4-1.4-1.032,0-.54.324-.984,1.464-.984h1.776v.888A1.844,1.844,0,0,1,51.432-.816Zm13.08-5.6a2.866,2.866,0,0,0-2.448,1.176A2.354,2.354,0,0,0,59.856-6.42a2.578,2.578,0,0,0-2.2,1.008V-6.36h-1.1V0h1.152V-3.276a1.847,1.847,0,0,1,1.908-2.112c1.044,0,1.644.612,1.644,1.86V0h1.152V-3.276A1.847,1.847,0,0,1,64.32-5.388c1.044,0,1.644.612,1.644,1.86V0h1.152V-3.66A2.439,2.439,0,0,0,64.512-6.42Zm5.3-1.164a.754.754,0,0,0,.78-.768.747.747,0,0,0-.78-.732.758.758,0,0,0-.78.756A.749.749,0,0,0,69.816-7.584ZM69.24,0h1.152V-6.36H69.24Zm6.744-6.42A2.726,2.726,0,0,0,73.692-5.4v-.96h-1.1V0H73.74V-3.276a1.889,1.889,0,0,1,2.016-2.112c1.092,0,1.716.612,1.716,1.86V0h1.152V-3.66A2.464,2.464,0,0,0,75.984-6.42Zm9.8.06v.984A2.9,2.9,0,0,0,83.436-6.42a3.037,3.037,0,0,0-3.228,3.072A3.046,3.046,0,0,0,83.436-.264a2.91,2.91,0,0,0,2.292-.984v.5c0,1.44-.684,2.136-2.184,2.136A3.882,3.882,0,0,1,81.1.564l-.552.888A4.708,4.708,0,0,0,83.58,2.4c2.16,0,3.3-1.02,3.3-3.264v-5.5Zm-2.22,5.088a2.05,2.05,0,0,1-2.2-2.076,2.034,2.034,0,0,1,2.2-2.064,2.03,2.03,0,0,1,2.184,2.064A2.046,2.046,0,0,1,83.568-1.272Z" transform="translate(209 275)" fill="#fff"/>
    <path id="Path_39" data-name="Path 39" d="M11.988-8.4,9.672-1.536,7.356-8.4h-1.1L3.888-1.572,1.62-8.4H.384L3.192,0H4.476L6.768-6.708,9.06,0h1.26l2.808-8.4Zm3.024.816a.754.754,0,0,0,.78-.768.747.747,0,0,0-.78-.732.758.758,0,0,0-.78.756A.749.749,0,0,0,15.012-7.584ZM14.436,0h1.152V-6.36H14.436ZM21.18-6.42A2.726,2.726,0,0,0,18.888-5.4v-.96h-1.1V0h1.152V-3.276a1.889,1.889,0,0,1,2.016-2.112c1.092,0,1.716.612,1.716,1.86V0H23.82V-3.66A2.464,2.464,0,0,0,21.18-6.42ZM35.628,0h1.26L33.072-8.4H31.884L28.08,0h1.236l.924-2.1H34.7ZM30.66-3.06l1.812-4.116L34.284-3.06ZM43.032,0H44.22V-7.356H47.1V-8.4H40.152v1.044h2.88Zm6.156-5.292V-6.36h-1.1V0h1.152V-3.168a1.9,1.9,0,0,1,2-2.148A2.034,2.034,0,0,1,51.5-5.3V-6.42A2.428,2.428,0,0,0,49.188-5.292ZM53.5-7.584a.754.754,0,0,0,.78-.768.747.747,0,0,0-.78-.732.758.758,0,0,0-.78.756A.749.749,0,0,0,53.5-7.584ZM52.92,0h1.152V-6.36H52.92Zm6.72-6.42a2.709,2.709,0,0,0-2.268,1.068V-6.36h-1.1V2.328H57.42V-.96A2.716,2.716,0,0,0,59.64.072,3.09,3.09,0,0,0,62.856-3.18,3.087,3.087,0,0,0,59.64-6.42Zm-.1,5.484A2.1,2.1,0,0,1,57.408-3.18a2.1,2.1,0,0,1,2.136-2.232A2.1,2.1,0,0,1,61.692-3.18,2.106,2.106,0,0,1,59.544-.936Z" transform="translate(209 308)" fill="#fff"/>
    <line id="Line_15" data-name="Line 15" x2="147" transform="translate(192.5 90.5)" fill="none" stroke="#707070" stroke-width="1"/>
    <line id="Line_16" data-name="Line 16" x2="147" transform="translate(192.5 123.5)" fill="none" stroke="#707070" stroke-width="1"/>
    <line id="Line_17" data-name="Line 17" x2="147" transform="translate(192.5 156.5)" fill="none" stroke="#707070" stroke-width="1"/>
    <line id="Line_18" data-name="Line 18" x2="147" transform="translate(192.5 189.5)" fill="none" stroke="#707070" stroke-width="1"/>
    <line id="Line_19" data-name="Line 19" x2="147" transform="translate(192.5 222.5)" fill="none" stroke="#707070" stroke-width="1"/>
    <line id="Line_20" data-name="Line 20" x2="147" transform="translate(192.5 255.5)" fill="none" stroke="#707070" stroke-width="1"/>
    <line id="Line_21" data-name="Line 21" x2="147" transform="translate(192.5 288.5)" fill="none" stroke="#707070" stroke-width="1"/>
    <path id="Path_23" data-name="Path 23" d="M930.705,376.587h-3.083V373.5a.735.735,0,0,0-.782-.677h-1.384a.735.735,0,0,0-.782.677v3.083H921.59a.736.736,0,0,0-.677.782v1.384a.736.736,0,0,0,.677.782h3.084v3.083a.736.736,0,0,0,.782.678h1.384a.736.736,0,0,0,.782-.678v-3.083h3.083a.736.736,0,0,0,.677-.782V377.37A.735.735,0,0,0,930.705,376.587Z" transform="translate(-728.382 -304.297)" fill="#ab499b"/>
    <path id="Path_24" data-name="Path 24" d="M930.705,376.587h-3.083V373.5a.735.735,0,0,0-.782-.677h-1.384a.735.735,0,0,0-.782.677v3.083H921.59a.736.736,0,0,0-.677.782v1.384a.736.736,0,0,0,.677.782h3.084v3.083a.736.736,0,0,0,.782.678h1.384a.736.736,0,0,0,.782-.678v-3.083h3.083a.736.736,0,0,0,.677-.782V377.37A.735.735,0,0,0,930.705,376.587Z" transform="translate(-728.382 -270.827)" fill="#ab499b"/>
    <path id="Path_25" data-name="Path 25" d="M930.705,376.587h-3.083V373.5a.735.735,0,0,0-.782-.677h-1.384a.735.735,0,0,0-.782.677v3.083H921.59a.736.736,0,0,0-.677.782v1.384a.736.736,0,0,0,.677.782h3.084v3.083a.736.736,0,0,0,.782.678h1.384a.736.736,0,0,0,.782-.678v-3.083h3.083a.736.736,0,0,0,.677-.782V377.37A.735.735,0,0,0,930.705,376.587Z" transform="translate(-728.382 -237.827)" fill="#ab499b"/>
    <path id="Path_26" data-name="Path 26" d="M930.705,376.587h-3.083V373.5a.735.735,0,0,0-.782-.677h-1.384a.735.735,0,0,0-.782.677v3.083H921.59a.736.736,0,0,0-.677.782v1.384a.736.736,0,0,0,.677.782h3.084v3.083a.736.736,0,0,0,.782.678h1.384a.736.736,0,0,0,.782-.678v-3.083h3.083a.736.736,0,0,0,.677-.782V377.37A.735.735,0,0,0,930.705,376.587Z" transform="translate(-728.382 -204.827)" fill="#ab499b"/>
    <path id="Path_27" data-name="Path 27" d="M930.705,376.587h-3.083V373.5a.735.735,0,0,0-.782-.677h-1.384a.735.735,0,0,0-.782.677v3.083H921.59a.736.736,0,0,0-.677.782v1.384a.736.736,0,0,0,.677.782h3.084v3.083a.736.736,0,0,0,.782.678h1.384a.736.736,0,0,0,.782-.678v-3.083h3.083a.736.736,0,0,0,.677-.782V377.37A.735.735,0,0,0,930.705,376.587Z" transform="translate(-728.382 -171.827)" fill="#ab499b"/>
    <path id="Path_28" data-name="Path 28" d="M930.705,376.587h-3.083V373.5a.735.735,0,0,0-.782-.677h-1.384a.735.735,0,0,0-.782.677v3.083H921.59a.736.736,0,0,0-.677.782v1.384a.736.736,0,0,0,.677.782h3.084v3.083a.736.736,0,0,0,.782.678h1.384a.736.736,0,0,0,.782-.678v-3.083h3.083a.736.736,0,0,0,.677-.782V377.37A.735.735,0,0,0,930.705,376.587Z" transform="translate(-728.382 -139.297)" fill="#ab499b"/>
    <path id="Path_29" data-name="Path 29" d="M930.705,376.587h-3.083V373.5a.735.735,0,0,0-.782-.677h-1.384a.735.735,0,0,0-.782.677v3.083H921.59a.736.736,0,0,0-.677.782v1.384a.736.736,0,0,0,.677.782h3.084v3.083a.736.736,0,0,0,.782.678h1.384a.736.736,0,0,0,.782-.678v-3.083h3.083a.736.736,0,0,0,.677-.782V377.37A.735.735,0,0,0,930.705,376.587Z" transform="translate(-728.382 -106.789)" fill="#ab499b"/>
    <path id="Path_30" data-name="Path 30" d="M930.705,376.587h-3.083V373.5a.735.735,0,0,0-.782-.677h-1.384a.735.735,0,0,0-.782.677v3.083H921.59a.736.736,0,0,0-.677.782v1.384a.736.736,0,0,0,.677.782h3.084v3.083a.736.736,0,0,0,.782.678h1.384a.736.736,0,0,0,.782-.678v-3.083h3.083a.736.736,0,0,0,.677-.782V377.37A.735.735,0,0,0,930.705,376.587Z" transform="translate(-728.382 -73.789)" fill="#ab499b"/>
  </g>
</svg>
