<svg xmlns="http://www.w3.org/2000/svg" width="337.778" height="51.588" viewBox="0 0 337.778 51.588">
  <g id="Group_5" data-name="Group 5" transform="translate(-196.46 -372.827)">
    <g id="Group_1" data-name="Group 1" transform="translate(503.248 372.827)">
      <path id="Path_1" data-name="Path 1" d="M949.9,383.957h-9.127V374.83a2.176,2.176,0,0,0-2.315-2h-4.1a2.176,2.176,0,0,0-2.314,2v9.127h-9.128a2.178,2.178,0,0,0-2.005,2.316v4.1a2.178,2.178,0,0,0,2.005,2.316h9.128v9.127a2.178,2.178,0,0,0,2.314,2.006h4.1a2.178,2.178,0,0,0,2.315-2.006v-9.127H949.9a2.177,2.177,0,0,0,2-2.316v-4.1A2.177,2.177,0,0,0,949.9,383.957Z" transform="translate(-920.913 -372.827)"/>
    </g>
    <g id="Group_4" data-name="Group 4" transform="translate(196.46 382.732)">
      <path id="Path_2" data-name="Path 2" d="M229.561,398.219h-5.721a.573.573,0,0,0-.46.2,3.479,3.479,0,0,0-.339.481l-8.558,14.038a2.714,2.714,0,0,1-.283.4.762.762,0,0,1-.622.284h-.056a.964.964,0,0,1-.651-.226,1.632,1.632,0,0,1-.311-.339l-8.629-14.2a1.321,1.321,0,0,0-.368-.424.744.744,0,0,0-.424-.2h-5.658a.979.979,0,0,0-.707.312,1.04,1.04,0,0,0-.312.763v21.9a1.066,1.066,0,0,0,1.019,1.017h5.531a.961.961,0,0,0,.707-.283A1.033,1.033,0,0,0,204,421.2v-7.014c0-.338.071-.509.226-.509.184,0,.354.171.509.509l6.146,8.675a2.551,2.551,0,0,0,.827.706,3.744,3.744,0,0,0,1.414.171h.962a2.461,2.461,0,0,0,1.216-.227,4.148,4.148,0,0,0,.92-.955c.644-.868,1.648-2.267,3.027-4.188s2.377-3.335,2.978-4.24c.226-.268.361-.394.509-.394s.227.169.227.507v22.417a1.006,1.006,0,0,0,.283.706.927.927,0,0,0,.707.282h5.581a.926.926,0,0,0,.707-.282.972.972,0,0,0,.283-.706V399.293a1.072,1.072,0,0,0-.283-.764A.9.9,0,0,0,229.561,398.219Z" transform="translate(-196.46 -397.37)" fill-rule="evenodd"/>
      <path id="Path_3" data-name="Path 3" d="M309.975,397.82h-5.658a1.069,1.069,0,0,0-.707.311.987.987,0,0,0-.34.762v37.592a.944.944,0,0,0,.311.706,1.007,1.007,0,0,0,.771.312h5.659a.948.948,0,0,0,.707-.312,1.024,1.024,0,0,0,.283-.706V398.893a1.014,1.014,0,0,0-.318-.762A.965.965,0,0,0,309.975,397.82Z" transform="translate(-258.038 -397.141)" fill-rule="evenodd"/>
      <path id="Path_4" data-name="Path 4" d="M382.893,415.461a4.043,4.043,0,0,0-2.122-.452H368.7a1.159,1.159,0,0,0-1.132,1.13v4.154a1.158,1.158,0,0,0,1.132,1.136h7.313a13.716,13.716,0,0,1-4.59,6.254,11.72,11.72,0,0,1-7.257,2.352,12.9,12.9,0,0,1-6.634-1.787,13.231,13.231,0,0,1,0-22.925,12.962,12.962,0,0,1,6.634-1.787l1.471.056h.013a1.018,1.018,0,0,0,1.119-.906l.913-4.944a1.114,1.114,0,0,0-.17-.905,1.09,1.09,0,0,0-.8-.452,18.96,18.96,0,0,0-2.546-.17,20.55,20.55,0,0,0-10.348,38.356,20.261,20.261,0,0,0,10.348,2.748,18.662,18.662,0,0,0,10-2.748,19.079,19.079,0,0,0,6.946-7.447,21.737,21.737,0,0,0,2.489-10.357A1.41,1.41,0,0,0,382.893,415.461Z" transform="translate(-281.241 -396.216)" fill-rule="evenodd"/>
      <path id="Path_5" data-name="Path 5" d="M493.442,416.826a4.1,4.1,0,0,0-2.122-.452H479.247a1.159,1.159,0,0,0-1.131,1.13v4.155a1.158,1.158,0,0,0,1.131,1.136h7.313a13.708,13.708,0,0,1-4.59,6.253,11.717,11.717,0,0,1-7.257,2.353,12.9,12.9,0,0,1-6.634-1.788,13.232,13.232,0,0,1,0-22.925,12.971,12.971,0,0,1,6.634-1.787l1.471.055h.007a1.022,1.022,0,0,0,1.132-.9l.906-4.944a1.147,1.147,0,0,0,.031-.181,1.089,1.089,0,0,0-.993-1.176,19.014,19.014,0,0,0-2.554-.171,20.55,20.55,0,0,0-10.347,38.356,20.291,20.291,0,0,0,10.34,2.748,18.638,18.638,0,0,0,10-2.748,19.067,19.067,0,0,0,6.945-7.447,21.738,21.738,0,0,0,2.5-10.357A1.445,1.445,0,0,0,493.442,416.826Z" transform="translate(-344.976 -397.002)" fill-rule="evenodd"/>
      <g id="Group_2" data-name="Group 2" transform="translate(157.287 1.127)">
        <path id="Path_6" data-name="Path 6" d="M571.386,475.888a.705.705,0,0,0,.4-.4l1.337-3.787a.6.6,0,0,0,0-.4.753.753,0,0,0-.255-.284l-2.27-.905c-.34-.182-.6-.147-.792.114-.6,1.053-1.075,1.845-1.414,2.467a3.462,3.462,0,0,0-.509,1.271.747.747,0,0,0,.283.452,11.917,11.917,0,0,0,2.6,1.412A.756.756,0,0,0,571.386,475.888Z" transform="translate(-567.878 -439.882)"/>
        <path id="Path_7" data-name="Path 7" d="M593.485,418.726a52.126,52.126,0,0,0-6.21-2.565c-1.1-.374-2.426-.931-4-1.639a30.785,30.785,0,0,1-3.148-1.589,3.522,3.522,0,0,1-1.98-2.939,3.287,3.287,0,0,1,.877-2.12,7.075,7.075,0,0,1,2.4-1.78,11.924,11.924,0,0,1,4.364-.791,14.189,14.189,0,0,1,3.968.567,17.63,17.63,0,0,1,4.024,1.75,1.11,1.11,0,0,0,.566.171.708.708,0,0,0,.516-.171l.707-.96a25.469,25.469,0,0,0,1.924-2.947c.042-.077,0-.2-.113-.4a1.834,1.834,0,0,0-.453-.508,17.235,17.235,0,0,0-3.289-2.211,17.952,17.952,0,0,0-4.533-1.356,24.629,24.629,0,0,0-5.326-.34,16.646,16.646,0,0,0-6.634,2.062,13.1,13.1,0,0,0-4.505,4.162,9.285,9.285,0,0,0,0,10.42,9.892,9.892,0,0,0,4,3.144,67.808,67.808,0,0,0,7,2.741,44.9,44.9,0,0,1,4.477,1.646,5.894,5.894,0,0,1,2.264,1.527,4.741,4.741,0,0,1,.969,2.776,3.872,3.872,0,0,1-1.79,3.229,7.63,7.63,0,0,1-4.619,1.3l-2.376-.056c-.024,0-.048-.006-.072-.007a.962.962,0,0,0-1.01.91,9.337,9.337,0,0,0-.17,1.1c-.036.4-.071.749-.113,1.052l-.226,1.639a.831.831,0,0,0,.113.764,1.2,1.2,0,0,0,.8.31,13.966,13.966,0,0,0,2.32.227,18.093,18.093,0,0,0,7.313-1.414,11.464,11.464,0,0,0,4.9-3.822,10.585,10.585,0,0,0,.453-10.844A8.888,8.888,0,0,0,593.485,418.726Z" transform="translate(-569.706 -398.878)"/>
      </g>
      <path id="Path_8" data-name="Path 8" d="M678.881,398.085H654.126a.712.712,0,0,0-.509.226.767.767,0,0,0-.227.567v5.262a.764.764,0,0,0,.227.565.715.715,0,0,0,.509.234h3.232a1.341,1.341,0,0,1,.962.366,1.2,1.2,0,0,1,.4.933v30.569a.641.641,0,0,0,.707.735h6.74a.7.7,0,0,0,.509-.2.656.656,0,0,0,.227-.537V406.238a1.23,1.23,0,0,1,.4-.905,1.275,1.275,0,0,1,.962-.394h10.609a.706.706,0,0,0,.516-.234.765.765,0,0,0,.227-.565v-5.262a.768.768,0,0,0-.227-.567A.707.707,0,0,0,678.881,398.085Z" transform="translate(-459.891 -397.293)" fill-rule="evenodd"/>
      <path id="Path_9" data-name="Path 9" d="M847.291,421.55a2.258,2.258,0,0,1-.057-.574.7.7,0,0,1,.34-.565,12.56,12.56,0,0,0,3.657-4.359,12.387,12.387,0,0,0-.4-11.89,12.926,12.926,0,0,0-4.674-4.585,12.744,12.744,0,0,0-6.465-1.7H827.96a1.034,1.034,0,0,0-.764.255,1,1,0,0,0-.31.762v9.114a1.412,1.412,0,0,0,.424,1,1.36,1.36,0,0,0,.991.422h3.741a1.319,1.319,0,0,0,1.019-.422,1.417,1.417,0,0,0,.4-1V406.6a1.34,1.34,0,0,1,.431-.989,1.411,1.411,0,0,1,1.046-.423h4.76a5.258,5.258,0,0,1,3.826,1.527,5.034,5.034,0,0,1,1.556,3.737,4.94,4.94,0,0,1-1.556,3.68,5.266,5.266,0,0,1-3.826,1.555H827.96c-.021,0-.042,0-.065,0a1.059,1.059,0,0,0-1.038,1.081v19.781a.914.914,0,0,0,.311.706,1.066,1.066,0,0,0,.792.255h4.421a1.07,1.07,0,0,0,.764-.283.92.92,0,0,0,.311-.706V424.064a.84.84,0,0,1,.375-.819,2.18,2.18,0,0,1,1.047-.2h4.817a3.5,3.5,0,0,1,1.132.112.884.884,0,0,1,.453.451l5.9,13.248a1,1,0,0,0,.538.565,2.817,2.817,0,0,0,.933.113H853.3c.53,0,.793-.206.793-.622a1.474,1.474,0,0,0-.227-.706Z" transform="translate(-559.899 -397.174)" fill-rule="evenodd"/>
      <g id="Group_3" data-name="Group 3" transform="translate(228.927 0.763)">
        <path id="Path_10" data-name="Path 10" d="M743.594,425.344a.978.978,0,0,0-.707-.281h-4.816a1.02,1.02,0,0,0-.708.281.934.934,0,0,0-.311.708v26.14a.94.94,0,0,0,.311.706.951.951,0,0,0,.708.262h26.388a.941.941,0,0,0,.708-.31,1.037,1.037,0,0,0,.283-.706v-4.868a1.021,1.021,0,0,0-.283-.708,1,1,0,0,0-.708-.281h-19.5a1.02,1.02,0,0,1-.707-.34,1.031,1.031,0,0,1-.339-.706v-6.167c0-.791.431-1.188,1.3-1.188h14.421a.955.955,0,0,0,.707-.253.838.838,0,0,0,.29-.651v-4.875a.837.837,0,0,0-.29-.65.96.96,0,0,0-.707-.253h-14.28c-.984,0-1.471-.368-1.471-1.074v-4.077A.991.991,0,0,0,743.594,425.344Z" transform="translate(-737.051 -413.61)"/>
        <path id="Path_11" data-name="Path 11" d="M764.366,398.019h-26.3a1.012,1.012,0,0,0-.707.282.93.93,0,0,0-.311.706v4.868a1.007,1.007,0,0,0,.311.764.963.963,0,0,0,.707.317h26.3a1,1,0,0,0,.771-.346,1.081,1.081,0,0,0,.312-.706v-4.87a.984.984,0,0,0-.312-.706A1.071,1.071,0,0,0,764.366,398.019Z" transform="translate(-737.05 -398.019)"/>
      </g>
    </g>
  </g>
</svg>
