<svg xmlns="http://www.w3.org/2000/svg" width="300" height="135.604" viewBox="0 0 300 135.604">
  <g id="Group_29" data-name="Group 29" transform="translate(-30 -1173.548)">
    <path id="Path_23" data-name="Path 23" d="M20,11.1a3.152,3.152,0,0,0,1.786-2.964c0-2.147-1.71-3.439-4.769-3.439H11.053V18H17.4c3.363,0,5.092-1.311,5.092-3.591A3.214,3.214,0,0,0,20,11.1ZM16.848,6.239c1.938,0,3.04.722,3.04,2.128s-1.1,2.128-3.04,2.128h-3.9V6.239Zm.475,10.222h-4.37V12.034h4.37c2.109,0,3.249.684,3.249,2.223S19.432,16.461,17.323,16.461ZM35.373,18h1.995L31.326,4.7H29.445L23.422,18h1.957l1.463-3.325H33.91Zm-7.866-4.845,2.869-6.517,2.869,6.517Zm17.594,5a6.6,6.6,0,0,0,5.073-2.09l-1.235-1.2a4.946,4.946,0,0,1-3.743,1.6,5.024,5.024,0,0,1-5.225-5.111A5.024,5.024,0,0,1,45.2,6.239a4.928,4.928,0,0,1,3.743,1.577l1.235-1.2A6.572,6.572,0,0,0,45.12,4.548a6.728,6.728,0,0,0-7.049,6.8A6.723,6.723,0,0,0,45.1,18.152ZM62.315,18h2.223L58.5,10.685,64.177,4.7H62.011l-7.22,7.429V4.7h-1.9V18h1.9V14.561l2.432-2.47ZM74.3,18h1.881V6.353h4.56V4.7h-11V6.353H74.3Zm14.326.152a6.739,6.739,0,0,0,7.049-6.8,7.073,7.073,0,0,0-14.136,0A6.76,6.76,0,0,0,88.63,18.152Zm0-1.691a5,5,0,0,1-5.187-5.111,5.168,5.168,0,0,1,10.336,0A4.994,4.994,0,0,1,88.63,16.461ZM108.884,4.7H103.7V18h1.9V13.972h3.287c3.458,0,5.548-1.748,5.548-4.636S112.342,4.7,108.884,4.7Zm-.057,7.619H105.6V6.353h3.23c2.432,0,3.705,1.083,3.705,2.983S111.259,12.319,108.827,12.319ZM128.188,18l-3.154-4.465a4.2,4.2,0,0,0,2.926-4.2c0-2.888-2.09-4.636-5.548-4.636h-5.187V18h1.9V13.953h3.287c.285,0,.57-.019.836-.038L126.117,18Zm-5.833-5.662h-3.23V6.353h3.23c2.432,0,3.705,1.083,3.705,2.983S124.787,12.338,122.355,12.338Zm10.583,4.009V12.053h6.669V10.438h-6.669V6.353h7.486V4.7h-9.386V18h9.652V16.347ZM153.23,4.7,148.4,15.625,143.616,4.7h-2.052L147.416,18H149.3L155.13,4.7ZM156.821,18h1.9V4.7h-1.9Zm11.894.152a6.739,6.739,0,0,0,7.049-6.8,7.073,7.073,0,0,0-14.136,0A6.76,6.76,0,0,0,168.715,18.152Zm0-1.691a5,5,0,0,1-5.187-5.111,5.168,5.168,0,0,1,10.336,0A4.994,4.994,0,0,1,168.715,16.461Zm15.466,1.691c3.515,0,5.624-2.033,5.624-5.89V4.7h-1.843v7.486c0,2.945-1.368,4.275-3.762,4.275s-3.743-1.33-3.743-4.275V4.7h-1.9v7.562C178.557,16.119,180.685,18.152,184.181,18.152Zm13.4,0c3.515,0,5.149-1.748,5.149-3.781,0-4.883-8.056-2.85-8.056-6.1,0-1.159.969-2.109,3.23-2.109a6.869,6.869,0,0,1,3.648,1.083l.627-1.52A7.825,7.825,0,0,0,197.9,4.548c-3.5,0-5.092,1.748-5.092,3.8,0,4.94,8.056,2.888,8.056,6.137,0,1.159-.988,2.052-3.287,2.052A6.845,6.845,0,0,1,193.187,15l-.7,1.482A7.9,7.9,0,0,0,197.576,18.152ZM220.547,18h1.995L216.5,4.7h-1.881L208.6,18h1.957l1.463-3.325h7.068Zm-7.866-4.845,2.869-6.517,2.869,6.517ZM235.481,18l-3.154-4.465a4.2,4.2,0,0,0,2.926-4.2c0-2.888-2.09-4.636-5.548-4.636h-5.187V18h1.9V13.953h3.287c.285,0,.57-.019.836-.038L233.41,18Zm-5.833-5.662h-3.23V6.353h3.23c2.432,0,3.705,1.083,3.705,2.983S232.08,12.338,229.648,12.338ZM240.782,18h1.881V6.353h4.56V4.7h-11V6.353h4.56Zm8.512,0h1.9V4.7h-1.9Zm11.837.152a6.6,6.6,0,0,0,5.073-2.09l-1.235-1.2a4.946,4.946,0,0,1-3.743,1.6A5.024,5.024,0,0,1,256,11.35a5.024,5.024,0,0,1,5.225-5.111,4.928,4.928,0,0,1,3.743,1.577l1.235-1.2a6.572,6.572,0,0,0-5.054-2.071,6.728,6.728,0,0,0-7.049,6.8A6.723,6.723,0,0,0,261.131,18.152Zm7.79-.152h9.1V16.347h-7.2V4.7h-1.9Zm13.186-1.653V12.053h6.669V10.438h-6.669V6.353h7.486V4.7h-9.386V18h9.652V16.347Z" transform="translate(30 1169)" fill="#fff"/>
    <path id="Path_24" data-name="Path 24" d="M57.917,15.606a5.629,5.629,0,0,1-3.116.855,5.049,5.049,0,0,1-5.282-5.111,5.033,5.033,0,0,1,5.3-5.111,5.273,5.273,0,0,1,3.857,1.539L59.855,6.6a6.666,6.666,0,0,0-5.111-2.052c-4.123,0-7.125,2.869-7.125,6.8a6.738,6.738,0,0,0,7.087,6.8,7.86,7.86,0,0,0,5.035-1.691V11.274H57.917Zm11.457,2.546a6.739,6.739,0,0,0,7.049-6.8,7.073,7.073,0,0,0-14.136,0A6.76,6.76,0,0,0,69.374,18.152Zm0-1.691a5,5,0,0,1-5.187-5.111,5.168,5.168,0,0,1,10.336,0A4.994,4.994,0,0,1,69.374,16.461ZM87.082,18h1.881V6.353h4.56V4.7h-11V6.353h4.56Zm14.326.152a6.739,6.739,0,0,0,7.049-6.8,7.073,7.073,0,0,0-14.136,0A6.76,6.76,0,0,0,101.408,18.152Zm0-1.691a5,5,0,0,1-5.187-5.111,5.168,5.168,0,0,1,10.336,0A4.994,4.994,0,0,1,101.408,16.461ZM126.013,4.7v9.918L118.033,4.7h-1.558V18h1.9V8.082L126.355,18h1.558V4.7Zm7.79,11.647V12.053h6.669V10.438H133.8V6.353h7.486V4.7H131.9V18h9.652V16.347ZM155.026,18l-5.035-6.878L154.684,4.7h-2.071l-3.686,5.111L145.2,4.7h-2.166l4.693,6.479-5,6.821h2.185l3.933-5.491L152.84,18Zm4.313,0h1.881V6.353h4.56V4.7h-11V6.353h4.56Zm23.56,0h1.995L178.852,4.7h-1.881L170.948,18H172.9l1.463-3.325h7.068Zm-7.866-4.845L177.9,6.638l2.869,6.517ZM197.833,18l-3.154-4.465a4.2,4.2,0,0,0,2.926-4.2c0-2.888-2.09-4.636-5.548-4.636H186.87V18h1.9V13.953h3.287c.285,0,.57-.019.836-.038L195.762,18ZM192,12.338h-3.23V6.353H192c2.432,0,3.705,1.083,3.705,2.983S194.432,12.338,192,12.338ZM203.133,18h1.881V6.353h4.56V4.7h-11V6.353h4.56Zm8.512,0h1.9V4.7h-1.9Zm11.837.152a6.6,6.6,0,0,0,5.073-2.09l-1.235-1.2a4.946,4.946,0,0,1-3.743,1.6,5.024,5.024,0,0,1-5.225-5.111,5.024,5.024,0,0,1,5.225-5.111,4.928,4.928,0,0,1,3.743,1.577l1.235-1.2A6.572,6.572,0,0,0,223.5,4.548a6.728,6.728,0,0,0-7.049,6.8A6.723,6.723,0,0,0,223.482,18.152Zm7.79-.152h9.1V16.347h-7.2V4.7h-1.9Zm13.186-1.653V12.053h6.669V10.438h-6.669V6.353h7.486V4.7h-9.386V18h9.652V16.347Z" transform="translate(30 1230)" fill="#fff"/>
    <path id="Path_27" data-name="Path 27" d="M44.313,15.606a5.629,5.629,0,0,1-3.116.855,5.049,5.049,0,0,1-5.282-5.111,5.033,5.033,0,0,1,5.3-5.111,5.273,5.273,0,0,1,3.857,1.539L46.25,6.6a6.666,6.666,0,0,0-5.111-2.052c-4.123,0-7.125,2.869-7.125,6.8a6.738,6.738,0,0,0,7.087,6.8,7.86,7.86,0,0,0,5.035-1.691V11.274H44.313ZM55.77,18.152a6.739,6.739,0,0,0,7.049-6.8,6.739,6.739,0,0,0-7.049-6.8,6.808,6.808,0,1,0,0,13.6Zm0-1.691a5,5,0,0,1-5.187-5.111,5.168,5.168,0,0,1,10.336,0A4.994,4.994,0,0,1,55.77,16.461ZM73.478,18h1.881V6.353h4.56V4.7h-11V6.353h4.56Zm14.326.152a6.739,6.739,0,0,0,7.049-6.8,7.073,7.073,0,0,0-14.136,0A6.76,6.76,0,0,0,87.8,18.152Zm0-1.691a5,5,0,0,1-5.187-5.111,5.168,5.168,0,0,1,10.336,0A4.994,4.994,0,0,1,87.8,16.461Zm21.014,1.691a6.6,6.6,0,0,0,5.073-2.09l-1.235-1.2a4.946,4.946,0,0,1-3.743,1.6,5.024,5.024,0,0,1-5.225-5.111,5.024,5.024,0,0,1,5.225-5.111,4.928,4.928,0,0,1,3.743,1.577l1.235-1.2a6.572,6.572,0,0,0-5.054-2.071,6.728,6.728,0,0,0-7.049,6.8A6.723,6.723,0,0,0,108.818,18.152Zm13.509,0a6.739,6.739,0,0,0,7.049-6.8,7.073,7.073,0,0,0-14.136,0A6.76,6.76,0,0,0,122.326,18.152Zm0-1.691a5,5,0,0,1-5.187-5.111,5.168,5.168,0,0,1,10.336,0A4.994,4.994,0,0,1,122.326,16.461ZM141.821,4.7v9.918L133.84,4.7h-1.558V18h1.9V8.082L142.163,18h1.558V4.7ZM150.352,18h1.881V6.353h4.56V4.7h-11V6.353h4.56Zm10.412-1.653V12.053h6.669V10.438h-6.669V6.353h7.486V4.7h-9.386V18h9.652V16.347ZM181.132,4.7v9.918L173.152,4.7h-1.558V18h1.9V8.082L181.474,18h1.558V4.7ZM189.662,18h1.881V6.353h4.56V4.7h-11V6.353h4.56Zm12.217.152c3.515,0,5.149-1.748,5.149-3.781,0-4.883-8.056-2.85-8.056-6.1,0-1.159.969-2.109,3.23-2.109a6.869,6.869,0,0,1,3.648,1.083l.627-1.52A7.825,7.825,0,0,0,202.2,4.548c-3.5,0-5.092,1.748-5.092,3.8,0,4.94,8.056,2.888,8.056,6.137,0,1.159-.988,2.052-3.287,2.052A6.845,6.845,0,0,1,197.491,15l-.7,1.482A7.9,7.9,0,0,0,201.88,18.152ZM220.1,4.7h-5.187V18h1.9V13.972H220.1c3.458,0,5.548-1.748,5.548-4.636S223.558,4.7,220.1,4.7Zm-.057,7.619h-3.23V6.353h3.23c2.432,0,3.705,1.083,3.705,2.983S222.475,12.319,220.043,12.319ZM237.714,18h1.995L233.666,4.7h-1.881L225.762,18h1.957l1.463-3.325h7.068Zm-7.866-4.845,2.869-6.517,2.869,6.517Zm20.862,2.451a5.629,5.629,0,0,1-3.116.855,5.049,5.049,0,0,1-5.282-5.111,5.033,5.033,0,0,1,5.3-5.111,5.273,5.273,0,0,1,3.857,1.539L252.648,6.6a6.666,6.666,0,0,0-5.111-2.052c-4.123,0-7.125,2.869-7.125,6.8a6.738,6.738,0,0,0,7.087,6.8,7.86,7.86,0,0,0,5.035-1.691V11.274H250.71Zm7.353.741V12.053h6.669V10.438h-6.669V6.353h7.486V4.7h-9.386V18h9.652V16.347Z" transform="translate(30 1291)" fill="#fff"/>
    <path id="Path_25" data-name="Path 25" d="M0,0H300" transform="translate(30 1210)" fill="none" stroke="#fff" stroke-width="1"/>
    <path id="Path_26" data-name="Path 26" d="M0,0H300" transform="translate(30 1271)" fill="none" stroke="#fff" stroke-width="1"/>
  </g>
</svg>
