<svg xmlns="http://www.w3.org/2000/svg" width="38.042" height="38.044" viewBox="0 0 38.042 38.044">
  <path id="Path_21" data-name="Path 21" d="M956.5,386.491h-11.2v-11.2a2.671,2.671,0,0,0-2.842-2.46h-5.03a2.671,2.671,0,0,0-2.841,2.46v11.2H923.375a2.673,2.673,0,0,0-2.461,2.843v5.028a2.674,2.674,0,0,0,2.461,2.843H934.58v11.2a2.673,2.673,0,0,0,2.841,2.462h5.03a2.674,2.674,0,0,0,2.842-2.462V397.2h11.2a2.673,2.673,0,0,0,2.46-2.843v-5.028A2.672,2.672,0,0,0,956.5,386.491Z" transform="translate(-920.913 -372.827)" fill="#ab499b"/>
</svg>
