<svg xmlns="http://www.w3.org/2000/svg" width="190.806" height="77.91" viewBox="0 0 190.806 77.91">
  <path id="Path_25" data-name="Path 25" d="M21.658-45.766a17,17,0,0,1,7.4-5.782,27.462,27.462,0,0,1,10.731-1.96V-39.4q-2.548-.2-3.43-.2-6.566,0-10.29,3.675T22.344-24.892V0H7.056V-52.724h14.6ZM48.9-52.724H64.19V0H48.9Zm7.644-7.35a9.7,9.7,0,0,1-6.86-2.45A7.946,7.946,0,0,1,47.04-68.6a7.946,7.946,0,0,1,2.646-6.076,9.7,9.7,0,0,1,6.86-2.45,9.94,9.94,0,0,1,6.86,2.352,7.541,7.541,0,0,1,2.646,5.88,8.322,8.322,0,0,1-2.646,6.321A9.584,9.584,0,0,1,56.546-60.074ZM132.1-72.716V0H117.5V-6.076Q111.818.784,101.038.784A27.378,27.378,0,0,1,87.563-2.548a23.858,23.858,0,0,1-9.457-9.506,28.977,28.977,0,0,1-3.43-14.308,28.977,28.977,0,0,1,3.43-14.308,23.858,23.858,0,0,1,9.457-9.506,27.378,27.378,0,0,1,13.475-3.332q10.094,0,15.778,6.37V-72.716ZM103.684-11.76a12.775,12.775,0,0,0,9.6-3.969q3.822-3.969,3.822-10.633t-3.822-10.633a12.775,12.775,0,0,0-9.6-3.969,12.891,12.891,0,0,0-9.7,3.969Q90.16-33.026,90.16-26.362t3.822,10.633A12.891,12.891,0,0,0,103.684-11.76Zm94.178-14.406q0,.294-.294,4.116H157.682a12.422,12.422,0,0,0,5.1,7.742,16.879,16.879,0,0,0,10,2.842,20.241,20.241,0,0,0,7.3-1.225A17.684,17.684,0,0,0,186-16.562l8.134,8.82Q186.69.784,172.382.784A34.416,34.416,0,0,1,156.6-2.695a25.5,25.5,0,0,1-10.584-9.653A26.6,26.6,0,0,1,142.3-26.362a26.943,26.943,0,0,1,3.675-13.965,25.746,25.746,0,0,1,10.094-9.7,29.637,29.637,0,0,1,14.357-3.479,29.4,29.4,0,0,1,14.014,3.332,24.32,24.32,0,0,1,9.849,9.555A28.492,28.492,0,0,1,197.862-26.166ZM170.52-41.944A13.166,13.166,0,0,0,161.8-39a12.516,12.516,0,0,0-4.312,8.036h25.97a12.641,12.641,0,0,0-4.312-7.987A12.888,12.888,0,0,0,170.52-41.944Z" transform="translate(-7.056 77.126)"/>
</svg>
