<svg xmlns="http://www.w3.org/2000/svg" width="68.388" height="22.714" viewBox="0 0 68.388 22.714">
  <path id="Path_33" data-name="Path 33" d="M-28.023-19.147a7.112,7.112,0,0,1,3.1-2.419,11.489,11.489,0,0,1,4.49-.82v5.9q-1.066-.082-1.435-.082a5.863,5.863,0,0,0-4.3,1.538,6.214,6.214,0,0,0-1.558,4.612V0h-6.4V-22.058h6.109ZM5.761-22.058V0H-.308V-2.624A8.483,8.483,0,0,1-3.341-.431,9.545,9.545,0,0,1-7.155.328a9.394,9.394,0,0,1-6.888-2.5q-2.542-2.5-2.542-7.421V-22.058h6.4v11.521q0,5.33,4.469,5.33A4.8,4.8,0,0,0-2.03-6.7,6.313,6.313,0,0,0-.635-11.152V-22.058Zm19.352-.328a9.077,9.077,0,0,1,6.622,2.46q2.521,2.46,2.521,7.3V0h-6.4V-11.644a5.75,5.75,0,0,0-1.148-3.915,4.21,4.21,0,0,0-3.321-1.292,5.09,5.09,0,0,0-3.854,1.5A6.2,6.2,0,0,0,18.1-10.906V0h-6.4V-22.058h6.109v2.583a8.482,8.482,0,0,1,3.157-2.152A11,11,0,0,1,25.113-22.386Z" transform="translate(34.133 22.386)"/>
</svg>
