<svg xmlns="http://www.w3.org/2000/svg" width="163.464" height="54.292" viewBox="0 0 163.464 54.292">
  <path id="Path_31" data-name="Path 31" d="M21.658-45.766a17,17,0,0,1,7.4-5.782,27.462,27.462,0,0,1,10.731-1.96V-39.4q-2.548-.2-3.43-.2-6.566,0-10.29,3.675T22.344-24.892V0H7.056V-52.724h14.6Zm80.752-6.958V0h-14.5V-6.272a20.276,20.276,0,0,1-7.252,5.243A22.814,22.814,0,0,1,71.54.784q-10.388,0-16.464-5.978T49-22.932V-52.724H64.288v27.538q0,12.74,10.682,12.74a11.484,11.484,0,0,0,8.82-3.577q3.332-3.577,3.332-10.633V-52.724Zm46.256-.784q9.8,0,15.827,5.88t6.027,17.444V0H155.232V-27.832q0-6.272-2.744-9.359t-7.938-3.087a12.166,12.166,0,0,0-9.212,3.577q-3.43,3.577-3.43,10.633V0H116.62V-52.724h14.6v6.174a20.274,20.274,0,0,1,7.546-5.145A26.291,26.291,0,0,1,148.666-53.508Z" transform="translate(-7.056 53.508)" fill="#fff"/>
</svg>
