<svg xmlns="http://www.w3.org/2000/svg" width="99.794" height="38.704" viewBox="0 0 99.794 38.704">
  <path id="Path_31" data-name="Path 31" d="M-40.59.328a21.427,21.427,0,0,1-5.371-.677,14.033,14.033,0,0,1-4.182-1.7l2.132-4.592A13.418,13.418,0,0,0-44.444-5.1a14.95,14.95,0,0,0,4.1.595q4.059,0,4.059-2.009a1.422,1.422,0,0,0-1.107-1.353,16.4,16.4,0,0,0-3.4-.7,32.829,32.829,0,0,1-4.469-.943A6.933,6.933,0,0,1-48.319-11.4a5.363,5.363,0,0,1-1.292-3.854,6.037,6.037,0,0,1,1.209-3.71,7.784,7.784,0,0,1,3.526-2.521,15.059,15.059,0,0,1,5.473-.9,21.482,21.482,0,0,1,4.653.512,13.007,13.007,0,0,1,3.833,1.415l-2.132,4.551a12.728,12.728,0,0,0-6.355-1.64,6.466,6.466,0,0,0-3.075.574A1.688,1.688,0,0,0-43.5-15.5a1.465,1.465,0,0,0,1.107,1.435,19.6,19.6,0,0,0,3.526.779,37.743,37.743,0,0,1,4.428.964,6.652,6.652,0,0,1,2.993,1.866,5.294,5.294,0,0,1,1.271,3.772,5.825,5.825,0,0,1-1.23,3.649,7.852,7.852,0,0,1-3.587,2.48A15.983,15.983,0,0,1-40.59.328Zm28.577-1.394A6.574,6.574,0,0,1-14.33-.021,11.712,11.712,0,0,1-17.22.328a8.587,8.587,0,0,1-6.089-2.009,7.688,7.688,0,0,1-2.153-5.9v-9.061h-3.4v-4.92h3.4v-5.371h6.4v5.371h5.494v4.92h-5.494v8.979a3.011,3.011,0,0,0,.718,2.153,2.659,2.659,0,0,0,2.03.758,4.111,4.111,0,0,0,2.583-.82ZM13.079-22.058,3.116,1.353A11.521,11.521,0,0,1-.636,6.724,9.189,9.189,0,0,1-6.027,8.282a11.2,11.2,0,0,1-3.4-.533,7.513,7.513,0,0,1-2.747-1.476L-9.84,1.722a5.491,5.491,0,0,0,1.7,1.025,5.3,5.3,0,0,0,1.907.369A3.382,3.382,0,0,0-4.1,2.48,5.4,5.4,0,0,0-2.624.369l.082-.2L-12.1-22.058h6.6L.7-7.093,6.929-22.058ZM15.7-30.422h6.4V0H15.7ZM49.651-10.947q0,.123-.123,1.722H32.841a5.2,5.2,0,0,0,2.132,3.239A7.062,7.062,0,0,0,39.155-4.8a8.468,8.468,0,0,0,3.055-.513,7.4,7.4,0,0,0,2.48-1.619l3.4,3.69Q44.977.328,38.991.328a14.4,14.4,0,0,1-6.6-1.455,10.67,10.67,0,0,1-4.428-4.038A11.127,11.127,0,0,1,26.4-11.029a11.272,11.272,0,0,1,1.538-5.843,10.771,10.771,0,0,1,4.223-4.059,12.4,12.4,0,0,1,6.007-1.455,12.3,12.3,0,0,1,5.863,1.394,10.175,10.175,0,0,1,4.12,4A11.92,11.92,0,0,1,49.651-10.947Zm-11.439-6.6a5.508,5.508,0,0,0-3.649,1.23,5.236,5.236,0,0,0-1.8,3.362H43.624a5.288,5.288,0,0,0-1.8-3.342A5.392,5.392,0,0,0,38.212-17.548Z" transform="translate(50.143 30.422)"/>
</svg>
