<svg xmlns="http://www.w3.org/2000/svg" width="238.532" height="92.512" viewBox="0 0 238.532 92.512">
  <path id="Path_23" data-name="Path 23" d="M24.794.784A51.217,51.217,0,0,1,11.956-.833,33.542,33.542,0,0,1,1.96-4.9l5.1-10.976A32.073,32.073,0,0,0,15.582-12.2a35.734,35.734,0,0,0,9.8,1.421q9.7,0,9.7-4.8,0-2.254-2.646-3.234A39.192,39.192,0,0,0,24.3-20.482a78.47,78.47,0,0,1-10.682-2.254,16.573,16.573,0,0,1-7.3-4.508q-3.087-3.234-3.087-9.212a14.43,14.43,0,0,1,2.891-8.869,18.606,18.606,0,0,1,8.428-6.027,36,36,0,0,1,13.083-2.156,51.347,51.347,0,0,1,11.123,1.225A31.091,31.091,0,0,1,47.922-48.9l-5.1,10.878a30.423,30.423,0,0,0-15.19-3.92q-4.9,0-7.35,1.372t-2.45,3.528a3.5,3.5,0,0,0,2.646,3.43,46.843,46.843,0,0,0,8.428,1.862,90.216,90.216,0,0,1,10.584,2.3,15.9,15.9,0,0,1,7.154,4.459q3.038,3.234,3.038,9.016a13.923,13.923,0,0,1-2.94,8.722,18.768,18.768,0,0,1-8.575,5.929A38.2,38.2,0,0,1,24.794.784ZM93.1-2.548a15.714,15.714,0,0,1-5.537,2.5,27.994,27.994,0,0,1-6.909.833q-9.408,0-14.553-4.8T60.956-18.13V-39.788H52.822v-11.76h8.134V-64.386H76.244v12.838H89.376v11.76H76.244v21.462a7.2,7.2,0,0,0,1.715,5.145,6.356,6.356,0,0,0,4.851,1.813,9.825,9.825,0,0,0,6.174-1.96Zm59.976-50.176L129.262,3.234q-3.626,9.114-8.967,12.838A21.964,21.964,0,0,1,107.408,19.8a26.765,26.765,0,0,1-8.134-1.274,17.959,17.959,0,0,1-6.566-3.528L98.294,4.116a13.126,13.126,0,0,0,4.067,2.45,12.676,12.676,0,0,0,4.557.882,8.084,8.084,0,0,0,5.1-1.519A12.9,12.9,0,0,0,115.542.882l.2-.49L92.9-52.724h15.778l14.8,35.77,14.9-35.77Zm6.272-19.992h15.288V0H159.348Zm81.144,46.55q0,.294-.294,4.116H200.312a12.422,12.422,0,0,0,5.1,7.742,16.879,16.879,0,0,0,10,2.842,20.241,20.241,0,0,0,7.3-1.225,17.684,17.684,0,0,0,5.929-3.871l8.134,8.82Q229.32.784,215.012.784a34.416,34.416,0,0,1-15.778-3.479,25.5,25.5,0,0,1-10.584-9.653,26.6,26.6,0,0,1-3.724-14.014A26.943,26.943,0,0,1,188.6-40.327a25.746,25.746,0,0,1,10.094-9.7,29.637,29.637,0,0,1,14.357-3.479,29.4,29.4,0,0,1,14.014,3.332,24.32,24.32,0,0,1,9.849,9.555A28.492,28.492,0,0,1,240.492-26.166ZM213.15-41.944A13.166,13.166,0,0,0,204.428-39a12.516,12.516,0,0,0-4.312,8.036h25.97a12.641,12.641,0,0,0-4.312-7.987A12.888,12.888,0,0,0,213.15-41.944Z" transform="translate(-1.96 72.716)"/>
</svg>
