<svg xmlns="http://www.w3.org/2000/svg" width="192" height="43" viewBox="0 0 192 43">
  <g id="Group_29" data-name="Group 29" transform="translate(-84 -484)">
    <rect id="Rectangle_5" data-name="Rectangle 5" width="192" height="26" rx="8" transform="translate(84 484)" fill="#ab499b"/>
    <path id="Path_23" data-name="Path 23" d="M81.939,6.048H78.8V4.2h8.54V6.048H84.207V14H81.939Zm9.128.308a3.92,3.92,0,0,1,2.688.833A3.188,3.188,0,0,1,94.693,9.7V14H92.649v-.938a2.434,2.434,0,0,1-2.3,1.05,3.563,3.563,0,0,1-1.5-.294,2.244,2.244,0,0,1-.973-.812,2.113,2.113,0,0,1-.336-1.176,1.962,1.962,0,0,1,.791-1.652,4.031,4.031,0,0,1,2.443-.6h1.736a1.392,1.392,0,0,0-.434-1.1,1.912,1.912,0,0,0-1.3-.385,3.8,3.8,0,0,0-1.183.189,3.13,3.13,0,0,0-.987.511l-.784-1.526A4.73,4.73,0,0,1,89.3,6.594,6.616,6.616,0,0,1,91.067,6.356ZM90.9,12.642a1.9,1.9,0,0,0,.994-.259,1.417,1.417,0,0,0,.616-.763v-.77h-1.5q-1.344,0-1.344.882A.785.785,0,0,0,90,12.4,1.482,1.482,0,0,0,90.9,12.642Zm10.22-6.286a3.838,3.838,0,0,1,1.911.483A3.468,3.468,0,0,1,104.381,8.2a4.1,4.1,0,0,1,.49,2.037,4.1,4.1,0,0,1-.49,2.037,3.468,3.468,0,0,1-1.351,1.358,3.838,3.838,0,0,1-1.911.483,2.909,2.909,0,0,1-2.268-.91v3.514H96.667V6.468h2.086v.868A2.9,2.9,0,0,1,101.119,6.356Zm-.378,5.964a1.819,1.819,0,0,0,1.379-.567,2.114,2.114,0,0,0,.539-1.519,2.114,2.114,0,0,0-.539-1.519,1.96,1.96,0,0,0-2.758,0,2.114,2.114,0,0,0-.539,1.519,2.114,2.114,0,0,0,.539,1.519A1.819,1.819,0,0,0,100.741,12.32Zm14-5.964a3.838,3.838,0,0,1,1.911.483A3.468,3.468,0,0,1,118,8.2a4.1,4.1,0,0,1,.49,2.037,4.1,4.1,0,0,1-.49,2.037,3.468,3.468,0,0,1-1.351,1.358,3.838,3.838,0,0,1-1.911.483,2.9,2.9,0,0,1-2.366-.98V14h-2.086V3.612h2.184V7.266A2.909,2.909,0,0,1,114.741,6.356Zm-.378,5.964a1.819,1.819,0,0,0,1.379-.567,2.114,2.114,0,0,0,.539-1.519,2.114,2.114,0,0,0-.539-1.519,1.96,1.96,0,0,0-2.758,0,2.114,2.114,0,0,0-.539,1.519,2.114,2.114,0,0,0,.539,1.519A1.819,1.819,0,0,0,114.363,12.32Zm12.964-2.058q0,.042-.042.588h-5.7a1.775,1.775,0,0,0,.728,1.106,2.411,2.411,0,0,0,1.428.406,2.892,2.892,0,0,0,1.043-.175,2.526,2.526,0,0,0,.847-.553l1.162,1.26a3.905,3.905,0,0,1-3.108,1.218,4.917,4.917,0,0,1-2.254-.5,3.643,3.643,0,0,1-1.512-1.379,3.8,3.8,0,0,1-.532-2,3.849,3.849,0,0,1,.525-1.995,3.678,3.678,0,0,1,1.442-1.386,4.464,4.464,0,0,1,4.053-.021A3.474,3.474,0,0,1,126.816,8.2,4.07,4.07,0,0,1,127.327,10.262Zm-3.906-2.254a1.881,1.881,0,0,0-1.246.42,1.788,1.788,0,0,0-.616,1.148h3.71a1.806,1.806,0,0,0-.616-1.141A1.841,1.841,0,0,0,123.421,8.008Zm5.362-4.4h2.184V14h-2.184Zm7.8,10.5a4.516,4.516,0,0,1-2.135-.5,3.7,3.7,0,0,1-1.477-1.379,3.8,3.8,0,0,1-.532-2,3.8,3.8,0,0,1,.532-2,3.7,3.7,0,0,1,1.477-1.379,4.819,4.819,0,0,1,4.263,0,3.706,3.706,0,0,1,1.47,1.379,3.8,3.8,0,0,1,.532,2,3.8,3.8,0,0,1-.532,2,3.706,3.706,0,0,1-1.47,1.379A4.475,4.475,0,0,1,136.581,14.112Zm0-1.792a1.819,1.819,0,0,0,1.379-.567,2.114,2.114,0,0,0,.539-1.519,2.114,2.114,0,0,0-.539-1.519,1.819,1.819,0,0,0-1.379-.567,1.842,1.842,0,0,0-1.386.567,2.1,2.1,0,0,0-.546,1.519,2.1,2.1,0,0,0,.546,1.519A1.842,1.842,0,0,0,136.581,12.32Zm17.472-5.852L151.323,14h-2.1l-1.694-4.676L145.779,14h-2.1l-2.716-7.532h2.058l1.778,5.1,1.848-5.1h1.848l1.792,5.1,1.834-5.1Zm9.842,7.168a2.245,2.245,0,0,1-.791.357,4,4,0,0,1-.987.119,2.932,2.932,0,0,1-2.079-.686,2.625,2.625,0,0,1-.735-2.016V8.316h-1.162V6.636H159.3V4.8h2.184V6.636h1.876v1.68h-1.876v3.066a1.028,1.028,0,0,0,.245.735.908.908,0,0,0,.693.259,1.4,1.4,0,0,0,.882-.28Zm4.578.476a4.516,4.516,0,0,1-2.135-.5,3.7,3.7,0,0,1-1.477-1.379,3.8,3.8,0,0,1-.532-2,3.8,3.8,0,0,1,.532-2,3.7,3.7,0,0,1,1.477-1.379,4.819,4.819,0,0,1,4.263,0,3.706,3.706,0,0,1,1.47,1.379,3.8,3.8,0,0,1,.532,2,3.8,3.8,0,0,1-.532,2,3.706,3.706,0,0,1-1.47,1.379A4.475,4.475,0,0,1,168.473,14.112Zm0-1.792a1.819,1.819,0,0,0,1.379-.567,2.114,2.114,0,0,0,.539-1.519,2.114,2.114,0,0,0-.539-1.519,1.819,1.819,0,0,0-1.379-.567,1.842,1.842,0,0,0-1.386.567,2.1,2.1,0,0,0-.546,1.519,2.1,2.1,0,0,0,.546,1.519A1.842,1.842,0,0,0,168.473,12.32Zm11.634-4.858a2.429,2.429,0,0,1,1.057-.826,3.923,3.923,0,0,1,1.533-.28V8.372q-.364-.028-.49-.028a2,2,0,0,0-1.47.525,2.122,2.122,0,0,0-.532,1.575V14h-2.184V6.468h2.086Zm11.2,2.8q0,.042-.042.588h-5.7a1.775,1.775,0,0,0,.728,1.106,2.411,2.411,0,0,0,1.428.406,2.892,2.892,0,0,0,1.043-.175,2.526,2.526,0,0,0,.847-.553l1.162,1.26a3.905,3.905,0,0,1-3.108,1.218,4.917,4.917,0,0,1-2.254-.5,3.643,3.643,0,0,1-1.512-1.379,3.8,3.8,0,0,1-.532-2,3.849,3.849,0,0,1,.525-1.995,3.678,3.678,0,0,1,1.442-1.386,4.464,4.464,0,0,1,4.053-.021A3.474,3.474,0,0,1,190.8,8.2,4.07,4.07,0,0,1,191.307,10.262ZM187.4,8.008a1.881,1.881,0,0,0-1.246.42,1.788,1.788,0,0,0-.616,1.148h3.71a1.806,1.806,0,0,0-.616-1.141A1.841,1.841,0,0,0,187.4,8.008Zm12.7-1.54L196.921,14h-2.254L191.5,6.468h2.254l2.086,5.124L198,6.468Zm8.064,3.794q0,.042-.042.588h-5.7a1.775,1.775,0,0,0,.728,1.106,2.411,2.411,0,0,0,1.428.406,2.892,2.892,0,0,0,1.043-.175,2.526,2.526,0,0,0,.847-.553l1.162,1.26a3.905,3.905,0,0,1-3.108,1.218,4.917,4.917,0,0,1-2.254-.5,3.643,3.643,0,0,1-1.512-1.379,3.8,3.8,0,0,1-.532-2,3.849,3.849,0,0,1,.525-1.995,3.678,3.678,0,0,1,1.442-1.386,4.464,4.464,0,0,1,4.053-.021A3.474,3.474,0,0,1,207.652,8.2,4.07,4.07,0,0,1,208.163,10.262Zm-3.906-2.254a1.881,1.881,0,0,0-1.246.42,1.788,1.788,0,0,0-.616,1.148h3.71a1.806,1.806,0,0,0-.616-1.141A1.841,1.841,0,0,0,204.257,8.008Zm8.19-1.652a3.92,3.92,0,0,1,2.688.833,3.188,3.188,0,0,1,.938,2.513V14h-2.044v-.938a2.434,2.434,0,0,1-2.3,1.05,3.563,3.563,0,0,1-1.505-.294,2.244,2.244,0,0,1-.973-.812,2.113,2.113,0,0,1-.336-1.176,1.962,1.962,0,0,1,.791-1.652,4.031,4.031,0,0,1,2.443-.6h1.736a1.392,1.392,0,0,0-.434-1.1,1.912,1.912,0,0,0-1.3-.385,3.8,3.8,0,0,0-1.183.189,3.13,3.13,0,0,0-.987.511L209.2,7.266a4.73,4.73,0,0,1,1.477-.672A6.616,6.616,0,0,1,212.447,6.356Zm-.168,6.286a1.9,1.9,0,0,0,.994-.259,1.417,1.417,0,0,0,.616-.763v-.77h-1.5q-1.344,0-1.344.882a.785.785,0,0,0,.329.665A1.482,1.482,0,0,0,212.279,12.642Zm5.768-9.03h2.184V14h-2.184Z" transform="translate(30 488)" fill="#fff"/>
    <path id="Polygon_2" data-name="Polygon 2" d="M10.5,0,21,18H0Z" transform="translate(191 527) rotate(180)" fill="#ab499b"/>
  </g>
</svg>
